<svg id="Layer_1" data-name="Layer 1" xmlns="http://www.w3.org/2000/svg" xmlns:xlink="http://www.w3.org/1999/xlink" viewBox="0 0 168.97 168.97">
  <defs>
    <style>
      .cls-1 {
        fill: url(#linear-gradient);
      }

      .cls-2, .cls-3 {
        fill: #fff;
      }

      .cls-2 {
        opacity: 0.15;
      }
    </style>
    <linearGradient id="linear-gradient" x1="33.45" y1="24.43" x2="165.4" y2="174.27" gradientUnits="userSpaceOnUse">
      <stop offset="0" stop-color="#c24acb"/>
      <stop offset="1" stop-color="#663de7"/>
    </linearGradient>
  </defs>
  <title>icon- category</title>
  <g>
    <path class="cls-1" d="M184.33,107.78q-.29,7.77-1.16,15.55t-2.29,15.56a2.4,2.4,0,0,1,0,.24,52.14,52.14,0,0,1-5.4,15.31,51.61,51.61,0,0,1-4.93,7.5,50.92,50.92,0,0,1-7.89,8.05,51.81,51.81,0,0,1-23.49,10.93,214,214,0,0,1-78.26-.08A52.14,52.14,0,0,1,37.41,170,52.37,52.37,0,0,1,24.5,154.44a51.79,51.79,0,0,1-5.42-15.31c0-.08,0-.17,0-.24q-1.42-7.77-2.27-15.56t-1.12-15.55c-.12-3.2-.16-6.42-.12-9.62,0-2,.06-4,.14-5.94q.3-7.77,1.16-15.55.68-6.11,1.7-12.21c0-.31.1-.61.16-.91.14-.82.28-1.62.43-2.43,0-.09,0-.16,0-.25a52.26,52.26,0,0,1,2.78-9.68,52.08,52.08,0,0,1,38.93-32.1,213.81,213.81,0,0,1,78.26.07A52.15,52.15,0,0,1,170.51,38a51.28,51.28,0,0,1,5,7.54A50,50,0,0,1,178.06,51a51.74,51.74,0,0,1,2.85,9.88,2,2,0,0,1,.05.24l.39,2.2c.05.31.11.63.15.94q1,6.19,1.73,12.41.86,7.77,1.12,15.55c.07,1.91.11,3.81.13,5.72C184.5,101.21,184.46,104.5,184.33,107.78Z" transform="translate(-15.52 -15.51)"/>
    <path class="cls-2" d="M181.5,64.26A154.64,154.64,0,0,1,99.86,87.4,154.74,154.74,0,0,1,18.53,64.46c0-.31.1-.61.16-.91.14-.82.28-1.62.43-2.43,0-.09,0-.16,0-.25a52.26,52.26,0,0,1,2.78-9.68,52.08,52.08,0,0,1,38.93-32.1,213.81,213.81,0,0,1,78.26.07A52.15,52.15,0,0,1,170.51,38a51.28,51.28,0,0,1,5,7.54A50,50,0,0,1,178.06,51a51.74,51.74,0,0,1,2.85,9.88,2,2,0,0,1,.05.24l.39,2.2C181.4,63.63,181.46,64,181.5,64.26Z" transform="translate(-15.52 -15.51)"/>
    <g>
      <path class="cls-3" d="M97,77.28c-.05,1.34-.15,2.68-.3,4s-.35,2.68-.59,4a.13.13,0,0,0,0,.06A13.44,13.44,0,0,1,85.37,96.15a55.09,55.09,0,0,1-20.2,0,13.43,13.43,0,0,1-9.38-6.81,13.27,13.27,0,0,1-1.4-3.95s0,0,0-.06c-.24-1.34-.44-2.68-.59-4s-.24-2.67-.29-4,0-2.67,0-4,.15-2.68.3-4,.34-2.67.59-4c0,0,0,0,0-.06a13.7,13.7,0,0,1,1.39-4A14.53,14.53,0,0,1,57.34,59a13.93,13.93,0,0,1,1.77-1.75,13.39,13.39,0,0,1,6.06-2.82,55.31,55.31,0,0,1,20.2,0,13.47,13.47,0,0,1,6.06,2.8,13.77,13.77,0,0,1,2,2.07,14.85,14.85,0,0,1,1.29,1.94,13.14,13.14,0,0,1,1.39,4,.13.13,0,0,1,0,.06c.25,1.33.45,2.67.59,4s.24,2.68.29,4S97.09,75.94,97,77.28Z" transform="translate(-15.52 -15.51)"/>
      <path class="cls-3" d="M146.49,77.28c-.05,1.34-.15,2.68-.3,4s-.34,2.68-.59,4c0,0,0,0,0,.06a13.27,13.27,0,0,1-1.4,3.95,12.45,12.45,0,0,1-1.27,1.94,13.77,13.77,0,0,1-2,2.08,13.37,13.37,0,0,1-6.07,2.81,55,55,0,0,1-20.19,0,13.45,13.45,0,0,1-6.06-2.79,13.3,13.3,0,0,1-1.77-1.75,13.06,13.06,0,0,1-1.56-2.27,13.27,13.27,0,0,1-1.4-3.95.13.13,0,0,0,0-.06c-.24-1.34-.44-2.68-.58-4s-.24-2.67-.29-4,0-2.67,0-4,.15-2.68.3-4,.35-2.67.59-4a.13.13,0,0,0,0-.06,13.43,13.43,0,0,1,1.4-4,13.4,13.4,0,0,1,9.37-6.83,55.26,55.26,0,0,1,20.19,0,13.47,13.47,0,0,1,6.06,2.8,13.31,13.31,0,0,1,2,2.07,13.07,13.07,0,0,1,1.29,1.94,13.43,13.43,0,0,1,1.4,4,.13.13,0,0,0,0,.06c.24,1.33.44,2.67.58,4s.25,2.68.29,4S146.54,75.94,146.49,77.28Z" transform="translate(-15.52 -15.51)"/>
      <path class="cls-3" d="M97,126.73q-.08,2-.3,4c-.15,1.33-.35,2.67-.59,4a.13.13,0,0,0,0,.06,13.43,13.43,0,0,1-1.4,4,13.12,13.12,0,0,1-1.27,1.93,13,13,0,0,1-2,2.08,13.3,13.3,0,0,1-6.06,2.82,55.31,55.31,0,0,1-20.2,0,13.48,13.48,0,0,1-6.05-2.8,13.94,13.94,0,0,1-1.78-1.74,13.58,13.58,0,0,1-1.55-2.27,13.43,13.43,0,0,1-1.4-4s0,0,0-.06c-.24-1.33-.44-2.67-.59-4s-.24-2.68-.29-4,0-2.67,0-4,.15-2.68.3-4,.34-2.68.59-4c0,0,0,0,0-.06a13.54,13.54,0,0,1,1.39-3.95,14.15,14.15,0,0,1,1.54-2.27,14.63,14.63,0,0,1,1.77-1.75,13.38,13.38,0,0,1,6.06-2.81,55.09,55.09,0,0,1,20.2,0,13.57,13.57,0,0,1,6.06,2.8,13.56,13.56,0,0,1,3.33,4,13,13,0,0,1,1.39,3.95.13.13,0,0,1,0,.06c.25,1.34.45,2.68.59,4s.24,2.67.29,4S97.09,125.39,97,126.73Z" transform="translate(-15.52 -15.51)"/>
      <path class="cls-3" d="M146.49,126.73q-.08,2-.3,4c-.15,1.33-.34,2.67-.59,4,0,0,0,0,0,.06a13.43,13.43,0,0,1-1.4,4,12.36,12.36,0,0,1-1.27,1.93,13.34,13.34,0,0,1-8.1,4.9,55.26,55.26,0,0,1-20.19,0,13.47,13.47,0,0,1-6.06-2.8,13.86,13.86,0,0,1-1.77-1.74,13.06,13.06,0,0,1-1.56-2.27,13.43,13.43,0,0,1-1.4-4,.13.13,0,0,0,0-.06c-.24-1.33-.44-2.67-.58-4s-.24-2.68-.29-4,0-2.67,0-4,.15-2.68.3-4,.35-2.68.59-4a.13.13,0,0,0,0-.06,13.27,13.27,0,0,1,1.4-3.95,13,13,0,0,1,1.54-2.27,13.86,13.86,0,0,1,1.76-1.75,13.37,13.37,0,0,1,6.07-2.81,55,55,0,0,1,20.19,0,13.57,13.57,0,0,1,6.06,2.8,13.77,13.77,0,0,1,2,2.07,12.66,12.66,0,0,1,1.29,2,13.27,13.27,0,0,1,1.4,3.95.13.13,0,0,0,0,.06c.24,1.34.44,2.68.58,4s.25,2.67.29,4S146.54,125.39,146.49,126.73Z" transform="translate(-15.52 -15.51)"/>
    </g>
  </g>
</svg>
