<?xml version="1.0" encoding="UTF-8"?> <svg xmlns="http://www.w3.org/2000/svg" width="150" height="150"><defs><linearGradient x1="14.777%" y1="14.775%" x2="85.222%" y2="85.221%" id="a"><stop stop-color="#FFFF80" offset="0%"></stop><stop stop-color="#FCF97B" offset="9.7%"></stop><stop stop-color="#F3E96C" offset="22.3%"></stop><stop stop-color="#E4CE53" offset="36.6%"></stop><stop stop-color="#D0A830" offset="52.1%"></stop><stop stop-color="#B67805" offset="68.4%"></stop><stop stop-color="#B37300" offset="70%"></stop><stop stop-color="#B67905" offset="74.4%"></stop><stop stop-color="#C08914" offset="80.2%"></stop><stop stop-color="#D0A42D" offset="86.7%"></stop><stop stop-color="#E7CA4E" offset="93.7%"></stop><stop stop-color="#FFF273" offset="100%"></stop></linearGradient><linearGradient x1="14.779%" y1="14.779%" x2="85.22%" y2="85.219%" id="b"><stop stop-color="#FFF979" offset="0%"></stop><stop stop-color="#FFBF40" offset="35%"></stop><stop stop-color="#FFC545" offset="35.2%"></stop><stop stop-color="#FFD051" offset="36%"></stop><stop stop-color="#FFD757" offset="37.1%"></stop><stop stop-color="#FFD959" offset="40%"></stop><stop stop-color="#F9D050" offset="46.8%"></stop><stop stop-color="#E7B838" offset="57.9%"></stop><stop stop-color="#CB9010" offset="71.9%"></stop><stop stop-color="#BF8000" offset="77%"></stop><stop stop-color="#D29717" offset="80.2%"></stop><stop stop-color="#E6AE2F" offset="84.4%"></stop><stop stop-color="#F4BF40" offset="88.9%"></stop><stop stop-color="#FCC94A" offset="93.9%"></stop><stop stop-color="#FFCC4D" offset="100%"></stop></linearGradient><linearGradient x1="4.587%" y1="3.747%" x2="96.144%" y2="95.515%" id="c"><stop stop-color="#FFFF80" offset="0%"></stop><stop stop-color="#BF8000" offset="60%"></stop><stop stop-color="#FFCC4D" offset="100%"></stop></linearGradient><linearGradient x1="2.704%" y1="5.562%" x2="97.501%" y2="94.126%" id="d"><stop stop-color="#FFFF80" offset="0%"></stop><stop stop-color="#BF8000" offset="60%"></stop><stop stop-color="#FFCC4D" offset="100%"></stop></linearGradient><linearGradient x1=".92%" y1="7.07%" x2="99.249%" y2="92.634%" id="e"><stop stop-color="#FFFF80" offset="0%"></stop><stop stop-color="#BF8000" offset="60%"></stop><stop stop-color="#FFCC4D" offset="100%"></stop></linearGradient><linearGradient x1="14.559%" y1="8.372%" x2="85.582%" y2="91.234%" id="f"><stop stop-color="#FFFF80" offset="0%"></stop><stop stop-color="#BF8000" offset="60%"></stop><stop stop-color="#FFCC4D" offset="100%"></stop></linearGradient><linearGradient x1="26.294%" y1="9.798%" x2="73.672%" y2="89.893%" id="g"><stop stop-color="#FFFF80" offset="0%"></stop><stop stop-color="#BF8000" offset="60%"></stop><stop stop-color="#FFCC4D" offset="100%"></stop></linearGradient><linearGradient x1="25.231%" y1="11.059%" x2="74.69%" y2="88.654%" id="h"><stop stop-color="#FFFF80" offset="0%"></stop><stop stop-color="#BF8000" offset="60%"></stop><stop stop-color="#FFCC4D" offset="100%"></stop></linearGradient><linearGradient x1="24.063%" y1="12.297%" x2="75.835%" y2="87.37%" id="i"><stop stop-color="#FFFF80" offset="0%"></stop><stop stop-color="#BF8000" offset="60%"></stop><stop stop-color="#FFCC4D" offset="100%"></stop></linearGradient><linearGradient x1="22.729%" y1="13.458%" x2="77.08%" y2="86.178%" id="j"><stop stop-color="#FFFF80" offset="0%"></stop><stop stop-color="#BF8000" offset="60%"></stop><stop stop-color="#FFCC4D" offset="100%"></stop></linearGradient><linearGradient x1="33.814%" y1="14.628%" x2="66.035%" y2="85.081%" id="k"><stop stop-color="#FFFF80" offset="0%"></stop><stop stop-color="#BF8000" offset="60%"></stop><stop stop-color="#FFCC4D" offset="100%"></stop></linearGradient><linearGradient x1="32.883%" y1="15.671%" x2="66.954%" y2="84.005%" id="l"><stop stop-color="#FFFF80" offset="0%"></stop><stop stop-color="#BF8000" offset="60%"></stop><stop stop-color="#FFCC4D" offset="100%"></stop></linearGradient><linearGradient x1="31.775%" y1="16.775%" x2="68.003%" y2="82.947%" id="m"><stop stop-color="#FFFF80" offset="0%"></stop><stop stop-color="#BF8000" offset="60%"></stop><stop stop-color="#FFCC4D" offset="100%"></stop></linearGradient><linearGradient x1="30.476%" y1="17.837%" x2="69.232%" y2="81.877%" id="n"><stop stop-color="#FFFF80" offset="0%"></stop><stop stop-color="#BF8000" offset="60%"></stop><stop stop-color="#FFCC4D" offset="100%"></stop></linearGradient><linearGradient x1="40.61%" y1="18.872%" x2="59.2%" y2="80.925%" id="o"><stop stop-color="#FFFF80" offset="0%"></stop><stop stop-color="#BF8000" offset="60%"></stop><stop stop-color="#FFCC4D" offset="100%"></stop></linearGradient><linearGradient x1="42.479%" y1="19.931%" x2="57.333%" y2="79.962%" id="p"><stop stop-color="#FFFF80" offset="0%"></stop><stop stop-color="#BF8000" offset="60%"></stop><stop stop-color="#FFCC4D" offset="100%"></stop></linearGradient><linearGradient x1="41.73%" y1="20.951%" x2="58.072%" y2="78.982%" id="q"><stop stop-color="#FFFF80" offset="0%"></stop><stop stop-color="#BF8000" offset="60%"></stop><stop stop-color="#FFCC4D" offset="100%"></stop></linearGradient><linearGradient x1="40.724%" y1="21.938%" x2="59.037%" y2="78.04%" id="r"><stop stop-color="#FFFF80" offset="0%"></stop><stop stop-color="#BF8000" offset="60%"></stop><stop stop-color="#FFCC4D" offset="100%"></stop></linearGradient><linearGradient x1="40.296%" y1="22.92%" x2="59.565%" y2="77.14%" id="s"><stop stop-color="#FFFF80" offset="0%"></stop><stop stop-color="#BF8000" offset="60%"></stop><stop stop-color="#FFCC4D" offset="100%"></stop></linearGradient><linearGradient x1="41.996%" y1="23.952%" x2="57.994%" y2="76.212%" id="t"><stop stop-color="#FFFF80" offset="0%"></stop><stop stop-color="#BF8000" offset="60%"></stop><stop stop-color="#FFCC4D" offset="100%"></stop></linearGradient><linearGradient x1="43.299%" y1="24.935%" x2="56.683%" y2="75.327%" id="u"><stop stop-color="#FFFF80" offset="0%"></stop><stop stop-color="#BF8000" offset="60%"></stop><stop stop-color="#FFCC4D" offset="100%"></stop></linearGradient><linearGradient x1="44.315%" y1="26.003%" x2="55.685%" y2="74.426%" id="v"><stop stop-color="#FFFF80" offset="0%"></stop><stop stop-color="#BF8000" offset="60%"></stop><stop stop-color="#FFCC4D" offset="100%"></stop></linearGradient><linearGradient x1="35.097%" y1="26.979%" x2="64.953%" y2="73.448%" id="w"><stop stop-color="#FFFF80" offset="0%"></stop><stop stop-color="#BF8000" offset="60%"></stop><stop stop-color="#FFCC4D" offset="100%"></stop></linearGradient><linearGradient x1="37.195%" y1="27.986%" x2="62.967%" y2="72.5%" id="x"><stop stop-color="#FFFF80" offset="0%"></stop><stop stop-color="#BF8000" offset="60%"></stop><stop stop-color="#FFCC4D" offset="100%"></stop></linearGradient><linearGradient x1="38.921%" y1="29.02%" x2="61.241%" y2="71.54%" id="y"><stop stop-color="#FFFF80" offset="0%"></stop><stop stop-color="#BF8000" offset="60%"></stop><stop stop-color="#FFCC4D" offset="100%"></stop></linearGradient><linearGradient x1="40.419%" y1="30.041%" x2="59.799%" y2="70.48%" id="z"><stop stop-color="#FFFF80" offset="0%"></stop><stop stop-color="#BF8000" offset="60%"></stop><stop stop-color="#FFCC4D" offset="100%"></stop></linearGradient><linearGradient x1="41.684%" y1="31.176%" x2="58.552%" y2="69.484%" id="A"><stop stop-color="#FFFF80" offset="0%"></stop><stop stop-color="#BF8000" offset="60%"></stop><stop stop-color="#FFCC4D" offset="100%"></stop></linearGradient><linearGradient x1="37.17%" y1="32.299%" x2="63.245%" y2="68.418%" id="B"><stop stop-color="#FFFF80" offset="0%"></stop><stop stop-color="#BF8000" offset="60%"></stop><stop stop-color="#FFCC4D" offset="100%"></stop></linearGradient><linearGradient x1="38.928%" y1="33.348%" x2="61.537%" y2="67.331%" id="C"><stop stop-color="#FFFF80" offset="0%"></stop><stop stop-color="#BF8000" offset="60%"></stop><stop stop-color="#FFCC4D" offset="100%"></stop></linearGradient><linearGradient x1="40.428%" y1="34.458%" x2="59.987%" y2="66.138%" id="D"><stop stop-color="#FFFF80" offset="0%"></stop><stop stop-color="#BF8000" offset="60%"></stop><stop stop-color="#FFCC4D" offset="100%"></stop></linearGradient><linearGradient x1="41.843%" y1="35.646%" x2="58.642%" y2="64.96%" id="E"><stop stop-color="#FFFF80" offset="0%"></stop><stop stop-color="#BF8000" offset="60%"></stop><stop stop-color="#FFCC4D" offset="100%"></stop></linearGradient><linearGradient x1="34.486%" y1="36.823%" x2="66.711%" y2="63.771%" id="F"><stop stop-color="#FFFF80" offset="0%"></stop><stop stop-color="#BF8000" offset="60%"></stop><stop stop-color="#FFCC4D" offset="100%"></stop></linearGradient><linearGradient x1="37.021%" y1="38.166%" x2="64.116%" y2="62.498%" id="G"><stop stop-color="#FFFF80" offset="0%"></stop><stop stop-color="#BF8000" offset="60%"></stop><stop stop-color="#FFCC4D" offset="100%"></stop></linearGradient><linearGradient x1="39.294%" y1="39.437%" x2="61.864%" y2="61.105%" id="H"><stop stop-color="#FFFF80" offset="0%"></stop><stop stop-color="#BF8000" offset="60%"></stop><stop stop-color="#FFCC4D" offset="100%"></stop></linearGradient><linearGradient x1="39.368%" y1="38.673%" x2="60.998%" y2="61.084%" id="I"><stop stop-color="#FFFF80" offset="0%"></stop><stop stop-color="#BF8000" offset="60%"></stop><stop stop-color="#FFCC4D" offset="100%"></stop></linearGradient><linearGradient x1="38.059%" y1="36.358%" x2="62.197%" y2="63.169%" id="J"><stop stop-color="#FFFF80" offset="0%"></stop><stop stop-color="#BF8000" offset="60%"></stop><stop stop-color="#FFCC4D" offset="100%"></stop></linearGradient><linearGradient x1="36.766%" y1="33.894%" x2="63.448%" y2="65.708%" id="K"><stop stop-color="#FFFF80" offset="0%"></stop><stop stop-color="#BF8000" offset="60%"></stop><stop stop-color="#FFCC4D" offset="100%"></stop></linearGradient><linearGradient x1="35.56%" y1="41.603%" x2="64.756%" y2="58.157%" id="L"><stop stop-color="#FFFF80" offset="0%"></stop><stop stop-color="#BF8000" offset="60%"></stop><stop stop-color="#FFCC4D" offset="100%"></stop></linearGradient><linearGradient x1="34.365%" y1="40.201%" x2="65.855%" y2="59.534%" id="M"><stop stop-color="#FFFF80" offset="0%"></stop><stop stop-color="#BF8000" offset="60%"></stop><stop stop-color="#FFCC4D" offset="100%"></stop></linearGradient><linearGradient x1="33.211%" y1="38.622%" x2="67.02%" y2="60.982%" id="N"><stop stop-color="#FFFF80" offset="0%"></stop><stop stop-color="#BF8000" offset="60%"></stop><stop stop-color="#FFCC4D" offset="100%"></stop></linearGradient><linearGradient x1="32.087%" y1="36.843%" x2="68.11%" y2="62.633%" id="O"><stop stop-color="#FFFF80" offset="0%"></stop><stop stop-color="#BF8000" offset="60%"></stop><stop stop-color="#FFCC4D" offset="100%"></stop></linearGradient><linearGradient x1="30.921%" y1="34.85%" x2="69.14%" y2="64.527%" id="P"><stop stop-color="#FFFF80" offset="0%"></stop><stop stop-color="#BF8000" offset="60%"></stop><stop stop-color="#FFCC4D" offset="100%"></stop></linearGradient><linearGradient x1="29.948%" y1="40.194%" x2="70.176%" y2="59.418%" id="Q"><stop stop-color="#FFFF80" offset="0%"></stop><stop stop-color="#BF8000" offset="60%"></stop><stop stop-color="#FFCC4D" offset="100%"></stop></linearGradient><linearGradient x1="28.867%" y1="38.729%" x2="71.186%" y2="60.848%" id="R"><stop stop-color="#FFFF80" offset="0%"></stop><stop stop-color="#BF8000" offset="60%"></stop><stop stop-color="#FFCC4D" offset="100%"></stop></linearGradient><linearGradient x1="27.852%" y1="36.993%" x2="72.169%" y2="62.534%" id="S"><stop stop-color="#FFFF80" offset="0%"></stop><stop stop-color="#BF8000" offset="60%"></stop><stop stop-color="#FFCC4D" offset="100%"></stop></linearGradient><linearGradient x1="26.825%" y1="34.934%" x2="73.12%" y2="64.465%" id="T"><stop stop-color="#FFFF80" offset="0%"></stop><stop stop-color="#BF8000" offset="60%"></stop><stop stop-color="#FFCC4D" offset="100%"></stop></linearGradient><linearGradient x1="25.81%" y1="44.293%" x2="74.079%" y2="55.532%" id="U"><stop stop-color="#FFFF80" offset="0%"></stop><stop stop-color="#BF8000" offset="60%"></stop><stop stop-color="#FFCC4D" offset="100%"></stop></linearGradient><linearGradient x1="24.831%" y1="43.309%" x2="75.02%" y2="56.509%" id="V"><stop stop-color="#FFFF80" offset="0%"></stop><stop stop-color="#BF8000" offset="60%"></stop><stop stop-color="#FFCC4D" offset="100%"></stop></linearGradient><linearGradient x1="23.893%" y1="42.016%" x2="76.026%" y2="57.729%" id="W"><stop stop-color="#FFFF80" offset="0%"></stop><stop stop-color="#BF8000" offset="60%"></stop><stop stop-color="#FFCC4D" offset="100%"></stop></linearGradient><linearGradient x1="22.941%" y1="40.371%" x2="76.989%" y2="59.315%" id="X"><stop stop-color="#FFFF80" offset="0%"></stop><stop stop-color="#BF8000" offset="60%"></stop><stop stop-color="#FFCC4D" offset="100%"></stop></linearGradient><linearGradient x1="21.965%" y1="40.833%" x2="77.96%" y2="59.089%" id="Y"><stop stop-color="#FFFF80" offset="0%"></stop><stop stop-color="#BF8000" offset="60%"></stop><stop stop-color="#FFCC4D" offset="100%"></stop></linearGradient><linearGradient x1="20.953%" y1="41.8%" x2="78.955%" y2="58.128%" id="Z"><stop stop-color="#FFFF80" offset="0%"></stop><stop stop-color="#BF8000" offset="60%"></stop><stop stop-color="#FFCC4D" offset="100%"></stop></linearGradient><linearGradient x1="19.99%" y1="42.55%" x2="79.968%" y2="57.4%" id="aa"><stop stop-color="#FFFF80" offset="0%"></stop><stop stop-color="#BF8000" offset="60%"></stop><stop stop-color="#FFCC4D" offset="100%"></stop></linearGradient><linearGradient x1="18.945%" y1="40.668%" x2="80.838%" y2="59.26%" id="ab"><stop stop-color="#FFFF80" offset="0%"></stop><stop stop-color="#BF8000" offset="60%"></stop><stop stop-color="#FFCC4D" offset="100%"></stop></linearGradient><linearGradient x1="17.936%" y1="30.507%" x2="81.828%" y2="69.348%" id="ac"><stop stop-color="#FFFF80" offset="0%"></stop><stop stop-color="#BF8000" offset="60%"></stop><stop stop-color="#FFCC4D" offset="100%"></stop></linearGradient><linearGradient x1="16.89%" y1="31.788%" x2="82.86%" y2="68.108%" id="ad"><stop stop-color="#FFFF80" offset="0%"></stop><stop stop-color="#BF8000" offset="60%"></stop><stop stop-color="#FFCC4D" offset="100%"></stop></linearGradient><linearGradient x1="15.757%" y1="32.899%" x2="83.899%" y2="67.085%" id="ae"><stop stop-color="#FFFF80" offset="0%"></stop><stop stop-color="#BF8000" offset="60%"></stop><stop stop-color="#FFCC4D" offset="100%"></stop></linearGradient><linearGradient x1="14.567%" y1="33.834%" x2="84.929%" y2="66.168%" id="af"><stop stop-color="#FFFF80" offset="0%"></stop><stop stop-color="#BF8000" offset="60%"></stop><stop stop-color="#FFCC4D" offset="100%"></stop></linearGradient><linearGradient x1="13.447%" y1="22.733%" x2="86.039%" y2="77.263%" id="ag"><stop stop-color="#FFFF80" offset="0%"></stop><stop stop-color="#BF8000" offset="60%"></stop><stop stop-color="#FFCC4D" offset="100%"></stop></linearGradient><linearGradient x1="12.252%" y1="24.08%" x2="87.241%" y2="75.999%" id="ah"><stop stop-color="#FFFF80" offset="0%"></stop><stop stop-color="#BF8000" offset="60%"></stop><stop stop-color="#FFCC4D" offset="100%"></stop></linearGradient><linearGradient x1="11.014%" y1="25.276%" x2="88.433%" y2="74.908%" id="ai"><stop stop-color="#FFFF80" offset="0%"></stop><stop stop-color="#BF8000" offset="60%"></stop><stop stop-color="#FFCC4D" offset="100%"></stop></linearGradient><linearGradient x1="9.692%" y1="26.344%" x2="89.698%" y2="73.873%" id="aj"><stop stop-color="#FFFF80" offset="0%"></stop><stop stop-color="#BF8000" offset="60%"></stop><stop stop-color="#FFCC4D" offset="100%"></stop></linearGradient><linearGradient x1="8.353%" y1="27.296%" x2="91.022%" y2="72.922%" id="ak"><stop stop-color="#FFFF80" offset="0%"></stop><stop stop-color="#BF8000" offset="60%"></stop><stop stop-color="#FFCC4D" offset="100%"></stop></linearGradient><linearGradient x1="6.882%" y1=".951%" x2="92.359%" y2="99.6%" id="al"><stop stop-color="#FFFF80" offset="0%"></stop><stop stop-color="#BF8000" offset="60%"></stop><stop stop-color="#FFCC4D" offset="100%"></stop></linearGradient><linearGradient x1="5.4%" y1="2.888%" x2="93.77%" y2="97.924%" id="am"><stop stop-color="#FFFF80" offset="0%"></stop><stop stop-color="#BF8000" offset="60%"></stop><stop stop-color="#FFCC4D" offset="100%"></stop></linearGradient><linearGradient x1="3.92%" y1="4.484%" x2="95.434%" y2="96.174%" id="an"><stop stop-color="#FFFF80" offset="0%"></stop><stop stop-color="#BF8000" offset="60%"></stop><stop stop-color="#FFCC4D" offset="100%"></stop></linearGradient><linearGradient x1="2.509%" y1="5.864%" x2="97.295%" y2="94.434%" id="ao"><stop stop-color="#FFFF80" offset="0%"></stop><stop stop-color="#BF8000" offset="60%"></stop><stop stop-color="#FFCC4D" offset="100%"></stop></linearGradient><linearGradient x1=".692%" y1="7.296%" x2="99.101%" y2="92.934%" id="ap"><stop stop-color="#FFFF80" offset="0%"></stop><stop stop-color="#BF8000" offset="60%"></stop><stop stop-color="#FFCC4D" offset="100%"></stop></linearGradient><linearGradient x1="14.483%" y1="8.753%" x2="85.508%" y2="91.545%" id="aq"><stop stop-color="#FFFF80" offset="0%"></stop><stop stop-color="#BF8000" offset="60%"></stop><stop stop-color="#FFCC4D" offset="100%"></stop></linearGradient><linearGradient x1="26.331%" y1="10.11%" x2="73.668%" y2="90.204%" id="ar"><stop stop-color="#FFFF80" offset="0%"></stop><stop stop-color="#BF8000" offset="60%"></stop><stop stop-color="#FFCC4D" offset="100%"></stop></linearGradient><linearGradient x1="25.306%" y1="11.416%" x2="74.765%" y2="89.014%" id="as"><stop stop-color="#FFFF80" offset="0%"></stop><stop stop-color="#BF8000" offset="60%"></stop><stop stop-color="#FFCC4D" offset="100%"></stop></linearGradient><linearGradient x1="24.166%" y1="12.566%" x2="75.937%" y2="87.703%" id="at"><stop stop-color="#FFFF80" offset="0%"></stop><stop stop-color="#BF8000" offset="60%"></stop><stop stop-color="#FFCC4D" offset="100%"></stop></linearGradient><linearGradient x1="22.912%" y1="13.748%" x2="77.268%" y2="86.534%" id="au"><stop stop-color="#FFFF80" offset="0%"></stop><stop stop-color="#BF8000" offset="60%"></stop><stop stop-color="#FFCC4D" offset="100%"></stop></linearGradient><linearGradient x1="33.961%" y1="14.915%" x2="66.155%" y2="85.369%" id="av"><stop stop-color="#FFFF80" offset="0%"></stop><stop stop-color="#BF8000" offset="60%"></stop><stop stop-color="#FFCC4D" offset="100%"></stop></linearGradient><linearGradient x1="33.075%" y1="15.994%" x2="67.15%" y2="84.265%" id="aw"><stop stop-color="#FFFF80" offset="0%"></stop><stop stop-color="#BF8000" offset="60%"></stop><stop stop-color="#FFCC4D" offset="100%"></stop></linearGradient><linearGradient x1="32.029%" y1="17.053%" x2="68.261%" y2="83.166%" id="ax"><stop stop-color="#FFFF80" offset="0%"></stop><stop stop-color="#BF8000" offset="60%"></stop><stop stop-color="#FFCC4D" offset="100%"></stop></linearGradient><linearGradient x1="30.804%" y1="18.113%" x2="69.56%" y2="82.153%" id="ay"><stop stop-color="#FFFF80" offset="0%"></stop><stop stop-color="#BF8000" offset="60%"></stop><stop stop-color="#FFCC4D" offset="100%"></stop></linearGradient><linearGradient x1="40.8%" y1="19.076%" x2="59.37%" y2="81.066%" id="az"><stop stop-color="#FFFF80" offset="0%"></stop><stop stop-color="#BF8000" offset="60%"></stop><stop stop-color="#FFCC4D" offset="100%"></stop></linearGradient><linearGradient x1="42.653%" y1="20.047%" x2="57.506%" y2="80.077%" id="aA"><stop stop-color="#FFFF80" offset="0%"></stop><stop stop-color="#BF8000" offset="60%"></stop><stop stop-color="#FFCC4D" offset="100%"></stop></linearGradient><linearGradient x1="41.942%" y1="21.023%" x2="58.291%" y2="79.054%" id="aB"><stop stop-color="#FFFF80" offset="0%"></stop><stop stop-color="#BF8000" offset="60%"></stop><stop stop-color="#FFCC4D" offset="100%"></stop></linearGradient><linearGradient x1="40.986%" y1="21.948%" x2="59.275%" y2="78.05%" id="aC"><stop stop-color="#FFFF80" offset="0%"></stop><stop stop-color="#BF8000" offset="60%"></stop><stop stop-color="#FFCC4D" offset="100%"></stop></linearGradient><linearGradient x1="40.433%" y1="22.86%" x2="59.704%" y2="77.018%" id="aD"><stop stop-color="#FFFF80" offset="0%"></stop><stop stop-color="#BF8000" offset="60%"></stop><stop stop-color="#FFCC4D" offset="100%"></stop></linearGradient><linearGradient x1="42.01%" y1="23.784%" x2="58.007%" y2="76.048%" id="aE"><stop stop-color="#FFFF80" offset="0%"></stop><stop stop-color="#BF8000" offset="60%"></stop><stop stop-color="#FFCC4D" offset="100%"></stop></linearGradient><linearGradient x1="43.323%" y1="24.67%" x2="56.703%" y2="75.064%" id="aF"><stop stop-color="#FFFF80" offset="0%"></stop><stop stop-color="#BF8000" offset="60%"></stop><stop stop-color="#FFCC4D" offset="100%"></stop></linearGradient><linearGradient x1="44.315%" y1="25.634%" x2="55.687%" y2="74.058%" id="aG"><stop stop-color="#FFFF80" offset="0%"></stop><stop stop-color="#BF8000" offset="60%"></stop><stop stop-color="#FFCC4D" offset="100%"></stop></linearGradient><linearGradient x1="35%" y1="26.551%" x2="64.899%" y2="73.083%" id="aH"><stop stop-color="#FFFF80" offset="0%"></stop><stop stop-color="#BF8000" offset="60%"></stop><stop stop-color="#FFCC4D" offset="100%"></stop></linearGradient><linearGradient x1="37.031%" y1="27.498%" x2="62.805%" y2="72.012%" id="aI"><stop stop-color="#FFFF80" offset="0%"></stop><stop stop-color="#BF8000" offset="60%"></stop><stop stop-color="#FFCC4D" offset="100%"></stop></linearGradient><linearGradient x1="38.759%" y1="28.516%" x2="61.078%" y2="70.976%" id="aJ"><stop stop-color="#FFFF80" offset="0%"></stop><stop stop-color="#BF8000" offset="60%"></stop><stop stop-color="#FFCC4D" offset="100%"></stop></linearGradient><linearGradient x1="40.198%" y1="29.512%" x2="59.577%" y2="69.892%" id="aK"><stop stop-color="#FFFF80" offset="0%"></stop><stop stop-color="#BF8000" offset="60%"></stop><stop stop-color="#FFCC4D" offset="100%"></stop></linearGradient><linearGradient x1="41.476%" y1="30.516%" x2="58.313%" y2="68.825%" id="aL"><stop stop-color="#FFFF80" offset="0%"></stop><stop stop-color="#BF8000" offset="60%"></stop><stop stop-color="#FFCC4D" offset="100%"></stop></linearGradient><linearGradient x1="36.757%" y1="31.649%" x2="62.83%" y2="67.766%" id="aM"><stop stop-color="#FFFF80" offset="0%"></stop><stop stop-color="#BF8000" offset="60%"></stop><stop stop-color="#FFCC4D" offset="100%"></stop></linearGradient><linearGradient x1="38.464%" y1="32.715%" x2="61.075%" y2="66.629%" id="aN"><stop stop-color="#FFFF80" offset="0%"></stop><stop stop-color="#BF8000" offset="60%"></stop><stop stop-color="#FFCC4D" offset="100%"></stop></linearGradient><linearGradient x1="40.01%" y1="33.781%" x2="59.526%" y2="65.53%" id="aO"><stop stop-color="#FFFF80" offset="0%"></stop><stop stop-color="#BF8000" offset="60%"></stop><stop stop-color="#FFCC4D" offset="100%"></stop></linearGradient><linearGradient x1="41.353%" y1="35.044%" x2="58.152%" y2="64.357%" id="aP"><stop stop-color="#FFFF80" offset="0%"></stop><stop stop-color="#BF8000" offset="60%"></stop><stop stop-color="#FFCC4D" offset="100%"></stop></linearGradient><linearGradient x1="33.379%" y1="36.228%" x2="65.601%" y2="63.1%" id="aQ"><stop stop-color="#FFFF80" offset="0%"></stop><stop stop-color="#BF8000" offset="60%"></stop><stop stop-color="#FFCC4D" offset="100%"></stop></linearGradient><linearGradient x1="35.889%" y1="37.502%" x2="62.982%" y2="61.91%" id="aR"><stop stop-color="#FFFF80" offset="0%"></stop><stop stop-color="#BF8000" offset="60%"></stop><stop stop-color="#FFCC4D" offset="100%"></stop></linearGradient><linearGradient x1="38.14%" y1="38.819%" x2="60.63%" y2="60.519%" id="aS"><stop stop-color="#FFFF80" offset="0%"></stop><stop stop-color="#BF8000" offset="60%"></stop><stop stop-color="#FFCC4D" offset="100%"></stop></linearGradient><linearGradient x1="38.922%" y1="38.916%" x2="60.631%" y2="61.278%" id="aT"><stop stop-color="#FFFF80" offset="0%"></stop><stop stop-color="#BF8000" offset="60%"></stop><stop stop-color="#FFCC4D" offset="100%"></stop></linearGradient><linearGradient x1="37.8%" y1="36.832%" x2="61.938%" y2="63.558%" id="aU"><stop stop-color="#FFFF80" offset="0%"></stop><stop stop-color="#BF8000" offset="60%"></stop><stop stop-color="#FFCC4D" offset="100%"></stop></linearGradient><linearGradient x1="36.559%" y1="34.301%" x2="63.238%" y2="66.106%" id="aV"><stop stop-color="#FFFF80" offset="0%"></stop><stop stop-color="#BF8000" offset="60%"></stop><stop stop-color="#FFCC4D" offset="100%"></stop></linearGradient><linearGradient x1="35.308%" y1="41.843%" x2="64.505%" y2="58.397%" id="aW"><stop stop-color="#FFFF80" offset="0%"></stop><stop stop-color="#BF8000" offset="60%"></stop><stop stop-color="#FFCC4D" offset="100%"></stop></linearGradient><linearGradient x1="34.206%" y1="40.523%" x2="65.697%" y2="59.842%" id="aX"><stop stop-color="#FFFF80" offset="0%"></stop><stop stop-color="#BF8000" offset="60%"></stop><stop stop-color="#FFCC4D" offset="100%"></stop></linearGradient><linearGradient x1="32.98%" y1="39.015%" x2="66.788%" y2="61.374%" id="aY"><stop stop-color="#FFFF80" offset="0%"></stop><stop stop-color="#BF8000" offset="60%"></stop><stop stop-color="#FFCC4D" offset="100%"></stop></linearGradient><linearGradient x1="31.89%" y1="37.368%" x2="67.913%" y2="63.157%" id="aZ"><stop stop-color="#FFFF80" offset="0%"></stop><stop stop-color="#BF8000" offset="60%"></stop><stop stop-color="#FFCC4D" offset="100%"></stop></linearGradient><linearGradient x1="30.863%" y1="35.424%" x2="69.08%" y2="65.153%" id="ba"><stop stop-color="#FFFF80" offset="0%"></stop><stop stop-color="#BF8000" offset="60%"></stop><stop stop-color="#FFCC4D" offset="100%"></stop></linearGradient><linearGradient x1="29.818%" y1="40.579%" x2="70.111%" y2="59.8%" id="bb"><stop stop-color="#FFFF80" offset="0%"></stop><stop stop-color="#BF8000" offset="60%"></stop><stop stop-color="#FFCC4D" offset="100%"></stop></linearGradient><linearGradient x1="28.818%" y1="39.185%" x2="71.138%" y2="61.3%" id="bc"><stop stop-color="#FFFF80" offset="0%"></stop><stop stop-color="#BF8000" offset="60%"></stop><stop stop-color="#FFCC4D" offset="100%"></stop></linearGradient><linearGradient x1="27.831%" y1="37.503%" x2="72.144%" y2="63.046%" id="bd"><stop stop-color="#FFFF80" offset="0%"></stop><stop stop-color="#BF8000" offset="60%"></stop><stop stop-color="#FFCC4D" offset="100%"></stop></linearGradient><linearGradient x1="26.879%" y1="35.497%" x2="73.172%" y2="65.066%" id="be"><stop stop-color="#FFFF80" offset="0%"></stop><stop stop-color="#BF8000" offset="60%"></stop><stop stop-color="#FFCC4D" offset="100%"></stop></linearGradient><linearGradient x1="25.86%" y1="44.481%" x2="74.129%" y2="55.72%" id="bf"><stop stop-color="#FFFF80" offset="0%"></stop><stop stop-color="#BF8000" offset="60%"></stop><stop stop-color="#FFCC4D" offset="100%"></stop></linearGradient><linearGradient x1="24.975%" y1="43.512%" x2="75.166%" y2="56.707%" id="bg"><stop stop-color="#FFFF80" offset="0%"></stop><stop stop-color="#BF8000" offset="60%"></stop><stop stop-color="#FFCC4D" offset="100%"></stop></linearGradient><linearGradient x1="23.974%" y1="42.255%" x2="76.168%" y2="57.984%" id="bh"><stop stop-color="#FFFF80" offset="0%"></stop><stop stop-color="#BF8000" offset="60%"></stop><stop stop-color="#FFCC4D" offset="100%"></stop></linearGradient><linearGradient x1="23.007%" y1="40.683%" x2="77.106%" y2="59.636%" id="bi"><stop stop-color="#FFFF80" offset="0%"></stop><stop stop-color="#BF8000" offset="60%"></stop><stop stop-color="#FFCC4D" offset="100%"></stop></linearGradient><linearGradient x1="21.973%" y1="40.898%" x2="78.033%" y2="59.163%" id="bj"><stop stop-color="#FFFF80" offset="0%"></stop><stop stop-color="#BF8000" offset="60%"></stop><stop stop-color="#FFCC4D" offset="100%"></stop></linearGradient><linearGradient x1="20.999%" y1="41.877%" x2="79.056%" y2="58.205%" id="bk"><stop stop-color="#FFFF80" offset="0%"></stop><stop stop-color="#BF8000" offset="60%"></stop><stop stop-color="#FFCC4D" offset="100%"></stop></linearGradient><linearGradient x1="20.098%" y1="42.599%" x2="80.075%" y2="57.453%" id="bl"><stop stop-color="#FFFF80" offset="0%"></stop><stop stop-color="#BF8000" offset="60%"></stop><stop stop-color="#FFCC4D" offset="100%"></stop></linearGradient><linearGradient x1="19.16%" y1="40.739%" x2="81.049%" y2="59.315%" id="bm"><stop stop-color="#FFFF80" offset="0%"></stop><stop stop-color="#BF8000" offset="60%"></stop><stop stop-color="#FFCC4D" offset="100%"></stop></linearGradient><linearGradient x1="18.117%" y1="30.651%" x2="82.066%" y2="69.495%" id="bn"><stop stop-color="#FFFF80" offset="0%"></stop><stop stop-color="#BF8000" offset="60%"></stop><stop stop-color="#FFCC4D" offset="100%"></stop></linearGradient><linearGradient x1="17.151%" y1="31.893%" x2="83.162%" y2="68.208%" id="bo"><stop stop-color="#FFFF80" offset="0%"></stop><stop stop-color="#BF8000" offset="60%"></stop><stop stop-color="#FFCC4D" offset="100%"></stop></linearGradient><linearGradient x1="16.11%" y1="32.948%" x2="84.25%" y2="67.137%" id="bp"><stop stop-color="#FFFF80" offset="0%"></stop><stop stop-color="#BF8000" offset="60%"></stop><stop stop-color="#FFCC4D" offset="100%"></stop></linearGradient><linearGradient x1="15.074%" y1="33.863%" x2="85.368%" y2="66.168%" id="bq"><stop stop-color="#FFFF80" offset="0%"></stop><stop stop-color="#BF8000" offset="60%"></stop><stop stop-color="#FFCC4D" offset="100%"></stop></linearGradient><linearGradient x1="13.958%" y1="22.687%" x2="86.55%" y2="77.274%" id="br"><stop stop-color="#FFFF80" offset="0%"></stop><stop stop-color="#BF8000" offset="60%"></stop><stop stop-color="#FFCC4D" offset="100%"></stop></linearGradient><linearGradient x1="12.815%" y1="23.954%" x2="87.735%" y2="75.926%" id="bs"><stop stop-color="#FFFF80" offset="0%"></stop><stop stop-color="#BF8000" offset="60%"></stop><stop stop-color="#FFCC4D" offset="100%"></stop></linearGradient><linearGradient x1="11.572%" y1="25.136%" x2="88.989%" y2="74.76%" id="bt"><stop stop-color="#FFFF80" offset="0%"></stop><stop stop-color="#BF8000" offset="60%"></stop><stop stop-color="#FFCC4D" offset="100%"></stop></linearGradient><linearGradient x1="10.276%" y1="26.131%" x2="90.252%" y2="73.659%" id="bu"><stop stop-color="#FFFF80" offset="0%"></stop><stop stop-color="#BF8000" offset="60%"></stop><stop stop-color="#FFCC4D" offset="100%"></stop></linearGradient><linearGradient x1="9.058%" y1="27.076%" x2="91.727%" y2="72.658%" id="bv"><stop stop-color="#FFFF80" offset="0%"></stop><stop stop-color="#BF8000" offset="60%"></stop><stop stop-color="#FFCC4D" offset="100%"></stop></linearGradient><linearGradient x1="7.616%" y1=".309%" x2="93.051%" y2="99.061%" id="bw"><stop stop-color="#FFFF80" offset="0%"></stop><stop stop-color="#BF8000" offset="60%"></stop><stop stop-color="#FFCC4D" offset="100%"></stop></linearGradient><linearGradient x1="6.153%" y1="2.169%" x2="94.607%" y2="97.207%" id="bx"><stop stop-color="#FFFF80" offset="0%"></stop><stop stop-color="#BF8000" offset="60%"></stop><stop stop-color="#FFCC4D" offset="100%"></stop></linearGradient><linearGradient x1="14.659%" y1="14.659%" x2="85.337%" y2="85.337%" id="by"><stop stop-color="#FAFAFA" offset="0%"></stop><stop stop-color="#EBEBEB" offset="100%"></stop></linearGradient><linearGradient x1="-667.853%" y1="-829.042%" x2="6663.55%" y2="8152.205%" id="bz"><stop stop-color="#595959" offset="0%"></stop><stop stop-color="#2B2B2B" offset="100%"></stop></linearGradient><linearGradient x1="-791.64%" y1="-781.564%" x2="858.975%" y2="884.817%" id="bA"><stop stop-color="#595959" offset="0%"></stop><stop stop-color="#2B2B2B" offset="100%"></stop></linearGradient><linearGradient x1="-1513.74%" y1="-818.916%" x2="1059.274%" y2="604.061%" id="bB"><stop stop-color="#595959" offset="0%"></stop><stop stop-color="#2B2B2B" offset="100%"></stop></linearGradient><linearGradient x1="-80.611%" y1="-82.628%" x2="1525.023%" y2="1533.628%" id="bC"><stop stop-color="#595959" offset="0%"></stop><stop stop-color="#2B2B2B" offset="100%"></stop></linearGradient><linearGradient x1="-530.327%" y1="-1098.048%" x2="807.387%" y2="1501.38%" id="bD"><stop stop-color="#595959" offset="0%"></stop><stop stop-color="#2B2B2B" offset="100%"></stop></linearGradient><linearGradient x1="-1750.05%" y1="-1758.15%" x2="15963.95%" y2="15956.85%" id="bE"><stop stop-color="#595959" offset="0%"></stop><stop stop-color="#2B2B2B" offset="100%"></stop></linearGradient><linearGradient x1="-2071.55%" y1="-2084.55%" x2="15643.45%" y2="15630.45%" id="bF"><stop stop-color="#595959" offset="0%"></stop><stop stop-color="#2B2B2B" offset="100%"></stop></linearGradient><linearGradient x1="-710.88%" y1="-584.602%" x2="1237.828%" y2="1055.142%" id="bG"><stop stop-color="#595959" offset="0%"></stop><stop stop-color="#2B2B2B" offset="100%"></stop></linearGradient><linearGradient x1="14.646%" y1="14.646%" x2="85.354%" y2="85.354%" id="bH"><stop stop-color="#737373" offset="0%"></stop><stop stop-color="#6A6A6A" offset="9.2%"></stop><stop stop-color="#525252" offset="24.1%"></stop><stop stop-color="#2A2A2A" offset="42.8%"></stop><stop offset="60%"></stop><stop stop-color="#090909" offset="70%"></stop><stop stop-color="#212121" offset="86.2%"></stop><stop stop-color="#3B3B3B" offset="100%"></stop></linearGradient><linearGradient x1="-520.077%" y1="-613.2%" x2="1215.865%" y2="1434.075%" id="bI"><stop stop-color="#595959" offset="0%"></stop><stop stop-color="#2B2B2B" offset="100%"></stop></linearGradient><linearGradient x1="-1891.2%" y1="-377.267%" x2="548.285%" y2="161.647%" id="bJ"><stop stop-color="#595959" offset="0%"></stop><stop stop-color="#2B2B2B" offset="100%"></stop></linearGradient><linearGradient x1="-6148.157%" y1="-5498.015%" x2="1026.002%" y2="894.262%" id="bK"><stop stop-color="#595959" offset="0%"></stop><stop stop-color="#2B2B2B" offset="100%"></stop></linearGradient><linearGradient x1="12.417%" y1="-70.41%" x2="127.025%" y2="271.701%" id="bL"><stop stop-color="#4A4A4A" offset="0%"></stop><stop stop-color="#1C1C1C" offset="100%"></stop></linearGradient><linearGradient x1="-24.81%" y1="-88.649%" x2="154.012%" y2="242.847%" id="bM"><stop stop-color="#4A4A4A" offset="0%"></stop><stop stop-color="#1C1C1C" offset="100%"></stop></linearGradient><linearGradient x1="-41.238%" y1="-119.066%" x2="137.608%" y2="212.41%" id="bN"><stop stop-color="#4A4A4A" offset="0%"></stop><stop stop-color="#1C1C1C" offset="100%"></stop></linearGradient><linearGradient x1="-116.938%" y1="-151.338%" x2="150.902%" y2="174.04%" id="bO"><stop stop-color="#4A4A4A" offset="0%"></stop><stop stop-color="#1C1C1C" offset="100%"></stop></linearGradient><linearGradient x1="3985.064%" y1="5109.747%" x2="-76.605%" y2="-73.646%" id="bP"><stop stop-color="#595959" offset="0%"></stop><stop stop-color="#2B2B2B" offset="100%"></stop></linearGradient><linearGradient x1="409.961%" y1="473.873%" x2="-978.655%" y2="-1117.672%" id="bQ"><stop stop-color="#595959" offset="0%"></stop><stop stop-color="#2B2B2B" offset="100%"></stop></linearGradient><linearGradient x1="905.348%" y1="699.926%" x2="-1379.866%" y2="-1079.38%" id="bR"><stop stop-color="#595959" offset="0%"></stop><stop stop-color="#2B2B2B" offset="100%"></stop></linearGradient><linearGradient x1="1208.974%" y1="1275.791%" x2="-817.412%" y2="-887.632%" id="bS"><stop stop-color="#595959" offset="0%"></stop><stop stop-color="#2B2B2B" offset="100%"></stop></linearGradient><linearGradient x1="1125.212%" y1="1137.233%" x2="26.545%" y2="27.108%" id="bT"><stop stop-color="#595959" offset="0%"></stop><stop stop-color="#2B2B2B" offset="100%"></stop></linearGradient><linearGradient x1="125.313%" y1="361.457%" x2="-886.45%" y2="-3443.576%" id="bU"><stop stop-color="#595959" offset="0%"></stop><stop stop-color="#2B2B2B" offset="100%"></stop></linearGradient><linearGradient x1="3082.459%" y1="1039.774%" x2="-44.2%" y2="18.81%" id="bV"><stop stop-color="#595959" offset="0%"></stop><stop stop-color="#2B2B2B" offset="100%"></stop></linearGradient><linearGradient x1="85.287%" y1="85.35%" x2="14.787%" y2="14.772%" id="bW"><stop stop-color="#737373" offset="0%"></stop><stop stop-color="#6A6A6A" offset="9.2%"></stop><stop stop-color="#525252" offset="24.1%"></stop><stop stop-color="#2A2A2A" offset="42.8%"></stop><stop offset="60%"></stop><stop stop-color="#090909" offset="70%"></stop><stop stop-color="#212121" offset="86.2%"></stop><stop stop-color="#3B3B3B" offset="100%"></stop></linearGradient><linearGradient x1="244.792%" y1="362.759%" x2="-1072.128%" y2="-1646.475%" id="bX"><stop stop-color="#595959" offset="0%"></stop><stop stop-color="#2B2B2B" offset="100%"></stop></linearGradient><linearGradient x1="967.162%" y1="1127.223%" x2="-374.906%" y2="-436.254%" id="bY"><stop stop-color="#595959" offset="0%"></stop><stop stop-color="#2B2B2B" offset="100%"></stop></linearGradient><linearGradient x1="14.659%" y1="14.659%" x2="85.337%" y2="85.337%" id="bZ"><stop stop-color="#4A4A4A" offset="0%"></stop><stop stop-color="#1C1C1C" offset="100%"></stop></linearGradient><linearGradient x1="-642.801%" y1="-918.091%" x2="511.118%" y2="667%" id="ca"><stop stop-color="#4A4A4A" offset="0%"></stop><stop stop-color="#1C1C1C" offset="100%"></stop></linearGradient><linearGradient x1="-1022.314%" y1="-1229.373%" x2="328.616%" y2="401.684%" id="cb"><stop stop-color="#4A4A4A" offset="0%"></stop><stop stop-color="#1C1C1C" offset="100%"></stop></linearGradient><linearGradient x1="-43.988%" y1="-46.457%" x2="980.16%" y2="1003.472%" id="cc"><stop stop-color="#4A4A4A" offset="0%"></stop><stop stop-color="#1C1C1C" offset="100%"></stop></linearGradient><linearGradient x1="-760.56%" y1="-675.183%" x2="1118.319%" y2="958.95%" id="cd"><stop stop-color="#4A4A4A" offset="0%"></stop><stop stop-color="#1C1C1C" offset="100%"></stop></linearGradient><linearGradient x1="-1122.738%" y1="-1282.799%" x2="563.231%" y2="649.529%" id="ce"><stop stop-color="#4A4A4A" offset="0%"></stop><stop stop-color="#1C1C1C" offset="100%"></stop></linearGradient><linearGradient x1="-506.62%" y1="-597.447%" x2="1201.907%" y2="1417.696%" id="cf"><stop stop-color="#4A4A4A" offset="0%"></stop><stop stop-color="#1C1C1C" offset="100%"></stop></linearGradient><linearGradient x1="-514.196%" y1="-598.48%" x2="1115.198%" y2="1299.823%" id="cg"><stop stop-color="#4A4A4A" offset="0%"></stop><stop stop-color="#1C1C1C" offset="100%"></stop></linearGradient><linearGradient x1="85.368%" y1="85.338%" x2="14.626%" y2="14.65%" id="ch"><stop stop-color="#595959" offset="0%"></stop><stop stop-color="#505050" offset="11.1%"></stop><stop stop-color="#383838" offset="29.1%"></stop><stop stop-color="#101010" offset="51.7%"></stop><stop offset="60%"></stop><stop stop-color="#090909" offset="70%"></stop><stop stop-color="#212121" offset="86.2%"></stop><stop stop-color="#3B3B3B" offset="100%"></stop></linearGradient><linearGradient x1="85.363%" y1="85.338%" x2="14.684%" y2="14.65%" id="ci"><stop stop-color="#595959" offset="0%"></stop><stop stop-color="#505050" offset="11.1%"></stop><stop stop-color="#383838" offset="29.1%"></stop><stop stop-color="#101010" offset="51.7%"></stop><stop offset="60%"></stop><stop stop-color="#090909" offset="70%"></stop><stop stop-color="#212121" offset="86.2%"></stop><stop stop-color="#3B3B3B" offset="100%"></stop></linearGradient></defs><g fill-rule="nonzero" fill="none"><path d="M149.545 74.085l-6.628-5.027 5.654-6.1a1.15 1.15 0 00-.318-1.804l-7.399-3.8 4.508-6.99a1.149 1.149 0 00-.626-1.72l-7.947-2.457 3.227-7.667a1.149 1.149 0 00-.916-1.586l-8.252-1.039 1.846-8.11a1.148 1.148 0 00-1.178-1.403l-8.307.41.409-8.308a1.148 1.148 0 00-1.402-1.177l-8.111 1.846-1.04-8.253a1.15 1.15 0 00-1.586-.916l-7.666 3.226-2.457-7.946a1.148 1.148 0 00-1.72-.626l-6.99 4.508-3.8-7.4a1.148 1.148 0 00-1.803-.317l-6.101 5.654L75.916.455a1.148 1.148 0 00-1.831 0l-5.027 6.628-6.1-5.654a1.148 1.148 0 00-1.804.318l-3.8 7.4-6.99-4.51a1.149 1.149 0 00-1.72.627l-2.457 7.946-7.666-3.226a1.148 1.148 0 00-1.586.916l-1.04 8.253-8.11-1.846a1.148 1.148 0 00-1.403 1.177l.41 8.307-8.308-.41a1.148 1.148 0 00-1.177 1.403l1.846 8.111-8.253 1.04a1.148 1.148 0 00-.915 1.585l3.226 7.667-7.947 2.457a1.148 1.148 0 00-.626 1.72l4.508 6.99-7.4 3.8a1.148 1.148 0 00-.317 1.803l5.654 6.1-6.628 5.028a1.148 1.148 0 000 1.83l6.628 5.027-5.654 6.1a1.15 1.15 0 00.318 1.804l7.4 3.8-4.509 6.99c-.414.64-.1 1.495.626 1.72l7.947 2.457-3.226 7.667c-.295.701.16 1.49.915 1.586l8.253 1.039-1.846 8.11a1.148 1.148 0 001.177 1.403l8.308-.41-.41 8.308c-.038.761.66 1.346 1.403 1.177l8.11-1.846 1.04 8.253c.095.756.883 1.211 1.586.916l7.666-3.227 2.457 7.947a1.149 1.149 0 001.72.626l6.99-4.508 3.8 7.4a1.148 1.148 0 001.804.317l6.1-5.654 5.027 6.628c.46.607 1.37.607 1.83 0l5.027-6.628 6.1 5.654c.559.518 1.456.36 1.804-.318l3.8-7.4 6.99 4.51c.64.412 1.495.1 1.72-.627l2.457-7.947 7.666 3.227a1.15 1.15 0 001.586-.916l1.04-8.253 8.11 1.846a1.148 1.148 0 001.403-1.177l-.409-8.307 8.307.409c.761.037 1.346-.66 1.178-1.402l-1.846-8.111 8.252-1.04a1.15 1.15 0 00.916-1.585l-3.227-7.667 7.947-2.457a1.148 1.148 0 00.626-1.72l-4.508-6.99 7.4-3.8a1.15 1.15 0 00.317-1.803l-5.654-6.1 6.628-5.028a1.148 1.148 0 000-1.83" fill="url(#a)"></path><path d="M141.616 92.18l7.254-3.725-5.544-5.98a1.348 1.348 0 01.177-2.026L150 75.522l-6.497-4.928a1.348 1.348 0 01-.177-2.025l5.544-5.98-7.254-3.725a1.349 1.349 0 01-.526-1.965l4.418-6.85-7.79-2.409a1.348 1.348 0 01-.86-1.844l3.163-7.514-8.087-1.018a1.35 1.35 0 01-1.167-1.666l1.81-7.95-8.144.401a1.349 1.349 0 01-1.438-1.437l.4-8.145-7.95 1.81a1.348 1.348 0 01-1.666-1.166l-1.018-8.087-7.515 3.161a1.348 1.348 0 01-1.843-.86l-2.408-7.789-6.85 4.42c-.7.451-1.585.214-1.965-.527l-3.725-7.254-5.98 5.54a1.348 1.348 0 01-2.026-.177l-4.927-6.496-4.927 6.496a1.348 1.348 0 01-2.026.177l-5.98-5.54-3.725 7.254a1.348 1.348 0 01-1.965.527l-6.85-4.42-2.409 7.79a1.348 1.348 0 01-1.843.86l-7.515-3.162-1.018 8.087a1.349 1.349 0 01-1.666 1.167l-7.95-1.811.401 8.145a1.348 1.348 0 01-1.437 1.437l-8.145-.401 1.81 7.95a1.348 1.348 0 01-1.166 1.666l-8.087 1.018 3.161 7.514a1.349 1.349 0 01-.86 1.844l-7.789 2.408 4.42 6.851c.45.7.214 1.584-.527 1.965l-7.254 3.725 5.54 5.98a1.349 1.349 0 01-.177 2.026l-6.496 4.928 6.496 4.927c.663.503.743 1.415.177 2.025l-5.54 5.98 7.254 3.725c.741.38.978 1.265.526 1.965l-4.42 6.85 7.79 2.41a1.348 1.348 0 01.859 1.843l-3.162 7.513 8.088 1.018a1.349 1.349 0 011.166 1.667l-1.81 7.95 8.145-.4a1.348 1.348 0 011.437 1.438l-.401 8.143 7.95-1.81a1.35 1.35 0 011.666 1.167l1.018 8.087 7.515-3.162a1.348 1.348 0 011.843.859l2.408 7.79 6.85-4.419a1.35 1.35 0 011.966.527l3.724 7.254 5.98-5.544a1.348 1.348 0 012.026.177L75.52 150l4.927-6.497a1.348 1.348 0 012.026-.177l5.98 5.544 3.725-7.254a1.348 1.348 0 011.965-.527l6.85 4.419 2.409-7.79a1.348 1.348 0 011.843-.86l7.514 3.163 1.018-8.087a1.35 1.35 0 011.667-1.167l7.95 1.81-.4-8.143a1.349 1.349 0 011.438-1.438l8.143.4-1.81-7.95a1.35 1.35 0 011.167-1.667l8.088-1.018-3.163-7.514a1.348 1.348 0 01.859-1.843l7.79-2.408-4.418-6.851a1.35 1.35 0 01.527-1.965" fill="url(#b)"></path><path d="M134.59 73.108a.762.762 0 00-1.051.041.695.695 0 00.025 1.01s2.918 2.876 3.695 3.72a.728.728 0 001.05.042.794.794 0 00.028-1.093s-2.93-2.974-3.746-3.72" fill="url(#c)"></path><path d="M133.623 76.25c-.295-.277-.783-.276-1.092-.009a.641.641 0 00-.027.976s2.878 2.916 3.638 3.768a.793.793 0 001.087.09.731.731 0 00.086-1.053c0-.001-2.887-3.012-3.692-3.771" fill="url(#d)"></path><path d="M133.704 78.353c-.29-.282-.798-.303-1.135-.059-.335.245-.372.662-.082.944 0 0 2.83 2.952 3.573 3.811.27.314.773.38 1.124.137.353-.243.421-.704.15-1.017 0 0-2.835-3.045-3.631-3.816" fill="url(#e)"></path><path d="M133.795 81.546c-.287-.343-.815-.392-1.181-.125a.744.744 0 00-.145 1.095s2.776 3.58 3.5 4.62a.836.836 0 001.166.215.852.852 0 00.218-1.177s-2.776-3.69-3.558-4.628" fill="url(#f)"></path><path d="M133.573 84.694a.67.67 0 00-.984-.177.798.798 0 00-.168 1.059s2.17 3.615 2.733 4.66c.204.382.636.506.967.266.332-.24.437-.755.233-1.136 0 0-2.167-3.722-2.782-4.672" fill="url(#g)"></path><path d="M132.619 86.803a.74.74 0 00-1.026-.227.74.74 0 00-.227 1.022s2.114 3.646 2.657 4.698c.197.383.645.528 1.005.312.36-.216.495-.712.298-1.095 0 0-2.105-3.751-2.707-4.71" fill="url(#h)"></path><path d="M131.675 89.953c-.215-.354-.696-.472-1.073-.274-.376.196-.504.634-.29.988 0 0 2.049 3.673 2.569 4.728a.78.78 0 001.046.357.797.797 0 00.37-1.055s-2.033-3.775-2.622-4.744" fill="url(#i)"></path><path d="M131.786 93.104c-.208-.357-.713-.495-1.124-.32-.41.175-.57.597-.362.954 0 0 1.974 3.698 2.468 4.756.18.387.666.571 1.091.4.427-.17.63-.63.45-1.017 0 0-1.952-3.794-2.523-4.773" fill="url(#j)"></path><path d="M130.445 96.256a.663.663 0 00-.887-.364c-.336.154-.483.562-.332.922 0 0 1.417 3.72 1.764 4.78.127.387.508.59.856.44.349-.148.532-.591.405-.979 0 0-1.392-3.813-1.806-4.799" fill="url(#k)"></path><path d="M129.512 98.368a.74.74 0 00-.935-.408.67.67 0 00-.402.89s1.34 3.738 1.662 4.8a.706.706 0 00.899.48.768.768 0 00.482-.942s-1.308-3.828-1.706-4.821" fill="url(#l)"></path><path d="M127.555 101.52c-.137-.365-.582-.56-.99-.446-.406.113-.62.493-.482.858 0 0 1.249 3.75 1.54 4.816.107.389.528.625.948.518.42-.107.678-.517.572-.906 0 0-1.212-3.84-1.588-4.837" fill="url(#m)"></path><path d="M126.663 103.633c-.129-.367-.604-.58-1.054-.486-.45.094-.704.46-.576.827 0 0 1.14 3.764 1.395 4.83.094.388.54.641 1.004.554.464-.088.77-.482.676-.87 0-.001-1.096-3.852-1.445-4.855" fill="url(#n)"></path><path d="M125.187 106.789c-.078-.37-.418-.6-.753-.525-.334.075-.537.428-.459.796.117.562.67 3.774.812 4.84.052.389.368.657.713.59.345-.068.587-.446.534-.836 0 0-.635-3.858-.847-4.865" fill="url(#o)"></path><path d="M123.251 108.999c-.07-.433-.436-.722-.814-.656-.377.066-.62.461-.55.894.105.66.56 4.41.665 5.655.033.448.373.78.766.728.388-.056.676-.48.637-.934 0 0-.52-4.509-.704-5.687" fill="url(#p)"></path><path d="M121.352 111.12a.818.818 0 00-.888-.7.748.748 0 00-.665.86c.09.666.42 4.419.477 5.66.012.444.38.793.832.767.444-.03.787-.438.766-.892 0 0-.37-4.515-.52-5.695" fill="url(#q)"></path><path d="M120.554 113.241c-.044-.437-.49-.763-.987-.74-.497.023-.857.387-.813.823.071.673.24 4.429.228 5.661-.012.444.393.81.915.807.523-.002.935-.396.936-.849 0 0-.17-4.513-.28-5.702" fill="url(#r)"></path><path d="M117.707 114.583c-.54.003-.954.35-.934.789.04.677-.007 4.435-.104 5.657-.039.443.38.826.946.845.577.028 1.044-.352 1.075-.803 0 0 .096-4.51.045-5.705-.021-.438-.485-.784-1.028-.783" fill="url(#s)"></path><path d="M114.784 116.668c-.465-.02-.838.313-.844.752 0 .68-.238 4.44-.392 5.651-.057.442.282.841.77.883.492.05.922-.304.967-.757 0 0 .326-4.504.34-5.707.005-.44-.377-.803-.843-.822" fill="url(#t)"></path><path d="M112.844 118.754c-.404-.041-.744.276-.769.716-.03.683-.41 4.443-.606 5.642-.07.44.208.856.63.92.426.07.823-.254.882-.711 0 0 .496-4.496.56-5.703.023-.44-.292-.823-.697-.864" fill="url(#u)"></path><path d="M110.872 120.841c-.357-.061-.671.24-.71.68-.058.68-.543 4.445-.771 5.63-.08.44.149.872.52.958.374.09.745-.205.814-.664 0 0 .626-4.484.73-5.699.038-.44-.226-.842-.583-.905" fill="url(#v)"></path><path d="M108.629 122.93c-.476-.073-.916.17-.994.55 0 0-.98 3.8-1.353 4.813-.131.374.154.76.65.853.495.094 1.017-.134 1.135-.528 0 0 1.095-3.831 1.297-4.878.077-.38-.257-.74-.735-.81" fill="url(#w)"></path><path d="M105.612 123.978c-.43-.09-.842.139-.935.518 0 0-1.115 3.79-1.51 4.797-.143.373.094.772.539.885.443.111.935-.091 1.064-.485 0 0 1.22-3.82 1.463-4.87.091-.38-.191-.755-.621-.846" fill="url(#x)"></path><path d="M103.618 126.07a.707.707 0 00-.885.483s-1.225 3.777-1.641 4.778c-.15.372.046.785.447.919.4.13.862-.054 1.003-.441 0 0 1.323-3.804 1.6-4.857.104-.379-.135-.771-.524-.882" fill="url(#y)"></path><path d="M100.568 127.123c-.355-.131-.722.075-.841.443 0 0-1.318 3.764-1.75 4.76a.723.723 0 00.368.951.723.723 0 00.95-.396s1.408-3.786 1.714-4.84a.751.751 0 00-.441-.918" fill="url(#z)"></path><path d="M98.548 128.178c-.324-.154-.673.042-.804.403 0 0-1.394 3.75-1.841 4.737-.162.366-.032.808.3.984.333.176.742.022.903-.349 0 0 1.48-3.765 1.812-4.82.123-.38-.046-.804-.37-.955" fill="url(#A)"></path><path d="M95.36 129.234a.798.798 0 00-1.027.362s-1.948 3.73-2.56 4.71c-.223.363-.085.821.32 1.02.406.198.925.061 1.146-.302 0 0 2.057-3.742 2.529-4.797.175-.38-.013-.821-.409-.993" fill="url(#B)"></path><path d="M93.338 130.293c-.364-.195-.794-.037-.985.318 0 0-2.024 3.71-2.65 4.68a.751.751 0 00.25 1.054.814.814 0 001.094-.253s2.128-3.714 2.626-4.768a.787.787 0 00-.335-1.031" fill="url(#C)"></path><path d="M90.267 131.354c-.334-.216-.749-.08-.947.273 0 0-2.09 3.687-2.729 4.645-.232.356-.154.846.187 1.09a.733.733 0 001.046-.203s2.19-3.682 2.71-4.735c.192-.377.068-.854-.267-1.07" fill="url(#D)"></path><path d="M87.19 131.376c-.308-.24-.709-.124-.912.227 0 0-2.149 3.658-2.798 4.605-.236.352-.183.856.13 1.126.312.27.767.203 1.003-.149 0 0 2.243-3.648 2.784-4.697.198-.377.101-.872-.207-1.112" fill="url(#E)"></path><path d="M85.08 132.418a.89.89 0 00-1.099.148s-2.749 3.023-3.572 3.8c-.299.288-.262.723.097.969.36.248.905.212 1.204-.077 0 0 2.862-3.01 3.56-3.88.257-.312.166-.74-.19-.96" fill="url(#F)"></path><path d="M82.001 132.442a.811.811 0 00-1.061.107s-2.806 2.993-3.638 3.755a.647.647 0 00.038 1.001c.33.269.854.26 1.157-.03 0 0 2.912-2.972 3.631-3.837a.678.678 0 00-.127-.996" fill="url(#G)"></path><path d="M78.916 133.51c-.302-.269-.754-.218-1.026.064 0 0-2.855 2.96-3.695 3.704a.699.699 0 00-.015 1.035c.303.29.806.313 1.113.019 0 0 2.955-2.933 3.692-3.79a.73.73 0 00-.069-1.033" fill="url(#H)"></path><path d="M75.841 134.612a.793.793 0 00-.015-1.071c-.279-.291-.717-.268-.993.02 0 0-2.9 2.92-3.745 3.646a.758.758 0 00-.066 1.068c.278.313.762.368 1.073.07 0 0 2.993-2.887 3.746-3.733" fill="url(#I)"></path><path d="M72.732 132.534c-.255-.315-.681-.322-.961-.029 0 0-2.937 2.876-3.788 3.583a.824.824 0 00-.114 1.104c.254.343.72.42 1.034.128 0 0 3.027-2.838 3.795-3.674.28-.3.29-.797.034-1.112" fill="url(#J)"></path><path d="M69.636 132.574c-.234-.342-.646-.378-.93-.083 0 0-2.973 2.825-3.83 3.512-.313.258-.39.77-.158 1.142.231.374.681.476.998.192 0 0 3.058-2.783 3.84-3.608.282-.295.314-.812.08-1.155" fill="url(#K)"></path><path d="M67.55 132.553c-.255-.297-.733-.348-1.079-.116 0 0-3.604 2.215-4.638 2.747-.378.2-.492.624-.24.947.25.325.77.432 1.153.21 0 0 3.704-2.175 4.654-2.826.346-.233.408-.663.15-.962" fill="url(#L)"></path><path d="M64.452 132.594c-.232-.323-.695-.399-1.045-.17 0 0-3.638 2.163-4.674 2.675-.38.193-.516.633-.29.984a.853.853 0 001.113.272s3.733-2.118 4.694-2.758a.7.7 0 00.202-1.003" fill="url(#M)"></path><path d="M61.352 131.6a.715.715 0 00-1.012-.231s-3.668 2.101-4.707 2.592a.742.742 0 00-.336 1.023c.203.38.683.552 1.072.343 0 0 3.759-2.052 4.731-2.68a.778.778 0 00.252-1.048" fill="url(#N)"></path><path d="M58.247 130.612c-.188-.385-.621-.517-.978-.298 0 0-3.694 2.031-4.736 2.497-.384.177-.558.652-.379 1.066.18.41.639.623 1.03.42 0 0 3.781-1.974 4.766-2.589.358-.219.485-.71.297-1.096" fill="url(#O)"></path><path d="M56.182 129.632c-.167-.421-.587-.583-.946-.375 0 0-3.717 1.95-4.761 2.389-.384.167-.577.664-.42 1.114.158.448.6.698.991.51 0 0 3.8-1.887 4.793-2.486.361-.214.51-.73.343-1.152" fill="url(#P)"></path><path d="M52.687 129.438a.699.699 0 00.385-.91c-.145-.347-.553-.492-.913-.347 0 0-3.736 1.392-4.783 1.697-.385.117-.595.507-.46.877a.773.773 0 00.952.459s3.816-1.339 4.819-1.776" fill="url(#Q)"></path><path d="M49.534 128.515c.367-.149.553-.581.426-.963a.67.67 0 00-.88-.425s-3.753 1.31-4.801 1.586a.739.739 0 00-.5.923c.115.406.527.656.914.547 0 0 3.83-1.247 4.841-1.668" fill="url(#R)"></path><path d="M47.421 127.611c.37-.14.574-.6.468-1.022-.106-.425-.49-.632-.85-.515 0 0-3.767 1.21-4.816 1.454-.386.094-.63.527-.536.975.093.448.49.74.876.646 0 0 3.839-1.136 4.858-1.538" fill="url(#S)"></path><path d="M44.266 125.696c.372-.133.595-.623.506-1.092-.087-.469-.455-.73-.816-.621 0 0-3.779 1.087-4.83 1.292-.386.079-.646.539-.572 1.035.073.497.453.841.84.762 0 0 3.845-.998 4.872-1.376" fill="url(#T)"></path><path d="M43.101 124.21c.437-.08.716-.433.635-.782-.083-.347-.49-.564-.914-.5 0 0-4.418.623-5.646.729-.45.04-.773.368-.71.738.063.37.488.642.938.6.688-.06 4.491-.553 5.697-.785" fill="url(#U)"></path><path d="M39.939 122.295c.44-.07.738-.453.679-.85-.065-.39-.45-.659-.877-.605 0 0-4.424.495-5.655.563-.451.026-.79.38-.75.796.041.417.447.742.898.716.683-.031 4.498-.42 5.705-.62" fill="url(#V)"></path><path d="M37.817 121.47c.441-.059.76-.481.722-.936-.045-.446-.407-.783-.838-.738 0 0-4.428.329-5.662.347-.45.007-.808.392-.788.87.018.48.406.869.856.862.683-.002 4.503-.25 5.71-.406" fill="url(#W)"></path><path d="M35.695 119.66c.443-.041.78-.51.763-1.039-.025-.518-.362-.942-.799-.911 0 0-4.429.11-5.665.062-.45-.019-.825.405-.827.96-.004.557.365 1.03.815 1.048.683.038 4.509-.021 5.713-.12" fill="url(#X)"></path><path d="M33.57 116.666c.445-.014.8-.43.805-.923.003-.49-.322-.898-.758-.895 0 0-4.428-.152-5.667-.261-.449-.043-.84.33-.865.845-.026.514.325.977.774 1.02.684.07 4.511.229 5.711.214" fill="url(#Y)"></path><path d="M31.444 114.583a.824.824 0 00.845-.759.746.746 0 00-.717-.814s-4.427-.35-5.664-.503a.79.79 0 00-.903.69.85.85 0 00.732.919c.686.09 4.511.415 5.707.467" fill="url(#Z)"></path><path d="M29.315 112.498c.443.03.836-.257.886-.633.058-.381-.242-.713-.678-.75 0 0-4.423-.496-5.655-.686-.447-.071-.872.18-.941.569-.07.39.241.77.69.841.687.107 4.504.56 5.698.659" fill="url(#aa)"></path><path d="M27.319 110.41c.375.049.727-.193.795-.532.067-.338-.175-.646-.55-.695 0 0-3.785-.614-4.836-.832-.382-.08-.76.127-.838.472-.08.347.17.698.553.78.59.12 3.852.674 4.876.808" fill="url(#ab)"></path><path d="M25.194 108.318c.374.089.742-.218.83-.674.086-.456-.142-.888-.516-.977 0 0-3.778-1.063-4.823-1.424-.38-.133-.773.126-.87.59-.1.465.134.958.515 1.09 0 .001 3.84 1.152 4.864 1.395" fill="url(#ac)"></path><path d="M24.108 105.186c.374.102.758-.158.865-.57.106-.41-.107-.818-.48-.92 0 0-3.768-1.181-4.808-1.569-.378-.142-.785.073-.903.492-.118.418.098.88.476 1.024 0 0 3.824 1.265 4.848 1.543" fill="url(#ad)"></path><path d="M23.02 103.096a.74.74 0 00.9-.482.673.673 0 00-.444-.871s-3.757-1.28-4.788-1.69a.706.706 0 00-.935.408.771.771 0 00.435.968s3.809 1.36 4.832 1.668" fill="url(#ae)"></path><path d="M21.93 99.963c.374.121.79-.064.936-.405.146-.34-.034-.707-.407-.829 0 0-3.742-1.362-4.766-1.79-.374-.158-.81-.013-.968.333-.16.346.019.761.394.918 0 0 3.79 1.44 4.81 1.773" fill="url(#af)"></path><path d="M19.795 97.856c.372.172.805-.035.973-.45.166-.416.004-.883-.369-1.055 0 0-3.723-1.91-4.74-2.504-.37-.216-.821-.061-1 .36-.182.422-.023.949.348 1.166 0 0 3.768 2.009 4.788 2.483" fill="url(#ag)"></path><path d="M19.74 94.719c.372.182.822.01 1.011-.371a.744.744 0 00-.329-1.01s-3.701-1.99-4.71-2.602a.727.727 0 00-1.035.285.857.857 0 00.303 1.112s3.746 2.087 4.76 2.586" fill="url(#ah)"></path><path d="M18.64 91.582a.81.81 0 001.05-.3.678.678 0 00-.286-.97s-3.677-2.06-4.676-2.687c-.365-.229-.845-.137-1.07.218a.775.775 0 00.254 1.065s3.719 2.153 4.729 2.674" fill="url(#ai)"></path><path d="M17.537 88.444c.369.196.854.086 1.089-.237.234-.322.127-.734-.24-.931 0 0-3.651-2.123-4.64-2.762-.36-.233-.857-.168-1.105.158-.25.324-.158.787.203 1.02 0 0 3.688 2.212 4.693 2.752" fill="url(#aj)"></path><path d="M17.47 86.347c.369.203.872.119 1.131-.179.258-.296.173-.693-.193-.896 0 0-3.62-2.177-4.596-2.827-.356-.237-.869-.196-1.143.103s-.208.743.15.98c0 0 3.654 2.26 4.652 2.82" fill="url(#ak)"></path><path d="M16.583 83.178c.304.26.74.184.978-.158.236-.342.184-.82-.12-1.082 0 0-2.988-2.777-3.79-3.603-.292-.302-.733-.277-.983.066-.251.344-.216.877.077 1.178 0 0 3.011 2.882 3.838 3.597" fill="url(#al)"></path><path d="M16.52 80.035c.3.267.754.218 1.013-.097a.756.756 0 00-.074-1.045s-2.956-2.83-3.744-3.665c-.288-.305-.744-.306-1.017.01a.868.868 0 00.026 1.135s2.974 2.93 3.796 3.662" fill="url(#am)"></path><path d="M16.452 76.892a.761.761 0 001.051-.042.694.694 0 00-.025-1.009s-2.919-2.876-3.694-3.72a.728.728 0 00-1.052-.042.794.794 0 00-.027 1.093s2.93 2.974 3.745 3.72" fill="url(#an)"></path><path d="M16.377 74.79c.294.278.782.278 1.092.01a.64.64 0 00.026-.975s-2.877-2.916-3.637-3.768a.792.792 0 00-1.086-.09.73.73 0 00-.087 1.054s2.887 3.01 3.692 3.77" fill="url(#ao)"></path><path d="M16.296 71.648c.29.282.798.302 1.134.057.336-.244.372-.661.083-.943 0 0-2.83-2.952-3.573-3.811a.866.866 0 00-1.125-.137c-.352.243-.42.704-.15 1.017 0 .001 2.836 3.046 3.632 3.817" fill="url(#ap)"></path><path d="M16.206 68.454c.286.343.814.393 1.181.125a.745.745 0 00.144-1.095s-2.775-3.58-3.5-4.62a.837.837 0 00-1.166-.216.852.852 0 00-.217 1.178s2.776 3.69 3.558 4.628" fill="url(#aq)"></path><path d="M16.428 65.306a.67.67 0 00.983.176.797.797 0 00.168-1.058s-2.17-3.615-2.733-4.66c-.204-.382-.636-.507-.967-.266-.332.24-.438.754-.233 1.136 0 0 2.166 3.722 2.782 4.672" fill="url(#ar)"></path><path d="M17.38 63.197a.74.74 0 001.028.227.739.739 0 00.226-1.022s-2.115-3.646-2.657-4.697c-.197-.384-.645-.529-1.005-.313-.36.216-.495.712-.298 1.095 0 0 2.105 3.75 2.707 4.71" fill="url(#as)"></path><path d="M18.325 60.047c.215.355.696.471 1.073.275.376-.197.504-.635.29-.99 0 0-2.05-3.672-2.569-4.727a.78.78 0 00-1.047-.357.796.796 0 00-.37 1.055c.001 0 2.035 3.774 2.623 4.744" fill="url(#at)"></path><path d="M19.255 56.895c.209.358.714.496 1.124.321.41-.175.572-.597.363-.955 0 0-1.975-3.697-2.468-4.755-.18-.387-.667-.571-1.092-.4-.426.17-.63.63-.45 1.016 0 .001 1.951 3.796 2.523 4.773" fill="url(#au)"></path><path d="M19.555 53.743c.151.36.55.519.887.365.335-.154.483-.562.332-.922 0 0-1.416-3.72-1.764-4.78-.127-.387-.508-.59-.856-.44-.35.148-.532.591-.405.979 0 0 1.391 3.812 1.806 4.798" fill="url(#av)"></path><path d="M20.488 51.632a.74.74 0 00.935.408.67.67 0 00.402-.89s-1.216-3.324-1.662-4.8a.705.705 0 00-.898-.48.769.769 0 00-.483.942s1.309 3.828 1.706 4.821" fill="url(#aw)"></path><path d="M22.444 48.48c.138.364.584.56.99.446.408-.113.62-.493.482-.858 0 0-1.248-3.75-1.54-4.817-.106-.388-.528-.624-.947-.517-.42.107-.679.517-.571.906 0 0 1.211 3.84 1.586 4.838" fill="url(#ax)"></path><path d="M23.336 46.366c.13.368.604.58 1.055.487.45-.094.705-.46.575-.828 0 0-1.138-3.763-1.395-4.829-.092-.389-.538-.642-1.002-.553-.465.087-.771.48-.677.87 0 0 1.096 3.85 1.445 4.853" fill="url(#ay)"></path><path d="M24.812 43.211c.08.37.418.6.754.525.334-.075.537-.428.459-.796-.117-.562-.67-3.774-.812-4.84-.051-.388-.368-.657-.713-.59-.345.068-.587.446-.535.835 0 0 .636 3.86.847 4.866" fill="url(#az)"></path><path d="M26.749 41.002c.07.432.437.72.814.655.376-.066.62-.462.55-.894-.104-.66-.56-4.41-.665-5.655-.033-.448-.373-.779-.766-.728-.388.057-.676.48-.637.934 0 0 .518 4.508.704 5.688" fill="url(#aA)"></path><path d="M28.648 38.88c.06.436.46.743.888.7a.746.746 0 00.665-.859c-.09-.666-.42-4.42-.477-5.66a.784.784 0 00-.832-.768c-.444.031-.788.438-.766.892 0 0 .37 4.515.52 5.696" fill="url(#aB)"></path><path d="M30.488 36.758c.043.437.489.763.987.74.496-.022.856-.386.813-.823-.072-.672-.24-4.428-.228-5.66.011-.444-.394-.81-.915-.807-.523.002-.934.395-.937.848 0 0 .172 4.518.28 5.702" fill="url(#aC)"></path><path d="M33.334 35.417c.542-.002.955-.35.935-.788-.04-.677.007-4.435.103-5.658.04-.442-.379-.825-.946-.845-.576-.027-1.043.352-1.074.803 0 0-.097 4.51-.045 5.705.02.439.485.784 1.027.783" fill="url(#aD)"></path><path d="M35.217 33.333c.465.019.837-.314.844-.753 0-.68.237-4.44.39-5.652.059-.441-.282-.84-.768-.882-.493-.05-.923.303-.968.758 0 0-.326 4.503-.34 5.706-.004.439.377.803.844.823" fill="url(#aE)"></path><path d="M37.157 31.246c.403.041.744-.275.768-.716.03-.683.41-4.443.606-5.642.07-.44-.207-.856-.63-.92-.426-.071-.823.253-.882.71 0 0-.495 4.496-.56 5.704-.023.441.293.823.698.864" fill="url(#aF)"></path><path d="M39.128 29.159c.357.062.671-.24.71-.68.058-.68.543-4.445.771-5.63.08-.44-.149-.871-.52-.957-.374-.092-.745.204-.814.663 0 0-.627 4.484-.73 5.699-.038.44.226.841.583.905" fill="url(#aG)"></path><path d="M41.37 27.07c.478.073.917-.171.995-.55 0 0 .98-3.8 1.353-4.812.131-.375-.153-.76-.648-.854-.496-.094-1.018.134-1.137.528 0 0-1.096 3.83-1.297 4.878-.078.38.257.739.734.81" fill="url(#aH)"></path><path d="M44.388 26.022c.429.09.842-.139.934-.518 0 0 1.116-3.79 1.512-4.796.141-.373-.095-.773-.54-.886-.443-.11-.935.091-1.064.485 0 0-1.22 3.82-1.463 4.87-.092.38.191.755.62.846" fill="url(#aI)"></path><path d="M46.382 23.93a.707.707 0 00.885-.482s1.225-3.777 1.641-4.78c.15-.37-.046-.784-.447-.918-.4-.131-.862.054-1.004.441 0 0-1.322 3.804-1.6 4.857-.103.38.136.771.525.881" fill="url(#aJ)"></path><path d="M49.432 22.877c.354.132.722-.075.842-.444 0 0 1.317-3.763 1.75-4.759a.723.723 0 00-.37-.951.723.723 0 00-.949.396s-1.408 3.786-1.714 4.84a.751.751 0 00.44.918" fill="url(#aK)"></path><path d="M51.452 21.822c.324.154.673-.041.804-.403 0 0 1.394-3.75 1.841-4.736.162-.367.032-.81-.3-.985-.333-.176-.742-.022-.902.349 0 0-1.482 3.765-1.813 4.82-.124.38.047.805.37.955" fill="url(#aL)"></path><path d="M54.641 20.766a.797.797 0 001.026-.362s1.948-3.73 2.56-4.71c.223-.363.085-.821-.32-1.019-.406-.2-.924-.062-1.146.301 0 0-2.058 3.742-2.529 4.797-.175.38.014.82.41.993" fill="url(#aM)"></path><path d="M56.662 19.707c.363.195.794.037.985-.318 0 0 2.023-3.71 2.65-4.68a.752.752 0 00-.25-1.054.814.814 0 00-1.093.253s-2.13 3.714-2.627 4.768a.788.788 0 00.335 1.031" fill="url(#aN)"></path><path d="M59.732 18.646c.334.216.75.08.947-.273 0 0 2.09-3.686 2.73-4.645.232-.356.154-.846-.187-1.09a.734.734 0 00-1.047.203s-2.19 3.682-2.71 4.735c-.191.377-.067.855.267 1.07" fill="url(#aO)"></path><path d="M62.81 18.624c.308.24.709.124.912-.227 0 0 2.148-3.658 2.798-4.605.236-.351.183-.856-.13-1.126-.312-.27-.766-.203-1.003.149 0 0-2.242 3.649-2.783 4.697-.2.377-.102.873.206 1.112" fill="url(#aP)"></path><path d="M64.92 17.582c.354.22.838.14 1.098-.15 0 0 2.75-3.021 3.573-3.798.3-.288.262-.723-.098-.969-.36-.248-.904-.212-1.204.076 0 0-2.86 3.01-3.559 3.88-.257.312-.166.74.19.96" fill="url(#aQ)"></path><path d="M67.999 17.558a.811.811 0 001.061-.107s2.806-2.993 3.638-3.755a.647.647 0 00-.039-1.001c-.33-.268-.853-.26-1.156.03 0 0-2.912 2.972-3.63 3.836a.677.677 0 00.126.997" fill="url(#aR)"></path><path d="M71.084 17.531c.302.27.755.219 1.026-.063 0 0 2.856-2.96 3.695-3.705a.7.7 0 00.016-1.034c-.303-.29-.807-.313-1.113-.02 0 0-2.956 2.934-3.693 3.791a.73.73 0 00.07 1.033" fill="url(#aS)"></path><path d="M74.158 16.43a.794.794 0 00.016 1.07c.278.292.717.269.993-.019 0 0 2.9-2.92 3.745-3.647a.757.757 0 00.066-1.067c-.278-.313-.763-.369-1.073-.07 0 0-2.993 2.885-3.747 3.733" fill="url(#aT)"></path><path d="M77.267 17.466c.256.315.682.322.961.029 0 0 2.938-2.876 3.79-3.583a.825.825 0 00.113-1.104c-.254-.343-.72-.42-1.034-.129 0 0-3.028 2.838-3.795 3.675a.87.87 0 00-.035 1.112" fill="url(#aU)"></path><path d="M80.365 17.426c.234.342.646.378.93.083 0 0 2.973-2.825 3.829-3.512.313-.258.39-.77.158-1.143-.231-.373-.681-.475-.998-.191 0 0-3.058 2.782-3.838 3.608-.285.295-.316.812-.081 1.155" fill="url(#aV)"></path><path d="M82.449 17.447c.257.297.734.348 1.08.116 0 0 3.605-2.215 4.637-2.747.379-.2.493-.624.241-.948-.25-.324-.77-.431-1.154-.21 0 0-3.704 2.176-4.653 2.827-.345.233-.408.664-.151.962" fill="url(#aW)"></path><path d="M85.547 17.406c.233.323.695.399 1.045.17 0 0 3.639-2.163 4.675-2.675.38-.193.516-.632.29-.984a.854.854 0 00-1.113-.272s-3.733 2.118-4.694 2.758a.702.702 0 00-.203 1.003" fill="url(#aX)"></path><path d="M88.648 18.4a.715.715 0 001.012.231s3.668-2.102 4.708-2.592a.742.742 0 00.334-1.023c-.202-.38-.682-.551-1.071-.343 0 0-3.759 2.052-4.732 2.68a.778.778 0 00-.25 1.048" fill="url(#aY)"></path><path d="M91.753 19.388c.188.385.621.517.979.298 0 0 3.693-2.031 4.735-2.497.384-.176.558-.652.379-1.066-.18-.41-.64-.622-1.031-.421 0 0-3.78 1.975-4.765 2.59-.357.22-.485.712-.297 1.096" fill="url(#aZ)"></path><path d="M93.818 20.368c.167.422.587.583.946.375 0 0 3.717-1.951 4.761-2.389.384-.167.577-.663.42-1.114-.158-.448-.6-.698-.991-.51 0 0-3.799 1.887-4.793 2.487-.361.213-.51.73-.343 1.15" fill="url(#ba)"></path><path d="M97.313 20.561a.7.7 0 00-.385.91c.145.348.553.493.913.348 0 0 3.736-1.392 4.782-1.697.385-.117.596-.507.461-.877a.774.774 0 00-.952-.459s-3.816 1.339-4.819 1.775" fill="url(#bb)"></path><path d="M100.467 21.485c-.367.149-.554.58-.428.963a.67.67 0 00.881.425s3.753-1.31 4.801-1.587a.738.738 0 00.5-.922c-.115-.406-.526-.656-.914-.546 0 0-3.829 1.246-4.84 1.667" fill="url(#bc)"></path><path d="M102.579 22.39c-.37.14-.574.6-.467 1.02.105.426.49.633.848.516 0 0 3.767-1.209 4.817-1.453.386-.094.63-.528.536-.976-.093-.448-.49-.74-.876-.646 0 0-3.838 1.136-4.858 1.538" fill="url(#bd)"></path><path d="M105.734 24.304c-.372.132-.595.623-.506 1.092.088.469.455.73.816.621 0 0 3.78-1.087 4.83-1.292.385-.078.646-.539.572-1.035-.074-.497-.454-.842-.84-.762 0 0-3.845.998-4.872 1.376" fill="url(#be)"></path><path d="M106.899 25.79c-.437.08-.716.432-.635.782.084.347.491.564.914.5 0 0 4.418-.623 5.646-.729.451-.04.773-.368.71-.738-.063-.37-.488-.642-.94-.6-.687.059-4.49.552-5.696.784" fill="url(#bf)"></path><path d="M110.06 27.705c-.438.07-.737.453-.678.85.065.39.45.659.877.605 0 0 4.424-.495 5.655-.563.451-.026.791-.379.75-.796-.041-.416-.447-.742-.898-.716-.683.032-4.498.421-5.705.62" fill="url(#bg)"></path><path d="M112.183 29.573c-.442.057-.76.48-.722.934.045.446.407.783.838.74 0 0 4.428-.33 5.662-.349.45-.006.808-.391.788-.87-.018-.48-.406-.868-.857-.861-.681.001-4.502.249-5.71.406" fill="url(#bh)"></path><path d="M114.341 33.332s4.429-.109 5.665-.062c.45.02.824-.405.827-.96.004-.557-.365-1.03-.816-1.049-.682-.037-4.507.022-5.711.121-.444.04-.78.51-.764 1.04.025.518.363.94.8.91" fill="url(#bi)"></path><path d="M122.05 35.413c.45.043.84-.33.865-.846.027-.514-.324-.977-.774-1.02-.683-.07-4.51-.228-5.711-.213-.445.014-.8.431-.805.923-.003.49.322.899.759.896 0 0 4.427.152 5.665.26" fill="url(#bj)"></path><path d="M124.092 37.493a.79.79 0 00.903-.69.85.85 0 00-.733-.92c-.685-.09-4.51-.415-5.706-.466a.825.825 0 00-.845.758.748.748 0 00.718.815s4.426.348 5.662.503" fill="url(#bk)"></path><path d="M120.686 37.502c-.445-.03-.837.256-.887.633-.058.381.243.713.678.75 0 0 4.423.497 5.656.686.447.072.872-.18.94-.569.07-.39-.241-.77-.689-.842-.688-.106-4.505-.559-5.698-.658" fill="url(#bl)"></path><path d="M122.681 39.59c-.375-.049-.727.193-.795.532-.067.339.175.646.549.695 0 0 3.786.615 4.836.832.383.081.76-.127.84-.473.079-.345-.172-.698-.554-.778-.59-.12-3.852-.675-4.876-.809" fill="url(#bm)"></path><path d="M124.807 41.682c-.375-.089-.743.218-.83.674-.087.455.141.888.515.977 0 0 3.778 1.064 4.823 1.424.38.132.773-.127.87-.59.1-.465-.135-.958-.515-1.09 0-.001-3.839-1.152-4.863-1.395" fill="url(#bn)"></path><path d="M125.893 44.814c-.375-.102-.759.158-.866.57-.106.411.107.818.48.92 0 0 3.77 1.18 4.807 1.569.38.142.786-.073.904-.492s-.098-.88-.477-1.024c0 0-3.826-1.265-4.85-1.543" fill="url(#bo)"></path><path d="M126.98 46.904a.74.74 0 00-.9.482.672.672 0 00.444.871s3.757 1.279 4.789 1.69a.705.705 0 00.934-.409.772.772 0 00-.435-.967s-3.809-1.36-4.832-1.668" fill="url(#bp)"></path><path d="M129.112 50.037c-.373-.121-.79.064-.937.405-.145.34.035.707.408.829 0 0 3.741 1.362 4.766 1.791.374.157.809.012.967-.334.16-.346-.018-.76-.393-.918 0 0-3.79-1.44-4.81-1.773" fill="url(#bq)"></path><path d="M130.205 52.145c-.372-.173-.805.033-.973.449-.166.416-.004.882.369 1.055 0 0 3.723 1.91 4.739 2.504.372.216.822.06 1.002-.36.18-.422.023-.95-.35-1.166 0 0-3.768-2.01-4.787-2.482" fill="url(#br)"></path><path d="M131.301 55.281c-.371-.182-.82-.01-1.01.37a.744.744 0 00.328 1.01s3.702 1.992 4.71 2.603a.727.727 0 001.036-.284.857.857 0 00-.304-1.113s-3.745-2.087-4.76-2.586" fill="url(#bs)"></path><path d="M131.36 58.418a.812.812 0 00-1.05.3.678.678 0 00.286.97s3.678 2.06 4.676 2.687c.365.229.845.136 1.07-.218a.774.774 0 00-.254-1.064s-3.72-2.154-4.728-2.675" fill="url(#bt)"></path><path d="M132.463 61.557c-.369-.198-.855-.087-1.09.236-.233.322-.126.734.242.93 0 0 3.65 2.124 4.639 2.763.36.233.857.168 1.105-.157.25-.326.158-.788-.203-1.021 0 0-3.688-2.212-4.693-2.751" fill="url(#bu)"></path><path d="M132.53 63.653c-.368-.203-.872-.118-1.131.178-.258.297-.173.694.193.898 0 0 3.621 2.176 4.596 2.826.356.237.869.196 1.143-.103.275-.3.207-.743-.15-.98 0 0-3.653-2.264-4.651-2.82" fill="url(#bv)"></path><path d="M133.417 66.822c-.304-.26-.74-.184-.978.158-.236.342-.184.82.12 1.081 0 0 2.988 2.78 3.79 3.604.292.301.733.277.983-.066.251-.344.216-.877-.077-1.178 0 0-3.01-2.883-3.838-3.598" fill="url(#bw)"></path><path d="M133.48 69.965c-.301-.267-.753-.218-1.013.097a.756.756 0 00.074 1.045s2.956 2.83 3.744 3.665c.288.305.744.306 1.017-.01a.868.868 0 00-.026-1.134s-2.974-2.931-3.796-3.663" fill="url(#bx)"></path><path d="M75 22.917c-28.718 0-52.083 23.365-52.083 52.083S46.282 127.083 75 127.083 127.083 103.718 127.083 75 103.718 22.917 75 22.917m-42.381 58.25a3.577 3.577 0 110-7.155 3.577 3.577 0 110 7.155M75 107.831c-18.134 0-32.835-14.701-32.835-32.835C42.165 56.86 56.866 42.16 75 42.16s32.835 14.7 32.835 32.835c0 18.134-14.701 32.835-32.835 32.835m42.377-26.664a3.577 3.577 0 110-7.154 3.577 3.577 0 010 7.154" fill="url(#by)"></path><path d="M50.512 39.583c.176-.14.352-.278.53-.416L50 38.542l.512 1.041" fill="url(#bz)"></path><path d="M42.299 108.759c.865.855 1.968.821 2.872-.11l.662-.681a39.694 39.694 0 01-2.83-2.76l-.642.661c-.903.93-.926 2.033-.062 2.89" fill="url(#bA)"></path><path d="M53.902 114.583l.265-1.103a48.34 48.34 0 01-2.124-.98l-1.001.722 2.86 1.361" fill="url(#bB)"></path><path d="M41.16 43.314c-.383.41-.576.912-.528 1.429.05.661.647 1.324 1.485 2.132a38.654 38.654 0 012.675-2.772c-1.151-1.072-1.65-1.38-2.258-1.394-.516-.017-.993.196-1.374.605" fill="url(#bC)"></path><path d="M100 40.392c.443.412.879.837 1.307 1.275l.776-3.125L100 40.39" fill="url(#bD)"></path><path d="M37.563 53.268c.028-.046.06-.09.087-.136l-.3-.15.213.286" fill="url(#bE)"></path><path d="M34.461 58.39c.016-.038.035-.075.052-.113h-.276l.224.113" fill="url(#bF)"></path><path d="M34.48 96.433c-.2.5-.112 1.006.237 1.513.735 1.07 2.05 1.306 3.418.64l.407-.198-1.187-1.726.342-.167a38.572 38.572 0 01-1.112-1.703c-1.409.712-1.895 1.097-2.105 1.641" fill="url(#bG)"></path><path d="M75 21.875C45.66 21.875 21.875 45.66 21.875 75S45.66 128.125 75 128.125 128.125 104.34 128.125 75 104.34 21.875 75 21.875m39.867 71.841l-2.427 4.246 2.613 1.493 2.85-4.985 1.875 1.07-4.051 7.086-5.717-3.268a43.55 43.55 0 01-2.185 2.943l.954.936-3.422 3.492 2.15 2.107 4.02-4.1 1.541 1.51-5.714 5.828-4.584-4.493a43.4 43.4 0 01-4.635 3.57l3.18 5.277-2.072 1.248-3.16-5.247a42.84 42.84 0 01-5.073 2.558l1.67 6.034-2.08.575-5.255-4.683c-.351.094-.706.176-1.061.26l1.584 5.73-2.33.645-1.628-5.882c-1.144.205-2.3.37-3.473.483l2.078 5.997-2.524-.042-.694-2.205-4.403-.072-.785 2.181-2.523-.041 2.178-5.695a43.15 43.15 0 01-4.988-.588c-.21.067-.454.116-.806.16l1.293 5.877-2.706-.724-1.062-5.4-1.681-.45-1.277 4.776-2.337-.625 1.47-5.497a42.442 42.442 0 01-3.28-1.35l-1.01 5.855-2.189-1.256.457-2.266-3.821-2.192-1.74 1.53-2.19-1.255 4.467-3.772a43.662 43.662 0 01-2.539-1.848l-.929.947c-1.766 1.802-4.412 1.767-6.3-.085-1.889-1.851-1.977-4.496-.21-6.298l.877-.895a43.194 43.194 0 01-1.662-2.113l-.329.19c-1.627.942-2.658 1.176-3.86.906-1.234-.291-2.282-1.093-2.961-2.268-.663-1.145-.84-2.39-.507-3.588.218-.77.701-1.532 1.245-1.948.33-.256.92-.675 1.797-1.21a42.765 42.765 0 01-3.465-12.593 2.83 2.83 0 01-1.966-2.689c0-1.151.688-2.137 1.673-2.582.03-5.035.923-9.865 2.54-14.35l-5.043-2.526 1.069-2.134 5.936.086c.193-.388.387-.775.592-1.156l-3.637-4.704 1.069-2.133 5.176 2.594c.47-.676.962-1.335 1.47-1.983l-.015-.013c-1.798-1.694-2.342-2.566-2.396-3.929-.05-1.242.396-2.4 1.314-3.377.907-.962 2.036-1.476 3.279-1.502 1.243-.025 2.355.52 3.812 1.892l.381.358a43.173 43.173 0 012.029-1.582l-3.049-5.067 1.85-1.112L53.77 37.4c.345-.188.7-.36 1.051-.54l-3.013-5.008 2.073-1.247 3.137 5.215c.898-.394 1.81-.76 2.738-1.094l-1.626-5.822 7.859-2.196.58 2.078-5.53 1.545.782 2.799 4.708-1.315.293 1.05c1.828-.32 3.694-.53 5.593-.611L69.18 26.17l2.627-.047 2.405 4.954 2.19-5.036 2.628-.047-3.048 6.255c3.586.139 7.058.718 10.366 1.682l2.37-6.1 4.638 1.801c2.174.844 3.09 2.618 2.334 4.564-.428 1.104-1.214 1.732-2.378 1.896.313.366.45.569.58.838a43.365 43.365 0 013.477 1.991l5.86-3.894 1.526 1.126-1.998 6.816a43.08 43.08 0 012.303 2.184c.137-.115.274-.23.416-.347l.39-.322c1.904-1.575 2.834-2.007 4.196-1.89 1.238.104 2.333.69 3.186 1.721.433.523.742 1.06.911 1.62.19.61.24.998.176 1.932l-2.254-.213c.077-.944-.04-1.413-.494-1.962-.411-.496-.905-.766-1.484-.783-.91-.037-1.904.784-2.816 1.539l-.509.421-.075.063a43.212 43.212 0 014.543 6.223l6.183-2.913 1.032 2.188-4.88 2.3 6.742 1.652 1.254 2.661-6.207-1.616-1.155 1.696a42.927 42.927 0 013.131 15.662c.088-.009.174-.027.264-.027a2.838 2.838 0 11-.563 5.62 42.779 42.779 0 01-3.49 12.582l1.308.748" fill="url(#bH)"></path><path d="M92.702 31.181l-2.124-.973-.995 3.02 2.124.973c.89.408 1.625.088 1.934-.852.31-.94-.049-1.76-.94-2.168" fill="url(#bI)"></path><path d="M77.083 119.792l-.498-1.042c-.641.018-1.284.032-1.931.032l-.156-.002-.54.978 3.125.034" fill="url(#bJ)"></path><path d="M88.218 115.625c-.237.076-.479.145-.718.217l1.042.825-.324-1.042" fill="url(#bK)"></path><path fill="url(#bL)" d="M55.208 85.414h-3.68V67.627l-3.611 3.558v-4.297l3.61-3.31 3.681-.036v21.875"></path><path d="M68.75 80.305c0 1.41-.522 2.613-1.564 3.613-1.043 1-2.279 1.499-3.708 1.499h-.914c-1.454 0-2.695-.5-3.726-1.5-1.032-.998-1.546-2.203-1.546-3.612V68.653c0-1.408.514-2.612 1.546-3.612 1.031-1 2.273-1.5 3.726-1.5h.914c1.43 0 2.665.5 3.708 1.5 1.043 1 1.564 2.204 1.564 3.612v11.652m-3.515-.917v-9.922c0-.906-.094-1.551-.281-1.937-.281-.61-.832-.917-1.652-.917-1.664 0-2.495.952-2.495 2.854v9.922c0 1.903.76 2.854 2.285 2.854 1.428 0 2.141-.95 2.141-2.854" fill="url(#bM)"></path><path d="M82.292 80.305c0 1.41-.522 2.613-1.564 3.613-1.043 1-2.28 1.499-3.709 1.499h-.913c-1.454 0-2.696-.5-3.727-1.5-1.03-.999-1.546-2.203-1.546-3.612V68.653c0-1.408.515-2.612 1.546-3.612 1.031-1 2.273-1.5 3.727-1.5h.913c1.43 0 2.666.5 3.709 1.5 1.042 1 1.564 2.204 1.564 3.612v11.652m-3.515-.917v-9.922c0-.906-.094-1.551-.281-1.937-.282-.61-.832-.917-1.652-.917-1.665 0-2.496.952-2.496 2.854v9.922c0 1.903.761 2.854 2.285 2.854 1.428 0 2.142-.95 2.142-2.854" fill="url(#bN)"></path><path d="M92.214 70.385c0 1.197-.394 2.106-1.182 2.728-.79.622-1.796.933-3.02.933-.989 0-1.842-.358-2.56-1.074-.718-.716-1.077-1.578-1.077-2.587v-4.224c0-1.197.412-2.124 1.236-2.78.777-.588 1.777-.881 3.002-.881.988 0 1.835.358 2.542 1.074a3.55 3.55 0 011.058 2.587v4.224m8.813-7.749L88.89 85.416h-2.958L98.18 62.5l2.847.136m-11.426 7.12v-3.07c0-1.2-.454-1.8-1.36-1.8-.834 0-1.252.6-1.252 1.8v3.07c0 1.2.453 1.799 1.36 1.799.835 0 1.252-.6 1.252-1.8m13.523 12.012c0 1.193-.401 2.1-1.201 2.72-.8.62-1.812.93-3.038.93-.988 0-1.835-.363-2.541-1.088-.706-.725-1.06-1.58-1.06-2.562V77.52c0-1.169.412-2.081 1.237-2.737.752-.607 1.74-.912 2.965-.912.99 0 1.842.363 2.56 1.088.717.725 1.077 1.579 1.077 2.561v4.247m-2.613-.631v-3.054c0-1.193-.453-1.79-1.36-1.79-.835 0-1.253.597-1.253 1.79v3.054c0 1.193.453 1.79 1.36 1.79.836-.001 1.253-.597 1.253-1.79" fill="url(#bO)"></path><g fill="#FFF"><path d="M75.037 47.112l1.284 3.421 3.6.182-2.809 2.293.942 3.531-3.017-2-3.016 2 .941-3.531-2.804-2.293 3.6-.182zM61.746 51.671l2.237 1.848 2.563-1.336-1.038 2.732 2.042 2.064-2.88-.16-1.3 2.609-.737-2.83-2.85-.448 2.421-1.59zM61.746 98.414l.458-2.89-2.42-1.59 2.85-.448.737-2.829 1.304 2.61 2.88-.161-2.047 2.064 1.042 2.728-2.567-1.333zM75.042 102.969l-1.284-3.418-3.6-.182 2.809-2.292-.946-3.531 3.02 1.996 3.017-1.996-.941 3.531 2.804 2.292-3.596.182zM88.333 98.414l-2.237-1.849-2.563 1.333 1.038-2.728-2.042-2.064 2.88.16 1.3-2.609.741 2.83 2.846.448-2.421 1.586zM88.333 51.671l-.458 2.889 2.42 1.586-2.85.452-.737 2.83-1.304-2.61-2.875.157 2.042-2.064-1.038-2.728 2.563 1.336z"></path></g><path d="M36.869 55.208c-.142.337-.277.68-.41 1.023l1.041.019-.631-1.042" fill="url(#bP)"></path><path d="M65.395 112.1l-2.092-.642-.803 3.442 2.092.641c.96.294 1.776-.202 2.015-1.227.239-1.024-.254-1.921-1.213-2.214" fill="url(#bQ)"></path><path d="M55.208 110.418l-3.125 2.115a55.83 55.83 0 002.326 1.009l.8-3.125" fill="url(#bR)"></path><path d="M97.917 41.72l2.577 2.03.548-1.817a45.457 45.457 0 00-1.627-1.308l-1.498 1.095" fill="url(#bS)"></path><path d="M42.708 46.688l.314.3c1.035.986 2.004 1.996 2.88 1.97a2.014 2.014 0 001.462-.652c.403-.434.596-.953.545-1.502-.069-.722-.418-1.19-2.144-2.834l-.235-.22a41.209 41.209 0 00-2.822 2.936" fill="url(#bT)"></path><path d="M84.682 117.708c.245-.109.491-.218.735-.339l-1.042-1.744.307 2.083" fill="url(#bU)"></path><path d="M55.29 37.5c-.374.124-.753.245-1.123.376l2.083.666-.96-1.042" fill="url(#bV)"></path><path d="M114.112 77.326a2.808 2.808 0 012.555-2.791 42.634 42.634 0 00-3.106-15.554l-3.693 5.432-1.193-2.531 3.714-5.248-2.395-.629-3.342 1.577-1.023-2.174 4.987-2.352a42.883 42.883 0 00-4.506-6.18c-1.44 1.198-1.874 1.718-1.976 2.42-.09.569.07 1.087.487 1.593.463.56.886.746 1.82.846l-.21 2.238c-.921-.111-1.29-.232-1.85-.53-.49-.268-.98-.67-1.398-1.176-.845-1.025-1.225-2.215-1.097-3.442.159-1.561 1.213-2.562 2.594-3.717a42.633 42.633 0 00-2.286-2.17l-1.7 5.8-2.014-1.486.707-2.184-3.514-2.593-1.888 1.31-2.014-1.487 5.082-3.381a42.606 42.606 0 00-3.452-1.978c.019.039.038.076.057.119.292.725.252 1.45-.06 2.256-.782 2.012-2.627 2.76-4.783 1.921l-4.794-1.864 2.099-5.41a42.579 42.579 0 00-10.283-1.67l-.541 1.114.09 5.046-2.383.043-.09-5.046-.612-1.151c-1.885.08-3.735.29-5.549.607l.285 1.02-4.67 1.307.803 2.879 5.486-1.535.575 2.064-7.796 2.18-1.69-6.066c-.922.33-1.826.696-2.717 1.086l3.224 5.364-1.834 1.104-7.043-3.458c-.173.11-.345.22-.517.332l3.39 5.639-2.056 1.237-3.31-5.508a42.29 42.29 0 00-2.012 1.571l.25.235c1.281 1.208 2.636 2.365 2.73 4.258.061 1.245-.382 2.371-1.292 3.34-.911.97-2.032 1.48-3.265 1.505-1.855.032-3.28-1.43-4.272-2.365l-.475-.447c-.503.642-.99 1.297-1.457 1.968l5.85 2.934-1.075 2.148-6.103-3.062c-.028.047-.06.09-.087.137l2.9 3.903-.726 1.453-4.948.025-.052.114 6.178 3.099-1.075 2.147-5.983-3a42.715 42.715 0 00-2.518 14.246c.353-.159.74-.252 1.152-.252a2.816 2.816 0 012.816 2.818c0 1.557-1.26 2.82-2.816 2.82a2.79 2.79 0 01-.862-.15 42.508 42.508 0 003.436 12.504c.194-.118.396-.24.62-.369l.432-.25c2.12-1.23 3.104-1.5 4.416-1.161 1.234.304 2.161 1.045 2.861 2.257.38.658.62 1.278.696 1.894.094.644.042 1.074-.205 2.095l-2.218-.592c.187-.747.233-1.013.183-1.444a2.668 2.668 0 00-.326-.91c-.329-.569-.79-.92-1.355-1.032a1.789 1.789 0 00-1.1.098c-.498.209-1.226.57-2.182 1.125l-.3.173c-.173.1-.327.192-.477.282.326.629.666 1.25 1.022 1.86l1.416-.821 2.292 3.964-1.196.693a43.33 43.33 0 001.647 2.098l4.783-4.885 1.714 1.681-4.899 5.002a43.204 43.204 0 003.067 2.965l4.876-4.978 1.7 1.67-4.734 4.833c.819.64 1.655 1.255 2.52 1.835l5.563-4.702 1.632.938-1.221 7.098c1.062.487 2.145.94 3.253 1.34l1.716-6.43 4.653 1.246c2.268.606 3.452 2.535 2.881 4.67-.259.968-.806 1.681-1.643 2.137a3.11 3.11 0 01-.558.247c1.62.286 3.27.486 4.947.583l2.513-6.576 1.881.031 2.225 6.424a42.345 42.345 0 003.445-.48l-1.664-6.018 2.064-.572 5.662 5.04c.238-.08.478-.158.715-.243l-1.687-6.096 2.313-.64 1.622 5.868a42.264 42.264 0 005.032-2.54l-2.102-3.492-2.75 1.658-1.104-1.834 7.553-4.557 1.105 1.835-2.75 1.659 2.084 3.461a42.854 42.854 0 004.598-3.544l-4.232-4.152 5.667-5.788 1.53 1.5-3.989 4.073 2.058 2.02 3.395-3.467.584.572a43.05 43.05 0 002.168-2.923l-5-2.862 4.016-7.036 1.86 1.063-2.828 4.951 2.502 1.432 2.407-4.216.564.323a42.496 42.496 0 003.462-12.494 2.818 2.818 0 01-2.26-2.764m-39.448 29.443c-17.643 0-31.994-14.366-31.994-32.03 0-17.662 14.35-32.03 31.994-32.03 17.642 0 31.994 14.37 31.994 32.03 0 17.661-14.354 32.03-31.994 32.03" fill="url(#bW)"></path><path d="M76.042 118.698l-.961-3.073-1.123 3.12c.053.001.105.005.159.005.645 0 1.286-.021 1.925-.05" fill="url(#bX)"></path><path d="M89.66 39.43c.848.384 1.581.036 1.893-.9.313-.937-.033-1.752-.882-2.136l-2.159-.977-1.012 3.036 2.16.976" fill="url(#bY)"></path><path d="M75 22.917c-28.718 0-52.083 23.365-52.083 52.083S46.282 127.083 75 127.083 127.083 103.718 127.083 75 103.718 22.917 75 22.917m43.225 29.642l-4.854 2.287 6.706 1.643 1.248 2.647-6.174-1.608-4.85 7.127-1.197-2.535 3.724-5.256-2.401-.63-3.351 1.58-1.026-2.177 11.149-5.254 1.026 2.177M107.835 75c0 18.134-14.7 32.836-32.835 32.836-18.134 0-32.835-14.702-32.835-32.836S56.866 42.166 75 42.166s32.836 14.7 32.836 32.835m-2.138-30.342c1.894-1.567 2.82-1.996 4.173-1.881 1.232.104 2.321.686 3.17 1.713.43.52.737 1.053.906 1.61.188.608.238.993.175 1.922l-2.242-.212c.077-.939-.04-1.405-.492-1.951-.408-.494-.9-.762-1.476-.78-.905-.036-1.893.781-2.8 1.531l-.506.42c-1.508 1.247-1.95 1.77-2.055 2.486-.09.57.07 1.088.489 1.595.464.56.888.748 1.825.848l-.21 2.242c-.924-.112-1.295-.233-1.856-.532a4.906 4.906 0 01-1.401-1.177c-.848-1.027-1.229-2.219-1.1-3.448.174-1.717 1.428-2.754 3.014-4.068l.386-.32m-1.105-8.286l-3.691 12.588-2.02-1.49.71-2.186-3.525-2.599-1.893 1.313-2.019-1.489 10.922-7.257 1.516 1.12m-15.95-8.278l4.613 1.792c2.162.839 3.073 2.604 2.321 4.54-.426 1.097-1.207 1.722-2.365 1.885.358.417.484.615.632.951.294.727.254 1.453-.06 2.26-.783 2.016-2.634 2.764-4.795 1.924l-4.807-1.867 4.461-11.486m-16.82-1.7l2.392 4.927 2.178-5.009 2.614-.046-3.575 7.336.09 5.054-2.388.043-.09-5.054-3.835-7.205 2.613-.048m-5.787.583l.577 2.067-5.5 1.537.778 2.783 4.682-1.308.577 2.066-4.682 1.308.804 2.884 5.501-1.537.577 2.067-7.817 2.184-3.315-11.866 7.817-2.183m-18.286 7.63l8.074 3.95-3.89-6.466 2.061-1.24 6.353 10.558-1.84 1.107-8.081-3.965 3.9 6.481-2.062 1.24L45.91 35.71l1.839-1.106m-8.257 6.976c.902-.957 2.026-1.468 3.261-1.494 1.237-.025 2.343.517 3.792 1.882l.63.593c1.286 1.21 2.644 2.369 2.738 4.264.062 1.247-.382 2.376-1.296 3.346-.913.971-2.036 1.482-3.272 1.508-1.86.031-3.29-1.433-4.284-2.37l-.492-.462c-1.79-1.685-2.33-2.552-2.383-3.908-.05-1.235.393-2.388 1.306-3.358m-9.457 14.531l7.399.107-4.523-5.847 1.062-2.122 11.018 5.522-1.077 2.151-6.422-3.217 3.123 4.197-.729 1.455-5.24.026 6.421 3.217-1.078 2.151-11.018-5.522 1.064-2.121m-.238 21.473a2.822 2.822 0 115.645 0 2.822 2.822 0 01-5.645 0m5.826 24.162c-1.228-.29-2.27-1.087-2.946-2.255-.659-1.14-.835-2.378-.504-3.57.217-.765.698-1.523 1.239-1.936.4-.312 1.181-.863 2.41-1.574l.434-.252c2.126-1.231 3.112-1.5 4.428-1.162 1.237.305 2.167 1.047 2.869 2.26.381.66.62 1.281.698 1.897.093.646.041 1.076-.206 2.1l-2.224-.594c.187-.748.233-1.015.184-1.446a2.67 2.67 0 00-.327-.911c-.33-.57-.793-.922-1.359-1.034a1.795 1.795 0 00-1.103.098c-.5.209-1.23.571-2.188 1.126l-.3.174c-1.678.97-2.203 1.414-2.417 2.078-.184.547-.104 1.1.217 1.655.677 1.17 1.887 1.429 3.146.7l.374-.217-1.092-1.888 1.738-1.006 2.298 3.971-1.529.885c-1.619.937-2.645 1.17-3.84.901m5.155 8.166c-1.878-1.84-1.966-4.472-.209-6.264l5.67-5.785 1.718 1.684-5.61 5.723c-.981 1-1.006 2.188-.067 3.11.94.92 2.139.884 3.12-.118l5.61-5.722 1.704 1.672-5.67 5.785c-1.757 1.792-4.39 1.757-6.267-.085m14.703 10.141l-2.177-1.248.454-2.255-3.8-2.18-1.731 1.522-2.178-1.248 10.023-8.462 1.637.94-2.229 12.932m13.54-4.995c-.259.97-.808 1.683-1.647 2.14-.397.216-.676.32-1.362.406l1.287 5.845-2.693-.72-1.055-5.37-1.673-.448-1.27 4.75-2.324-.622 3.182-11.908 4.666 1.247c2.274.608 3.46 2.54 2.889 4.678m8.947 8.773l-.69-2.193-4.38-.072-.78 2.17-2.51-.042 4.686-12.25 1.887.031 4.297 12.398-2.51-.041m12.54-2.496l-6.722-5.989 2.017 7.29-2.318.642-3.287-11.879 2.068-.572 6.718 5.973-2.013-7.274 2.32-.642 3.286 11.879-2.069.57m8.598-3.898l-5.25-8.715-2.758 1.661-1.107-1.837 7.574-4.564 1.108 1.838-2.758 1.66 5.252 8.717-2.06 1.24m8.065-5.572l-8.801-8.626 5.682-5.797 1.534 1.502-3.999 4.079 2.064 2.024 3.404-3.473 1.533 1.502-3.404 3.473 2.138 2.096 3.999-4.078 1.533 1.502-5.683 5.796m8.327-9.397L104.8 96.349l4.028-7.047 1.864 1.065-2.835 4.958 2.509 1.435 2.413-4.223 1.864 1.065-2.414 4.223 2.6 1.485 2.834-4.958 1.864 1.065-4.029 7.048m1.877-22.062a2.823 2.823 0 110-5.646 2.823 2.823 0 010 5.646" fill="url(#bZ)"></path><path fill="url(#ca)" d="M54.4 114.583l.808-4.166-3.125 2.799z"></path><path fill="url(#cb)" d="M73.958 119.745l3.125.047-1.459-4.167z"></path><path d="M42.655 47.852c1.113 1.074 2.154 2.176 3.097 2.147a2.151 2.151 0 001.57-.71c.434-.473.64-1.04.586-1.638-.073-.788-.448-1.299-2.304-3.091-1.497-1.445-2.08-1.835-2.815-1.85-.584-.02-1.125.226-1.558.698-.434.472-.653 1.053-.598 1.65.063.852.896 1.706 2.022 2.792" fill="url(#cc)"></path><path fill="url(#cd)" d="M102.083 38.542l-4.166 2.483 2.622 1.683z"></path><path d="M65.395 112.1l-2.092-.642-.803 3.442 2.092.641c.96.294 1.776-.202 2.015-1.227.239-1.024-.254-1.921-1.213-2.214" fill="url(#ce)"></path><path d="M93.64 33.35c.31-.94-.048-1.76-.939-2.169l-2.123-.973-.995 3.02 2.124.973c.89.408 1.625.088 1.934-.852" fill="url(#cf)"></path><path d="M91.553 38.53c.313-.937-.033-1.752-.882-2.136l-2.159-.977-1.012 3.036 2.16.976c.848.385 1.58.037 1.893-.9" fill="url(#cg)"></path><path d="M32.812 80.482a2.877 2.877 0 110-5.754 2.877 2.877 0 010 5.754m0-6.524a3.645 3.645 0 100 7.292 3.646 3.646 0 100-7.292" fill="url(#ch)"></path><path d="M117.187 80.482a2.877 2.877 0 110-5.754 2.877 2.877 0 010 5.754m0-6.524a3.645 3.645 0 100 7.29 3.645 3.645 0 000-7.29" fill="url(#ci)"></path></g></svg> 