<svg xmlns="http://www.w3.org/2000/svg" id="b44de2df-b1f4-45b4-8b76-9e5ad84bc5d5" data-name="fdbf833a-fc77-4d0f-a2ee-ef580ebbb156" width="196" height="55" viewBox="0 0 196 55"><rect width="196" height="55" style="fill:#fff;fill-opacity:0"></rect><path d="M59.756,17.5a8.5527,8.5527,0,0,0-4.0231.9333,8.2545,8.2545,0,0,0-2.9241,2.5159V17.9058H47V45.5h5.8088V34.4216q2.12,3.7742,7.0257,3.774a10.837,10.837,0,0,0,5.3575-1.2781,8.7582,8.7582,0,0,0,3.552-3.6726A11.9822,11.9822,0,0,0,70,27.6042a10.0287,10.0287,0,0,0-2.6886-7.4057Q64.6228,17.5,59.756,17.5Zm2.6095,17.5654A5.0955,5.0955,0,0,1,57.9172,37.5a5,5,0,0,1-4.3654-2.2488A10.9715,10.9715,0,0,1,52,28.9587,10.4214,10.4214,0,0,1,53.6345,22.79a5.5161,5.5161,0,0,1,8.7931-.2063A9.91,9.91,0,0,1,64,28.6287,11.3623,11.3623,0,0,1,62.3655,35.0654Z"></path><path d="M178.0133,32.3472a4.1516,4.1516,0,0,0-5.0266,0,2.8419,2.8419,0,0,0,0,4.3056,4.1516,4.1516,0,0,0,5.0266,0,2.8419,2.8419,0,0,0,0-4.3056Z"></path><path d="M86.4694,19.66a6.6782,6.6782,0,0,0-2.4286,3.28V18.9H78V38.5h6.0408V29.86a10.82,10.82,0,0,1,1.4286-5.64,4.811,4.811,0,0,1,4.4489-2.4,3.9212,3.9212,0,0,1,1.7144.32L92,18.66a5.21,5.21,0,0,0-1.3878-.16A7.04,7.04,0,0,0,86.4694,19.66Z"></path><path d="M166,28.6177q0-4.9413-2.9048-7.53T154.6592,18.5a14.6647,14.6647,0,0,0-6.2077,1.2156,9.1307,9.1307,0,0,0-4.0389,3.49A9.9753,9.9753,0,0,0,143,28.5784a9.7008,9.7008,0,0,0,1.4126,5.2942,9.0942,9.0942,0,0,0,4.0389,3.4314,14.87,14.87,0,0,0,6.2077,1.196,14.5189,14.5189,0,0,0,7.461-1.7451,7.3264,7.3264,0,0,0,3.641-5H161.384a5.683,5.683,0,0,1-1.89,3.53,6.46,6.46,0,0,1-4.1582,1.1763q-6.4464,0-6.4464-7.6077v-.2353Zm-15.0071-6.5594A5.6952,5.6952,0,0,1,155.1908,20.5a5.3168,5.3168,0,0,1,3.9858,1.52A7.4354,7.4354,0,0,1,161,26.5H149A7.6265,7.6265,0,0,1,150.9929,22.0583Z"></path><path d="M35.6821,28.3628A19.0389,19.0389,0,0,0,28.4906,25.99a18.6251,18.6251,0,0,1-3.2491-.7646,3.34,3.34,0,0,1-1.4859-.9021,1.97,1.97,0,0,1-.3763-1.2354q0-2.5488,4.398-2.5488a6.3976,6.3976,0,0,1,3.6255.9412,4.2536,4.2536,0,0,1,1.8029,2.7451h4.3585a5.6634,5.6634,0,0,0-3.1105-4.2747A15.33,15.33,0,0,0,27.183,18.5q-4.7943,0-7.2708,1.4509a4.4542,4.4542,0,0,0-2.4764,4,4.19,4.19,0,0,0,2.2585,3.7256,21.0758,21.0758,0,0,0,7.33,2.1568,9.4814,9.4814,0,0,1,3.685,1.2158,2.4233,2.4233,0,0,1,1.3471,2,2.8826,2.8826,0,0,1-1.3274,2.49,6.346,6.346,0,0,1-3.665.9214,6.71,6.71,0,0,1-3.9425-.98,4.53,4.53,0,0,1-1.7632-2.9021H17Q18.4661,38.5,26.9453,38.5,38,38.5,38,32.4607A4.7263,4.7263,0,0,0,35.6821,28.3628Z"></path><path d="M132.6821,28.3628a19.0368,19.0368,0,0,0-7.1915-2.3726,18.6251,18.6251,0,0,1-3.2491-.7646,3.34,3.34,0,0,1-1.4859-.9021,1.97,1.97,0,0,1-.3763-1.2354q0-2.5488,4.398-2.5488a6.3976,6.3976,0,0,1,3.6255.9412,4.2536,4.2536,0,0,1,1.8029,2.7451h4.3585a5.6634,5.6634,0,0,0-3.1105-4.2747A15.3282,15.3282,0,0,0,124.183,18.5q-4.7943,0-7.2708,1.4509a4.4542,4.4542,0,0,0-2.4764,4,4.19,4.19,0,0,0,2.2585,3.7256,21.0758,21.0758,0,0,0,7.33,2.1568,9.4814,9.4814,0,0,1,3.685,1.2158,2.4233,2.4233,0,0,1,1.3471,2,2.8826,2.8826,0,0,1-1.3274,2.49,6.346,6.346,0,0,1-3.665.9214,6.71,6.71,0,0,1-3.9425-.98,4.53,4.53,0,0,1-1.7632-2.9021H114Q115.4661,38.5,123.9453,38.5,135,38.5,135,32.4607A4.7263,4.7263,0,0,0,132.6821,28.3628Z"></path><path d="M101.5,9.5a3.7221,3.7221,0,0,0-2.5133.8472,2.8419,2.8419,0,0,0,0,4.3056,4.1516,4.1516,0,0,0,5.0266,0,2.8419,2.8419,0,0,0,0-4.3056A3.7221,3.7221,0,0,0,101.5,9.5Z"></path><rect x="99" y="18.5" width="6" height="20"></rect></svg>