<svg xmlns="http://www.w3.org/2000/svg" id="eefb4d86-03d1-4f30-ac6b-1374acfad655" data-name="Layer 1" width="50" height="106" viewBox="0 0 50 106"><circle cx="24.5" cy="99.5" r="6.5"></circle><path d="M50.5,24.7059A24.8543,24.8543,0,0,0,25.5,0,24.8543,24.8543,0,0,0,.5,24.7059C.5,38.3506,25.5,90,25.5,90S50.5,38.3506,50.5,24.7059ZM14.5014,29.208a11.6637,11.6637,0,0,1,2.5807-12.821,12.0083,12.0083,0,0,1,12.9737-2.55A11.7442,11.7442,0,0,1,25.5,36.4706,11.9071,11.9071,0,0,1,14.5014,29.208Z" transform="translate(-0.5)"></path></svg>