<svg xmlns="http://www.w3.org/2000/svg" id="a5fcbf1f-d803-474d-a40b-38fbcb04b4d2" data-name="Layer 1" width="103.51" height="119.88" viewBox="0 0 103.51 119.88"><path d="M103.3789,25.373A29.8067,29.8067,0,0,0,91.3818,5.7959l.001.0005a30.0006,30.0006,0,0,0-41.9057,6.6362L5.9814,72.3A30.0083,30.0083,0,0,0,30.188,119.94a30.3782,30.3782,0,0,0,4.7573-.3759,29.8076,29.8076,0,0,0,19.5772-11.9971L98.02,47.7A29.8068,29.8068,0,0,0,103.3789,25.373Zm-21.54,10.5713L38.3418,95.8115a10,10,0,1,1-16.18-11.7558L65.6572,24.1885a9.9345,9.9345,0,0,1,6.5264-3.999A10.1184,10.1184,0,0,1,73.77,20.064a9.92,9.92,0,0,1,5.8555,1.9121l.001.0005a10,10,0,0,1,2.2129,13.9677Z" transform="translate(-0.2451 -0.0604)"></path></svg>