<svg xmlns="http://www.w3.org/2000/svg" id="f5c15048-c720-4900-b472-a7b0f9145494" data-name="ac7de004-8ed4-4367-bc44-e339bf72ba2c" width="196" height="55" viewBox="0 0 196 55"><rect width="196" height="55" style="fill:#fff;fill-opacity:0"></rect><path d="M16.2859,15v.6926a5.4574,5.4574,0,0,1,2.3586.7617,2.4993,2.4993,0,0,1,.9124,1.6448,22.9532,22.9532,0,0,1,.2066,3.6875V29.82a13.1655,13.1655,0,0,1-1.3773,6.6311,4.9576,4.9576,0,0,1-4.6482,2.3372,3.8792,3.8792,0,0,1-3.2709-1.333Q9.434,36.122,9.4341,32.7981V18.67a6.2893,6.2893,0,0,1,.2066-1.9045,1.2418,1.2418,0,0,1,.7747-.7964,6.8324,6.8324,0,0,1,1.8077-.2769V15q-2.1.104-6.1632.1038H5.5231Q1.8317,15.0969,0,15v.6926a5.3872,5.3872,0,0,1,1.6011.2774,1.1552,1.1552,0,0,1,.6714.7964A7.485,7.485,0,0,1,2.4446,18.67V29.543a21.48,21.48,0,0,0,.5682,5.54A5.8013,5.8013,0,0,0,5.268,38.3379,10.9242,10.9242,0,0,0,11.741,40a11.2318,11.2318,0,0,0,4.6654-.8311A6.0018,6.0018,0,0,0,19.1437,36.78q1.4117-2.3547,1.4117-7.3408v-8.345a20.7206,20.7206,0,0,1,.1721-3.1164,2.71,2.71,0,0,1,.6887-1.5408A3.2817,3.2817,0,0,1,23,15.6926V15q-1.0329.104-2.8578.1038Q17.6977,15.1038,16.2859,15Z"></path><path d="M53.3455,16.9246q-2.6547-1.8894-7.79-1.8892-.9023,0-1.5962.0352l-3.9906.0354Q35.978,15.106,34,15v.7063a5.1543,5.1543,0,0,1,1.5963.2825,1.2318,1.2318,0,0,1,.6766.812,7.0445,7.0445,0,0,1,.1908,1.9421V36.2571a7.7181,7.7181,0,0,1-.1735,1.9421,1.1733,1.1733,0,0,1-.6766.812A5.3615,5.3615,0,0,1,34,39.2937V40l1.6656-.0354q2.9148-.07,4.5458-.0706,2.4638,0,7.1482.106v-.8123a9.6383,9.6383,0,0,1-2.4811-.2294,1.5927,1.5927,0,0,1-1.0756-.9,5.7417,5.7417,0,0,1-.295-2.1538v-6.003h1.2839A15.43,15.43,0,0,0,51.42,28.7a7.8641,7.8641,0,0,0,3.5394-2.9836A7.2851,7.2851,0,0,0,56,21.9915,5.9147,5.9147,0,0,0,53.3455,16.9246ZM48.1167,27.2305A3.2693,3.2693,0,0,1,44.9,29H44V18.9268a9.3277,9.3277,0,0,1,.1334-1.8377,1.2546,1.2546,0,0,1,.5166-.8508A2.2125,2.2125,0,0,1,45.8,16a2.5294,2.5294,0,0,1,2.4667,1.5654A12.1115,12.1115,0,0,1,49,22.4319,10.8623,10.8623,0,0,1,48.1167,27.2305Z"></path><path d="M165.468,38.13a1.1321,1.1321,0,0,1-.975-.4846,4.7885,4.7885,0,0,1-.5919-1.7661l-.7312-3.6011a4.625,4.625,0,0,0-2.2284-3.2029,12.22,12.22,0,0,0-5.3621-1.333q4.596-.4156,6.546-2.2507a5.8661,5.8661,0,0,0,1.95-4.4321,4.8907,4.8907,0,0,0-2.594-4.5362q-2.594-1.4886-7.8865-1.4887-.9052,0-1.6017.0346l-4.0041.0345q-4.0043,0-5.9889-.1038v.6926a5.288,5.288,0,0,1,1.6017.2769,1.2159,1.2159,0,0,1,.6789.7964,6.7586,6.7586,0,0,1,.1916,1.9045V35.845a7.4056,7.4056,0,0,1-.1741,1.9043,1.159,1.159,0,0,1-.679.7964A5.4944,5.4944,0,0,1,142,38.8228v.6923q1.9847-.1036,6.1978-.1037,3.7953,0,5.8148.1037v-.6923a5.2785,5.2785,0,0,1-1.6017-.2771,1.2161,1.2161,0,0,1-.679-.7964,6.7539,6.7539,0,0,1-.1915-1.9043V27.8809h1.5668a1.951,1.951,0,0,1,1.828,1.2465,12.8906,12.8906,0,0,1,.9576,3.67l.5222,3.4626a3.9221,3.9221,0,0,0,1.6366,2.8911A6.8908,6.8908,0,0,0,161.7772,40a9.3047,9.3047,0,0,0,2.9248-.4155A5.8678,5.8678,0,0,0,167,38.13l-.4526-.45A1.4779,1.4779,0,0,1,165.468,38.13ZM151.9,27H151V18.8494a8.8435,8.8435,0,0,1,.1334-1.7891,1.218,1.218,0,0,1,.5166-.8284A2.266,2.266,0,0,1,152.8,16a2.5727,2.5727,0,0,1,2.45,1.3916A8.8883,8.8883,0,0,1,156,21.5a7.9124,7.9124,0,0,1-.8666,4.0588A3.4585,3.4585,0,0,1,151.9,27Z"></path><path d="M93.7512,15v.7063a3.2083,3.2083,0,0,1,2.2478.8826,3.6079,3.6079,0,0,1,.7841,2.5778,18.476,18.476,0,0,1-.9409,4.9434L93.1588,32.832l-4.6-14.16a4.882,4.882,0,0,1-.3485-1.6243,1.0448,1.0448,0,0,1,.5576-1.0242,4.5585,4.5585,0,0,1,1.8121-.3172V15q-1.7773.1059-5.4017.106l-.6063-.0008Q81.29,15.0973,79.1492,15v.7063a1.9519,1.9519,0,0,1,1.08.4236,2.6369,2.6369,0,0,1,.6971,1.2358l2.37,7.3093-3.0669,8.4041L75.1762,18.6724a4.31,4.31,0,0,1-.3137-1.5537q0-1.236.941-1.4124V15q-1.4637.1059-4.635.106l-.72-.001Q67.2585,15.0954,65,15v.7063a1.77,1.77,0,0,1,1.08.5825,4.5541,4.5541,0,0,1,.9758,1.6773L75.1414,40q1.1151-.0707,1.8122-.0706.7319,0,1.847.0706l4.9138-14.0183L88.2449,40q1.1153-.0707,1.8122-.0706.7318,0,1.8471.0706L97.759,20.65q1.1848-3.92,3.241-4.9437V15q-1.0455.1059-2.6834.106Q96.365,15.106,93.7512,15Z"></path><path d="M129.9514,37.0339,121.5486,15q-1.111.0707-1.8056.0706-.729,0-1.84-.0706l-7.7083,20.1624a11.8,11.8,0,0,1-1.5625,3.0368A2.706,2.706,0,0,1,107,39.2937V40q1.0418-.1059,2.6736-.106,1.9445,0,4.5486.106v-.7063a4.6928,4.6928,0,0,1-2.3611-.6,2.2023,2.2023,0,0,1-.7986-1.9775,14.2034,14.2034,0,0,1,1.1459-4.59l.59-1.5891h7.0139l2.0486,5.791a4.951,4.951,0,0,1,.4167,1.6951.9492.9492,0,0,1-.5556.9356,5.4122,5.4122,0,0,1-1.875.3354V40q1.875-.1059,5.8333-.106,3.82,0,6.32.106v-.7063a1.6959,1.6959,0,0,1-1.059-.5825A5.0925,5.0925,0,0,1,129.9514,37.0339ZM113,30l3.08-9L119,30Z"></path><path d="M195.7582,34.0679q0-1.9776.1036-3.2488h-.7944q-.76,4.3788-2.5562,6.3738a5.1422,5.1422,0,0,1-3.8,1.9948h-1.14a4.2718,4.2718,0,0,1-1.3644-.1586.942.942,0,0,1-.5872-.6,4.8681,4.8681,0,0,1-.1555-1.4653V27.7825h.3455a4.293,4.293,0,0,1,3.1951,1.3242,5.9273,5.9273,0,0,1,1.6062,3.3369h.7945q-.2073-3.2135-.2073-5.0142v-1.695q0-1.8361.1036-3.3191h-.7944a6.7613,6.7613,0,0,1-1.6235,3.2131,3.9615,3.9615,0,0,1-3.0742,1.4478h-.3455v-9.04a4.8681,4.8681,0,0,1,.1555-1.4653.942.942,0,0,1,.5872-.6,4.2718,4.2718,0,0,1,1.3644-.1586h.4491a5.38,5.38,0,0,1,4.0414,1.7832q1.6926,1.783,2.3143,5.8791h.7945a24.006,24.006,0,0,1-.1036-2.5425q0-2.6128.2417-5.9321-1.9038.094-6.1272.1047l-2.467.0005Q179.6586,15.0968,176,15v.7063a5.108,5.108,0,0,1,1.589.2825,1.23,1.23,0,0,1,.6735.812,7.0717,7.0717,0,0,1,.19,1.9421V36.2571a7.75,7.75,0,0,1-.1727,1.9421,1.1725,1.1725,0,0,1-.6735.812A5.3173,5.3173,0,0,1,176,39.2937V40q4.007-.1059,12.09-.106,5.5614,0,7.91.106Q195.7582,37.6695,195.7582,34.0679Z"></path></svg>