<svg xmlns="http://www.w3.org/2000/svg" id="a83dc289-c805-49c9-a9fa-976901667937" data-name="bedb8e95-167b-473a-8948-aa7aeb4d9d29" width="196" height="55" viewBox="0 0 196 55"><g id="a9183219-a793-4bb5-9df8-02cf2033ed33" data-name="e6efa8d1-6fdc-41fb-bfac-cf38f78a53ab"><g id="a9060cda-1313-4f72-bf05-8a078df79537" data-name="bb330d79-3acb-4382-857f-4d9196a0561e"><g id="ae50164a-e47e-42a5-9aff-e8a88512cc30" data-name="acc19fc7-0a5b-46eb-ade0-71334ffca968"><g id="b6b1018c-cbe1-49b5-a437-a9b2ac1a37a4" data-name="f19a1ca7-4862-4f6f-ac9c-c623fe056eb9"><rect id="b613b5a3-f887-440e-9ce6-b8a8fd0f70c1" data-name="b4985013-590e-48e2-9925-4bfd1d716aa4" width="196" height="55" style="fill:#d8d8d8;fill-opacity:0"></rect><rect x="26" y="16" width="7" height="21.9249"></rect><rect x="13" y="23.016" width="7" height="14.9089"></rect><rect y="29.155" width="7" height="8.77"></rect><path d="M64.1542,17.8527a14.0422,14.0422,0,0,0-12.3084,0,10.8068,10.8068,0,0,0-4.2879,3.9285A10.491,10.491,0,0,0,46,27.4323a10.4892,10.4892,0,0,0,1.5579,5.6511,10.805,10.805,0,0,0,4.2879,3.9286,14.0435,14.0435,0,0,0,12.3084,0,10.805,10.805,0,0,0,4.2879-3.9286A10.4892,10.4892,0,0,0,70,27.4323a10.491,10.491,0,0,0-1.5579-5.6511A10.8068,10.8068,0,0,0,64.1542,17.8527Zm-.9478,12.7146a5.5472,5.5472,0,0,1-2.1588,2.115,6.5669,6.5669,0,0,1-6.0952,0,5.5472,5.5472,0,0,1-2.1588-2.115,6.589,6.589,0,0,1,0-6.27,5.5472,5.5472,0,0,1,2.1588-2.115,6.5669,6.5669,0,0,1,6.0952,0,5.5472,5.5472,0,0,1,2.1588,2.115,6.589,6.589,0,0,1,0,6.27Z"></path><path d="M157.49,16.4323l-9.49,21h6.2039l1.6892-4.08h9.0909l1.6892,4.08H173l-9.5209-21Zm-.49,13,3-7,3,7Z"></path><polygon points="189.975 16.432 184.767 24.772 179.558 16.432 173 16.432 181.378 29.812 181.378 37.432 187.591 37.432 187.591 29.902 196 16.432 189.975 16.432"></polygon><polygon points="100 21.142 106.515 21.142 106.515 37.432 112.515 37.432 112.515 21.142 119 21.142 119 16.432 100 16.432 100 21.142"></polygon><path d="M142.4651,28.1773a7.1337,7.1337,0,0,0,1.1008-3.975,7.2239,7.2239,0,0,0-1.1783-4.125,7.5321,7.5321,0,0,0-3.3488-2.7,12.7433,12.7433,0,0,0-5.1163-.945H124v21h6.14v-5.58h3.3489l3.938,5.58H144l-4.6822-6.6A7.3746,7.3746,0,0,0,142.4651,28.1773Zm-5.3964-1.5206a4.233,4.233,0,0,1-2.764.7756H131v-6h3.3047a4.1779,4.1779,0,0,1,2.764.79A2.7574,2.7574,0,0,1,138,24.447a2.7143,2.7143,0,0,1-.9313,2.21Z"></path><path d="M83.9847,22.1439a6.2973,6.2973,0,0,1,3.1072-.7555,6.3738,6.3738,0,0,1,5.051,2.478L96,20.4213A10.1762,10.1762,0,0,0,92.0817,17.46a13.1221,13.1221,0,0,0-5.296-1.0275,12.8164,12.8164,0,0,0-6.0457,1.405A10.5471,10.5471,0,0,0,75,27.4323a10.5471,10.5471,0,0,0,5.74,9.5948,12.8159,12.8159,0,0,0,6.0459,1.4052,13.1221,13.1221,0,0,0,5.296-1.0275A10.1743,10.1743,0,0,0,96,34.4433l-3.8571-3.4451a6.3738,6.3738,0,0,1-5.051,2.4781,6.3,6.3,0,0,1-3.1072-.7555A5.2758,5.2758,0,0,1,81.8724,30.59a7.0234,7.0234,0,0,1,0-6.3159A5.2756,5.2756,0,0,1,83.9847,22.1439Z"></path></g></g></g></g></svg>