<svg xmlns="http://www.w3.org/2000/svg" id="a262c5d0-4eee-4465-a5f3-3721a35d4dc3" data-name="f206e93f-afa1-4527-bebe-b6b4d2316aa8" width="220" height="55" viewBox="0 0 220 55"><rect width="220" height="55" style="fill-opacity:0"></rect><rect x="28" y="5.5" width="2" height="44"></rect><rect x="64" y="5.5" width="2" height="44"></rect><rect x="100" y="5.5" width="2" height="44"></rect><rect x="140" y="5.5" width="2" height="44"></rect><rect x="176" y="5.5" width="2" height="44"></rect><polygon points="11.15 21.5 6.05 21.5 6.05 42.5 24.05 42.5 24.05 40.64 11.15 40.64 11.15 21.5"></polygon><polygon points="38.66 42.5 58.07 42.5 58.07 40.64 43.76 40.64 43.76 32.18 56.42 32.18 56.42 30.32 43.76 30.32 43.76 23.36 58.07 23.36 58.07 21.5 38.66 21.5 38.66 42.5"></polygon><path d="M91.5352,24.0947Q88.25,21.5,82.04,21.5h-9v21h9.18q6.1494,0,9.375-2.7754T94.82,31.64Q94.82,26.69,91.5352,24.0947ZM87.89,38.375a6.2534,6.2534,0,0,1-5.25,2.265h-4.5V23.36h4.5a6.4673,6.4673,0,0,1,5.2349,2.1142Q89.66,27.59,89.66,31.64,89.66,36.11,87.89,38.375Z"></path><path d="M122.66,23.09a6.9134,6.9134,0,0,1,4.4248,1.3653A6.4,6.4,0,0,1,129.3193,28.4h3.99a7.1045,7.1045,0,0,0-1.71-3.8252A9.1255,9.1255,0,0,0,127.88,22.1a15.031,15.031,0,0,0-5.3106-.8691A15.5724,15.5724,0,0,0,115.91,22.55a9.91,9.91,0,0,0-4.336,3.75,10.6145,10.6145,0,0,0-1.5141,5.73,10.6108,10.6108,0,0,0,1.5141,5.73,9.83,9.83,0,0,0,4.32,3.7353A15.476,15.476,0,0,0,122.48,42.8a20.0957,20.0957,0,0,0,5.9853-.87,11.07,11.07,0,0,0,4.3946-2.37V31.37H120.59v1.74h7.2v6.42a10.9811,10.9811,0,0,1-2.58,1.0947,10.6526,10.6526,0,0,1-2.7.3154,6.5338,6.5338,0,0,1-5.3555-2.37A10.107,10.107,0,0,1,115.22,32a9.93,9.93,0,0,1,1.9649-6.57A6.76,6.76,0,0,1,122.66,23.09Z"></path><polygon points="149.029 42.5 168.439 42.5 168.439 40.64 154.129 40.64 154.129 32.18 166.789 32.18 166.789 30.32 154.129 30.32 154.129 23.36 168.439 23.36 168.439 21.5 149.029 21.5 149.029 42.5"></polygon><polygon points="181.43 21.5 181.43 23.36 190.13 23.36 190.13 42.5 195.199 42.5 195.199 23.36 203.899 23.36 203.899 21.5 181.43 21.5"></polygon></svg>