<svg xmlns="http://www.w3.org/2000/svg" xmlns:xlink="http://www.w3.org/1999/xlink" width="245px" height="70px" viewBox="0 0 245 70"><title>Group 10</title><g id="Page-1" stroke="none" stroke-width="1" fill="none" fill-rule="evenodd"><g id="Donate-Computer-LP" transform="translate(-269.000000, -4270.000000)" fill-rule="nonzero"><g id="Group-10" transform="translate(269.000000, 4270.000000)"><path d="M17.6476781,41.1170141 C22.7936183,42.9239155 28.5104441,41.9179567 32.7285383,38.463317 C38.0106806,34.0346592 39.6667874,26.7384751 41.0143094,19.9825872 L45,0 L36.6555385,5.73948169 C30.6546977,9.86697649 24.518669,14.1267058 20.3637076,20.105181 C16.2087461,26.0836562 14.3951106,34.2448104 17.7334909,40.7138007" id="Path" fill="#E6E6E6"></path><path d="M19.2890383,65.5646391 C18.4615102,59.474538 17.6105958,53.3062102 18.191063,47.1508285 C18.7065811,41.6841895 20.3572891,36.3448187 23.7179268,31.9668974 C25.5017586,29.6475092 27.6723333,27.6602558 30.1320696,26.0944772 C30.7734862,25.6854269 31.3638367,26.7124538 30.7252132,27.1197192 C26.4691502,29.8373781 23.1772392,33.8503976 21.324101,38.5801889 C19.277349,43.8399478 18.9486709,49.5735231 19.3013778,55.1609038 C19.5146715,58.5397959 19.9667214,61.8965519 20.4222537,65.2489977 C20.4967674,65.5635834 20.3174141,65.8827336 20.0118527,65.9792858 C19.6991776,66.0644117 19.3769103,65.8795413 19.2890383,65.5646391 L19.2890383,65.5646391 Z" id="Path" fill="#F2F2F2"></path><path d="M53,56.9524186 C54.9838506,59.248066 58.0465618,60.3633873 61.0793637,59.8946112 C64.906447,59.2587422 67.7899868,56.2460217 70.3697061,53.4045401 L78,45 L72.3123244,45.4060547 C68.2220821,45.6980649 64.0285117,46.0153456 60.3070941,47.7036287 C56.5856764,49.3919117 53.3791223,52.7726128 53.1565893,56.7843322" id="Path" fill="#E6E6E6"></path><path d="M46.011068,68.5682258 C47.3475205,65.2692765 48.6948398,61.9241635 50.7452973,59.0106011 C52.5663237,56.4230493 54.911445,54.2364055 57.8255018,53.0395575 C59.3710103,52.4064856 61.0123276,52.054772 62.6756664,52.0002283 C63.1096319,51.9856314 63.1068778,52.6758298 62.674793,52.6903621 C59.7943205,52.7889499 57.0187843,53.8232686 54.7483558,55.6441921 C52.2304548,57.673309 50.4252251,60.4501723 48.9983245,63.3560872 C48.1354413,65.1134001 47.3968029,66.930513 46.6611192,68.746504 C46.6077699,68.9263471 46.4277473,69.0330885 46.2491864,68.9907527 C46.0703857,68.940578 45.9642176,68.7521902 46.0110641,68.5682218 L46.011068,68.5682258 Z" id="Path" fill="#F2F2F2"></path><path d="M27,54.006 C29.1828643,57.2415282 32.9385055,59.1319237 36.9072989,58.9928217 C41.9225478,58.7606363 46.1036611,55.3469469 49.8674535,52.1060583 L61,42.5201516 L53.6321159,42.1762814 C48.33356,41.9289868 42.8983052,41.698317 37.851612,43.2918494 C32.8049188,44.8853819 28.1505951,48.7204472 27.2277773,53.8148852" id="Path" fill="#E6E6E6"></path><path d="M16.0789142,68.2078903 C20.1422857,61.1526247 24.8554383,53.3115021 33.2770593,50.8053606 C35.6186891,50.1108788 38.074035,49.8621024 40.5108719,50.0724285 C41.2788887,50.137412 41.0871083,51.2991192 40.3204862,51.2342572 C36.2358145,50.9014665 32.1590233,51.9598432 28.7764601,54.2312044 C25.5214804,56.4052952 22.9871249,59.4278656 20.842069,62.6331593 C19.528156,64.5964997 18.3512376,66.6431332 17.1740955,68.6870216 C16.7979039,69.3402017 15.6983307,68.8686978 16.0789142,68.2078824 L16.0789142,68.2078903 Z" id="Path" fill="#F2F2F2"></path><path d="M244.676781,70 L0.323218997,70 C0.144710074,70 0,69.7761424 0,69.5 C0,69.2238576 0.144710074,69 0.323218997,69 L244.676781,69 C244.85529,69 245,69.2238576 245,69.5 C245,69.7761424 244.85529,70 244.676781,70 Z" id="Path" fill="#CCCCCC"></path></g></g></g></svg>