<svg xmlns="http://www.w3.org/2000/svg" id="b5d2dc20-8b34-475b-b718-bf784a5aee9c" data-name="ae0aeec8-9acc-4b0d-aae7-e0f18e3fdb04" width="196" height="55" viewBox="0 0 196 55"><rect width="196" height="55" style="fill:#fff;fill-opacity:0"></rect><rect x="16.5" y="24" width="33" height="6"></rect><rect x="16.5" y="36" width="33" height="6"></rect><rect x="16.5" y="12" width="33" height="6"></rect><polygon points="142.5 18.258 146.298 18.258 146.298 42.495 152.702 42.495 152.702 18.258 156.5 18.258 156.5 12.495 142.5 12.495 142.5 18.258"></polygon><polygon points="173.436 12.495 173.436 23.217 170.564 23.217 170.564 12.495 164.5 12.495 164.5 42.495 170.564 42.495 170.564 28.875 173.436 28.875 173.436 42.495 179.5 42.495 179.5 12.495 173.436 12.495"></polygon><path d="M70.8214,24.8582A9.4876,9.4876,0,0,0,71.5,20.8768a20.3323,20.3323,0,0,0-.4286-4.5925A4.9257,4.9257,0,0,0,69.4107,13.49a5.4091,5.4091,0,0,0-3.4821-.995H56.5v30h6.2143V28.805a3.3852,3.3852,0,0,1,1.8214.3492q.5.3492.5,1.6065V42.495h6l.0714-11.35a5.8671,5.8671,0,0,0-.625-2.9337,2.8387,2.8387,0,0,0-2.0178-1.362A3.7871,3.7871,0,0,0,70.8214,24.8582Zm-6.724-1.3632H62.5v-5h1.5585a1.6344,1.6344,0,0,1,.896.2044,1.121,1.121,0,0,1,.4286.739A8.1069,8.1069,0,0,1,65.5,21.0422Q65.5,23.495,64.0974,23.495Z"></path><polygon points="85.908 29.783 91.841 29.783 91.841 24.125 85.908 24.125 85.908 18.292 92.097 18.292 92.097 12.495 79.5 12.495 79.5 42.495 92.5 42.495 92.5 36.663 85.908 36.663 85.908 29.783"></polygon><path d="M103.4123,12.495l-2.9123,30h5.86l.3508-4.8545H110.36l.421,4.8545H116.5l-2.8772-30Zm3.0877,19,.82-16h.2051l.9744,16Z"></path><polygon points="130.907 12.495 124.5 12.495 124.5 42.495 137.5 42.495 137.5 37.396 130.907 37.396 130.907 12.495"></polygon></svg>