<svg xmlns="http://www.w3.org/2000/svg" id="f3b4ed8e-2429-4c2b-b3c6-f828f38df6d5" data-name="b0288233-f4ad-414f-899d-deb759d3818e" width="196" height="55" viewBox="0 0 196 55"><rect width="196" height="55" style="fill-opacity:0"></rect><polygon points="82.775 12.28 82.775 42.345 94.99 42.345 94.99 37.235 88.795 37.235 88.795 12.28 82.775 12.28" style="fill-rule:evenodd"></polygon><polygon points="80.595 18.09 80.595 12.28 68.555 12.28 68.555 42.345 80.98 42.345 80.98 36.5 74.68 36.5 74.68 29.605 80.35 29.605 80.35 23.935 74.68 23.935 74.68 18.09 80.595 18.09" style="fill-rule:evenodd"></polygon><path d="M64.8,40.105q1.575-2.24,1.54-6.685l-.07-14.07a7.78,7.78,0,0,0-1.645-5.285,6.177,6.177,0,0,0-4.83-1.785H51.5V42.345h8.085Q63.2251,42.345,64.8,40.105Zm-7.245-3.08V17.53h.665a3.5756,3.5756,0,0,1,1.295.175,1.0128,1.0128,0,0,1,.5775.6825A5.4933,5.4933,0,0,1,60.25,19.91V35.415a1.4386,1.4386,0,0,1-1.645,1.61Z" style="fill-rule:evenodd"></path><polygon points="139.365 42.345 139.365 32.44 144.16 12.28 138.21 12.28 136.53 22.465 134.85 12.28 128.9 12.28 133.695 32.44 133.695 42.345 139.365 42.345" style="fill-rule:evenodd"></polygon><path d="M103.645,42.625a6.882,6.882,0,0,0,5.53-2.205,9.3472,9.3472,0,0,0,1.89-6.265V19.84q0-3.885-1.89-5.8625a8.7209,8.7209,0,0,0-11.06,0q-1.89,1.9775-1.89,5.8625V34.155a9.36,9.36,0,0,0,1.89,6.2475A6.8549,6.8549,0,0,0,103.645,42.625Zm-1.47-22.82q0-2.2751,1.505-2.275a1.0418,1.0418,0,0,1,1.0675.6125,4.0873,4.0873,0,0,1,.2625,1.5925v14.7a5.4511,5.4511,0,0,1-.28,1.96,1.0639,1.0639,0,0,1-1.085.7,1.1622,1.1622,0,0,1-1.155-.665,4.7482,4.7482,0,0,1-.315-1.96Z" style="fill-rule:evenodd"></path><path d="M127.945,22.5a22.4417,22.4417,0,0,0-.63-5.845,6.12,6.12,0,0,0-2.275-3.465A7.7749,7.7749,0,0,0,120.42,12a6.931,6.931,0,0,0-5.53,2.135q-1.855,2.1349-1.855,6.3v12.95q0,4.655,1.5925,6.9475a5.5028,5.5028,0,0,0,4.8475,2.2925,5.3443,5.3443,0,0,0,4.97-2.8l1.015,2.52h2.415v-17.5h-7.35v5.18h1.61V34.33a4.77,4.77,0,0,1-.35,2.065,1.4219,1.4219,0,0,1-2.45,0,4.77,4.77,0,0,1-.35-2.065V19.77q0-2.24,1.715-2.24a1.0876,1.0876,0,0,1,1.0675.595,3.8352,3.8352,0,0,1,.2975,1.68V22.5Z" style="fill-rule:evenodd"></path><rect x="51.5" width="93" height="5"></rect><rect x="51.5" y="50" width="93" height="5"></rect></svg>