<svg xmlns="http://www.w3.org/2000/svg" id="af2e9ab8-ba97-4a5a-963a-bdd9e903a341" data-name="Layer 1" width="229.02" height="55" viewBox="0 0 229.02 55"><rect width="229.02" height="55" style="fill:#fff;opacity:0"></rect><polygon points="59.72 39.12 49.51 16.3 47.51 16.3 58.75 41.5 60.58 41.5 71.81 16.3 69.91 16.3 59.72 39.12"></polygon><polygon points="80.6 29.51 94 29.51 94 27.89 80.61 27.89 80.61 17.95 95.61 17.95 95.61 16.3 78.76 16.3 78.76 41.5 96.15 41.5 96.15 39.84 80.6 39.84 80.6 29.51"></polygon><polygon points="124.41 38.18 107.27 16.3 105.72 16.3 105.72 41.5 107.56 41.5 107.56 19.61 124.73 41.5 126.24 41.5 126.24 16.3 124.41 16.3 124.41 38.18"></polygon><path d="M155.43,17.83A17.12,17.12,0,0,0,148,16.3H135.57V41.5H148a17.1189,17.1189,0,0,0,7.43-1.53,11.64,11.64,0,0,0,5-4.38,12.38,12.38,0,0,0,1.78-6.69,12.44,12.44,0,0,0-1.78-6.7A11.69,11.69,0,0,0,155.43,17.83ZM152,33.31a6.07,6.07,0,0,1-4.37,1.56l-3.57.05v-12h3.57A6,6,0,0,1,152,24.49a5.81,5.81,0,0,1,1.64,4.41A5.84,5.84,0,0,1,152,33.31Z"></path><path d="M188.7,17.41a16.63,16.63,0,0,0-14.61,0,12.6,12.6,0,0,0-6.91,11.49,12.6,12.6,0,0,0,6.91,11.48,16.63,16.63,0,0,0,14.61,0,12.63,12.63,0,0,0,6.92-11.48A12.63,12.63,0,0,0,188.7,17.41Zm-2.44,14.78a5.45,5.45,0,0,1-2,2.19v.04a5.5275,5.5275,0,0,1-7.73-2.23,7.0516,7.0516,0,0,1-.76-3.33,7,7,0,0,1,.76-3.33,5.5407,5.5407,0,0,1,2-2.2,5.72,5.72,0,0,1,5.73,0,5.5392,5.5392,0,0,1,2,2.2,6.91,6.91,0,0,1,.76,3.33A6.94,6.94,0,0,1,186.26,32.19Z"></path><path d="M222.11,17.41a16.63,16.63,0,0,0-14.61,0,12.63,12.63,0,0,0-6.92,11.49,12.63,12.63,0,0,0,6.92,11.48h-.02a16.63,16.63,0,0,0,14.61,0A12.6,12.6,0,0,0,229,28.9,12.6,12.6,0,0,0,222.11,17.41Zm-2.44,14.78a5.45,5.45,0,0,1-2,2.19l-.03-.03a5.65,5.65,0,0,1-5.73,0,5.45,5.45,0,0,1-2-2.19,6.9391,6.9391,0,0,1-.76-3.33,6.91,6.91,0,0,1,.76-3.33,5.5407,5.5407,0,0,1,2-2.2,5.47,5.47,0,0,1,2.86-.77,5.36,5.36,0,0,1,4.9,3,7,7,0,0,1,.76,3.33A7.0516,7.0516,0,0,1,219.67,32.19Z"></path><path d="M26.64,11.18H0V37.82H6.86v6H33.5V17.18H26.64ZM1.5,36.32V12.68H25.14v4.5H6.86V36.32ZM32,18.68V42.32H8.36V18.68H32Z"></path></svg>