<svg xmlns="http://www.w3.org/2000/svg" id="a5dc512d-af3a-415c-a9fd-50bc72741505" data-name="Layer 1" width="288.5" height="201.5" viewBox="0 0 288.5 201.5"><g id="bf2217db-1d99-407f-bac9-2002d7607268" data-name="Page-1"><g id="af097f36-1935-4409-a972-7704d06819f3" data-name="Donate-Computer-LP"><g id="f7c93405-d74b-4f76-a6f0-3ad95dbf131c" data-name="Group-9"><g id="acda4e47-a58f-465b-a1a6-69175f51767b" data-name="Group-16"><rect id="bf14faf6-4206-42c0-a593-8822f82e650a" data-name="Rectangle" x="122" y="95" width="166" height="106" style="fill:none;stroke:#3f3d56"></rect><rect id="b1001a60-0c50-412a-8a57-afda606fedb4" data-name="Rectangle" x="138" y="106" width="135" height="83" style="fill:#fff"></rect><rect id="bb06c276-ce5b-4bc3-89d0-5929cccb380f" data-name="Rectangle" x="138" y="123" width="135" height="5" style="fill:#e6e6e6"></rect><rect id="b78a7f97-6f9b-4da9-bb15-b73e346cbdd1" data-name="Rectangle" x="138" y="147" width="135" height="5" style="fill:#e6e6e6"></rect><rect id="bb58e451-cb03-4833-bea8-aa168461538e" data-name="Rectangle" x="162" y="134" width="51" height="5" style="fill:#e6e6e6"></rect><rect id="a59f3f33-aa45-4e6c-9b3f-18575806c6db" data-name="Rectangle" x="138" y="174" width="125" height="5" style="fill:#e6e6e6"></rect><rect id="eec8c574-af2d-499e-9d21-abb387f75a3f" data-name="Rectangle" x="161" y="106" width="5" height="70" style="fill:#e6e6e6"></rect><rect id="a1fdc66d-2c1b-46cd-98e7-e96320ed7feb" data-name="Rectangle" x="249" y="106" width="5" height="73" style="fill:#e6e6e6"></rect><rect id="ac23a3b7-8998-4b25-8a5c-423c18d784f6" data-name="Rectangle" x="210" y="106" width="5" height="83" style="fill:#e6e6e6"></rect><rect id="aed30100-1e3f-40cb-a58b-0b5efc10e058" data-name="Rectangle" x="181" y="148" width="5" height="42" style="fill:#e6e6e6"></rect></g><g id="ed7a9507-3352-436d-948a-2c39dd9a58e4" data-name="Group-17"><polygon points="45.884 85.41 45.882 85.35 45.877 85.229 26.59 83 0 87.459 0 114.771 21.721 116.944 22.283 117 47 111.984 45.884 85.41"></polygon><polygon id="b046e358-c247-4c42-9423-2852601db448" data-name="Path" points="47 111.928 22.556 117 22 116.944 22 88.635 45.894 85 47 111.928" style="fill:#dc9111"></polygon><polygon id="b68a4db5-2d81-4b41-8006-d7865a2d52bb" data-name="Path" points="46 85.432 45.992 85.438 21.776 89 0 87.5 26.657 83 45.992 85.25 45.998 85.372 46 85.432" style="fill:#e99912"></polygon><polygon id="be154707-ac2c-4f6e-9d76-e7fc3708091e" data-name="Path" points="49.283 118 48.721 117.944 27 115.77 27 88.459 53.59 84 72.876 86.23 72.882 86.35 72.884 86.41 74 112.984 49.283 118" style="fill:#3f3d56"></polygon><polygon id="a3f66be6-5d89-4d1b-906c-cc48e46da62e" data-name="Path" points="74 112.928 49.556 118 49 117.944 49 89.635 72.894 86 74 112.928" style="fill:#38364d"></polygon><polygon id="f94e5dac-5d23-426e-baed-9c91938202a9" data-name="Path" points="73 86.432 72.992 86.438 48.776 90 27 88.5 53.657 84 72.992 86.25 72.998 86.372 73 86.432" style="fill:#3b3951"></polygon><polygon id="b1db0c1c-a4b4-4412-aa28-05e09365ae36" data-name="Path" points="57 86.836 32.283 92 31.721 91.943 10 89.705 10 61.59 36.59 57 55.876 59.295 55.882 59.419 55.884 59.481 57 86.836" style="fill:#3f3d56"></polygon><polygon id="a63d05ae-6c1b-4a38-86f0-bba1d059eac1" data-name="Path" points="57 86.928 32.556 92 32 91.944 32 63.635 55.894 60 57 86.928" style="fill:#38364d"></polygon><polygon id="a3501889-5409-4c7c-8431-88f088c6e6bf" data-name="Path" points="56 59.837 55.992 59.844 31.776 64 10 62.25 36.657 57 55.992 59.625 55.998 59.767 56 59.837" style="fill:#3b3951"></polygon><polygon id="bb7fd9bd-5abb-42c1-98c7-f00903e7507a" data-name="Path" points="37 60.345 24.379 63 24.091 62.972 13 61.82 13 47.361 26.577 45 36.427 46.182 36.43 46.246 36.43 46.276 37 60.345" style="fill:#3f3d56"></polygon><polygon id="b318b1d2-925e-4fde-8fc1-31999f66cf92" data-name="Path" points="37 59.464 23.312 62 23 61.973 23 47.818 36.382 46 37 59.464" style="fill:#38364d"></polygon><polygon id="e10dcbf9-06a9-45f3-835f-2fe9a87e8e89" data-name="Path" points="36 46.215 35.996 46.219 23.361 48 12 47.25 25.908 45 35.996 46.126 36 46.187 36 46.215" style="fill:#3b3951"></polygon><polygon points="58.43 45.276 58.43 45.246 58.427 45.182 48.577 44 35 46.361 35 60.82 46.091 61.972 46.379 62 59 59.345 58.43 45.276"></polygon><polygon id="be402cbe-282e-4b5d-9d14-e2f2c58dde3c" data-name="Path" points="46.29 62 46 61.973 46 47.818 58.426 46 59 59.464 46.29 62" style="fill:#dc9111"></polygon><polygon id="ae51862a-b2df-4794-b984-23607f6fcfa9" data-name="Path" points="45.361 47 34 46.25 47.908 44 57.996 45.126 58 45.187 58 45.215 45.361 47" style="fill:#e99912"></polygon><polygon id="fd172c5e-2ac9-45a8-b6c6-9bcfbcc506ed" data-name="Path" points="66 44.345 53.379 47 53.091 46.972 42 45.82 42 31.361 55.577 29 65.427 30.182 65.43 30.246 65.43 30.276 66 44.345" style="fill:#3f3d56"></polygon><polygon id="acb1d024-a1a6-4ee3-a5c5-957c1b566915" data-name="Path" points="66 44.464 53.29 47 53 46.973 53 32.818 65.426 31 66 44.464" style="fill:#38364d"></polygon><polygon id="bddbd464-17fe-433d-ab51-0d5fbd898aad" data-name="Path" points="65 30.621 64.996 30.625 52.361 33 41 31.999 54.908 29 64.996 30.501 65 30.582 65 30.621" style="fill:#3b3951"></polygon><path id="a4429899-fb61-4926-94b3-291d21bd6940" data-name="Path" d="M74.7461,15.8235c-.1312,1.2213-1.022,2.2058-1.3525,3.382a5.7856,5.7856,0,0,0,1.5375,5.0731,10.5528,10.5528,0,0,0,7.4754,3.709,3.0826,3.0826,0,0,0,1.2357-.1409,2.6831,2.6831,0,0,0,.9394-.6727A6.4151,6.4151,0,0,0,86.13,23.6586a19.66,19.66,0,0,0,.0431-3.9289,2.3121,2.3121,0,0,0-.14-.7929,1.9977,1.9977,0,0,0-.4867-.6256A11.351,11.351,0,0,0,83.4536,16.72a2.3664,2.3664,0,0,1-.8765-.7008,2.3673,2.3673,0,0,1-.2712-.84l-.2317-1.2326a2.4886,2.4886,0,0,0-.34-1,2.29,2.29,0,0,0-1.8733-.682l-2.5146-.1034a11.5034,11.5034,0,0,0-2.572-.1052c-.7184.1485-.476.8361-.3467,1.46a11.0153,11.0153,0,0,1,.318,2.3074Z" transform="translate(-0.25 0)" style="fill:#ffc0c6"></path><path id="a38bfcb8-dbb5-434c-b4e0-9e91913e9c5e" data-name="Path" d="M74.7461,15.8235c-.1312,1.2213-1.022,2.2058-1.3525,3.382a5.7856,5.7856,0,0,0,1.5375,5.0731,10.5528,10.5528,0,0,0,7.4754,3.709,3.0826,3.0826,0,0,0,1.2357-.1409,2.6831,2.6831,0,0,0,.9394-.6727A6.4151,6.4151,0,0,0,86.13,23.6586a19.66,19.66,0,0,0,.0431-3.9289,2.3121,2.3121,0,0,0-.14-.7929,1.9977,1.9977,0,0,0-.4867-.6256A11.351,11.351,0,0,0,83.4536,16.72a2.3664,2.3664,0,0,1-.8765-.7008,2.3673,2.3673,0,0,1-.2712-.84l-.2317-1.2326a2.4886,2.4886,0,0,0-.34-1,2.29,2.29,0,0,0-1.8733-.682l-2.5146-.1034a11.5034,11.5034,0,0,0-2.572-.1052c-.7184.1485-.476.8361-.3467,1.46a11.0153,11.0153,0,0,1,.318,2.3074Z" transform="translate(-0.25 0)" style="opacity:0.10000000149011612;isolation:isolate"></path><path id="af8d2397-9bd4-4af0-aefd-ed233afa59d9" data-name="Path" d="M92.0924,70.092,90.9605,82.4113c-.2954,3.2312-.5965,6.4756-1.1757,9.6652-.1906,1.0991-.4345,2.1926-.7127,3.2765-.7737,3.01-1.896,5.9516-2.2581,9.0371-.0114.0889-.0209.1892-.03.27a8.0488,8.0488,0,0,1-.3811,2.0053c-.1905.4711-.4592.9005-.6555,1.3659a8.8926,8.8926,0,0,0-.49,2.9682,12.9523,12.9523,0,0,0-4.438-1.5134,3.3014,3.3014,0,0,1-2.0961-.7567,2.9538,2.9538,0,0,1-.41-2.3894q.45-3.8592.8956-7.7147a19.9685,19.9685,0,0,1,.5717-3.2765c.1029-.3576.2267-.71.3525-1.0613.1734-.4843.3487-.9686.48-1.4662a17.5506,17.5506,0,0,0,.3773-2.4271c.3068-2.588.6764-5.17,1-7.7563l.0171-.1363a78.7409,78.7409,0,0,0,.7489-11.8066c-.0152-.5846-.04-1.1691-.0781-1.7556-.0534-.8494-.1315-1.3.5717-1.8312a13.3608,13.3608,0,0,1,2.71-1.381c.4821-.2081,5.791-2.081,5.9072-1.6686a10.2,10.2,0,0,1,.3811,2.69,29.7125,29.7125,0,0,1-.1562,3.3428Z" transform="translate(-0.25 0)" style="fill:#605d82"></path><path id="ae51099b-84f8-4a13-a949-eda22f7494ce" data-name="Path" d="M89.25,91.5059c-.197,1.0912-.4493,2.1768-.7369,3.2531-.8,2.9883-1.9606,5.909-2.335,8.9724-.0118.0883-.0217.1878-.0315.2686-2.4473-3.332-4.5084-6.9157-6.8966-10.2834.1793-.4809.3606-.9617.4966-1.4557a16.7813,16.7813,0,0,0,.41-2.4248c.3172-2.57.7-5.1333,1.0345-7.7009L81.2086,82A7.7328,7.7328,0,0,0,81.8,83.58c1.6039,3.1066,5.4147,4.6769,7.2788,7.65Q89.1712,91.3688,89.25,91.5059Z" transform="translate(-0.25 0)" style="opacity:0.10000000149011612;isolation:isolate"></path><path id="aacf1d22-b967-4fd1-9aa1-623bfa2ba1d7" data-name="Path" d="M70.26,65.0829a58.4015,58.4015,0,0,0,.8586,7.4l.8068,5.0568a26.2044,26.2044,0,0,0,2.1953,8.08,37.2811,37.2811,0,0,0,3.6207,5.1073c3.0982,4.0942,5.4264,8.7333,8.3639,12.9473.8549,1.2248,2.0753,2.5508,3.5321,2.2942a5.7049,5.7049,0,0,0,2.4-1.5975,14.9786,14.9786,0,0,0,2.6513-2.1932c.698-.9214.8346-2.45-.1107-3.1052a5.062,5.062,0,0,0-1.082-.45,5.9137,5.9137,0,0,1-3.0151-3.4836A33.4628,33.4628,0,0,0,88.7088,90.73c-1.7466-2.9648-5.3193-4.53-6.8222-7.63a13.9463,13.9463,0,0,1-.9859-5.6692l-.1643-4.9276a3.6364,3.6364,0,0,1,.1846-1.5919c.5742-1.311,2.31-1.4346,3.7167-1.6013a12.5674,12.5674,0,0,0,4.5549-1.4571,4.7475,4.7475,0,0,0,2.031-1.8336,5.9641,5.9641,0,0,0,.4948-2.4815l.4874-8.9318a5.709,5.709,0,0,0-.1846-2.283c-.67-1.8092-2.9228-2.4011-4.8264-2.3149-3.5412.161-6.8092,1.7062-10.1548,2.7512a25.646,25.646,0,0,1-2.5166.6649,20.1245,20.1245,0,0,0-2.3707.3334c-1.27.4345-1.2389,3.255-1.418,4.4237a37.6718,37.6718,0,0,0-.4745,6.9016Z" transform="translate(-0.25 0)" style="fill:#605d82"></path><path id="b7e5b800-ae79-4304-9aa6-39892f8286f2" data-name="Path" d="M89.9364,105.9434a2.4509,2.4509,0,0,1,.4817,1.2665,46.247,46.247,0,0,1,.683,7.6553,1.3474,1.3474,0,0,0,.1276.694.8394.8394,0,0,0,.3361.2892c.879.4492,1.8981-.1774,2.6314-.8656a7.4194,7.4194,0,0,0,2.5828-4.92,12.1607,12.1607,0,0,1,.0485-1.4922,6.4273,6.4273,0,0,1,.8646-1.9991,17.6126,17.6126,0,0,0,1.4379-3.4353c.133-.4511.2228-1.0179-.1079-1.3321a1.1313,1.1313,0,0,0-.39-.2179L94.66,100.0057c-.3451-.1368-1.2006,2.2209-1.3354,2.4792a1.8485,1.8485,0,0,1-1.33,1.1335c-.6668.1465-1.49-.0655-2.1263.2988C88.79,104.5322,89.3271,105.286,89.9364,105.9434Z" transform="translate(-0.25 0)" style="fill:#535070"></path><path id="f6c71ed1-eeb8-4dce-9d01-954868c4ebed" data-name="Path" d="M83.9163,106.68a1.2087,1.2087,0,0,0-.312-.38,1.437,1.437,0,0,0-.63-.2053,2.5353,2.5353,0,0,0-2.2458.3463c-.5053.5228-.418,1.3741-.84,1.963a6.1428,6.1428,0,0,0-.4309.5354,1.94,1.94,0,0,0-.1858.96c-.0223.9084-.0446,1.82.0223,2.727a3.7005,3.7005,0,0,0,.6817,2.154c.7951.9565,2.2292,1.094,3.5,1.1546l1.031.0518a2.1225,2.1225,0,0,0,.8433-.075,1.35,1.35,0,0,0,.7282-.7691c.5369-1.2814-.3121-2.6609-.8359-3.9458C84.6389,109.7173,84.7467,108.0772,83.9163,106.68Z" transform="translate(-0.25 0)" style="fill:#535070"></path><path id="bd513c2f-0634-492b-ba2d-a17660822cf7" data-name="Path" d="M74.8173,8.6574a.6964.6964,0,0,1,.0582-.3618c.1521-.2418.55-.1691.8508-.1082a22.0464,22.0464,0,0,0,3.7264.09c1.2453.0642,2.6464.6239,2.8962,1.723A8.6243,8.6243,0,0,0,84.646,7.8762a2.3905,2.3905,0,0,0,.5991-1.5556c-.0676-.8049-.817-1.4068-1.5025-1.9175L81.6765,2.8813a3.2007,3.2007,0,0,0-.9278-.5309,5.1172,5.1172,0,0,0-1.5026-.0761c-1.5026,0-3.1141-.6172-4.4532,0a4.6129,4.6129,0,0,0-1.388,1.1363L71.5586,5.3788a1.0333,1.0333,0,0,0-.2968.4515,1.8077,1.8077,0,0,0,.1334.7186c.0864.44-.124.91.0375,1.3324.2686.7,1.2152.8,1.7937,1.2022.2142.1488.5522.6578.8095.651C74.4886,9.7261,74.8041,8.9821,74.8173,8.6574Z" transform="translate(-0.25 0)" style="fill:#3f3d56"></path><ellipse id="f19a48b3-35c0-414b-8d2b-3261ba81be0a" data-name="Oval" cx="77.5" cy="10" rx="5.5" ry="6" style="fill:#ffc0c6"></ellipse><path id="e9c61fe3-1ab5-44c4-ba07-3f1db44a690a" data-name="Path" d="M78.8578,22.22a2.7419,2.7419,0,0,0-2.6584-1.8749.7827.7827,0,0,1-.4918-.0642.6917.6917,0,0,1-.2028-.2568,10.3454,10.3454,0,0,1-.8239-1.9923c-.09-.3064-.2136-.6678-.517-.7467a.6878.6878,0,0,0-.657.2935,6.3918,6.3918,0,0,1-.47.6036c-.718.6494-1.9745.0569-2.7266.6531-.1239.0972-.2262.222-.359.3119a1.6182,1.6182,0,0,1-.4147.1834A39.2257,39.2257,0,0,0,65.25,21.0418a41.9116,41.9116,0,0,0,2.1935,9.1267c.56,1.3759,1.1936,2.7243,1.6424,4.1424a32.8415,32.8415,0,0,1,1.05,9.8091,21.0029,21.0029,0,0,1-.718,6.707,6.6019,6.6019,0,0,0-.4039,1.4676,1.5441,1.5441,0,0,0,.5062,1.3722,1.6836,1.6836,0,0,0,.7808.2807,9.9376,9.9376,0,0,0,3.71-.44,97.8926,97.8926,0,0,1,9.9407-1.651l5.5824-.7338A3.21,3.21,0,0,0,90.69,50.816a2.2916,2.2916,0,0,0,.4829-3.1389c-.3033-.4788-.7324-.8714-.989-1.3777a1.3008,1.3008,0,0,1,.1633-1.5685c.8975-.7155.6283-2.0418.6713-3.2012q.18-4.8651-.0484-9.723a19.4331,19.4331,0,0,1-.0323-2.0179,18.1553,18.1553,0,0,1,.6156-3.3682L93.25,19.5962A3.4761,3.4761,0,0,0,91.1553,18.22c-.8024-.2054-1.6407-.266-2.4323-.5173-1.6154-.5137-3.0658-1.8162-4.7585-1.6951a.8556.8556,0,0,0-.37.0917c-.3806.222-.3213.7834-.3447,1.231a3.4111,3.4111,0,0,1-1.5544,2.4014,28.03,28.03,0,0,0-2.4107,1.6657A1.1077,1.1077,0,0,0,78.8578,22.22Z" transform="translate(-0.25 0)" style="fill:#3f3d56"></path><path id="a4a6ab7c-601d-4e99-a06a-b7b9db5a00a4" data-name="Path" d="M55.4046,29.1025a7.1121,7.1121,0,0,1-1.2473.6117,4.2351,4.2351,0,0,0-1.1965.5524,1.8246,1.8246,0,0,0-.4164.49,2.0863,2.0863,0,0,0,.0475,2.2129,2.3193,2.3193,0,0,0,2.0591,1.0281,4.765,4.765,0,0,0,1.5582-.443L60.3958,31.82a3.2753,3.2753,0,0,0,1.8089-1.2967.3.3,0,0,0,.0414-.2063.3461.3461,0,0,0-.1733-.1794,9.2055,9.2055,0,0,1-2.4363-2.1881c-.1714-.2224-.3768-.7462-.6255-.8807C58.1254,26.6005,56.115,28.6649,55.4046,29.1025Z" transform="translate(-0.25 0)" style="fill:#ffc0c6"></path><path id="fa05e686-37c5-4c7a-87d4-61e9e538dc50" data-name="Path" d="M100.3825,27l1.5649,1.7671c.3363.3776.6726.7552.9784,1.163a13.4826,13.4826,0,0,1,1.7923,3.3361,5.7718,5.7718,0,0,1,.5044,2.7583,6.7282,6.7282,0,0,1-.3917,1.4028,17.2312,17.2312,0,0,1-1.0643,2.53,14.3958,14.3958,0,0,1-1.19,1.769,41.5189,41.5189,0,0,1-3.9687,4.484,5.0179,5.0179,0,0,0-.9918,2.0768,8.6862,8.6862,0,0,1-2.44,3.285,6.7029,6.7029,0,0,1-1.0491.8912,3.4316,3.4316,0,0,1-1.9108.5362,2.1249,2.1249,0,0,1-.8579-.1756,2.189,2.189,0,0,1-1.0911-1.8257,3.8673,3.8673,0,0,1,.3287-1.956c.898-1.9653,3.2044-2.8168,4.8343-4.2517a15.6272,15.6272,0,0,0,2.41-2.9414A10.1768,10.1768,0,0,0,99.0564,39.74c.363-.961.2216-2.0976.5407-3.0718.1338-.4134.3822-.7854.5179-1.1951a1.4006,1.4006,0,0,0-.0726-1.2479,1.8238,1.8238,0,0,0-.7089-.5135c-1.0414-.5211-2.207-1.1932-2.4057-2.3317a2.4736,2.4736,0,0,1,.4662-1.78A7.4041,7.4041,0,0,1,98.7067,28.24C99.16,27.8364,99.9258,27.3889,100.3825,27Z" transform="translate(-0.25 0)" style="fill:#ffc0c6"></path><path id="a92df03f-8969-4fe0-ac21-b266cf91c961" data-name="Path" d="M54.6871,31.5438a2.777,2.777,0,0,0-1.0493-1.37,1.776,1.776,0,0,0-1.53,0,5.728,5.728,0,0,0-1.34.8876l-1.2006.9715a3.0811,3.0811,0,0,0-.7125.7216,3.1935,3.1935,0,0,0-.3707,1.1189,8.8858,8.8858,0,0,0-.1888,2.7616A8.1218,8.1218,0,0,0,50.1993,40.55a3.1592,3.1592,0,0,0,2.1087,1.4489.9457.9457,0,0,0,.9319-.5147,1.38,1.38,0,0,0,.0833-.4587,11.0191,11.0191,0,0,0-1.0781-4.7811,3.1738,3.1738,0,0,1-.34-1.2848.3728.3728,0,0,1,.051-.2163.32.32,0,0,1,.2041-.11c.8621-.1865,2.3484.5482,2.9521-.5016C55.5033,33.4384,54.966,32.1611,54.6871,31.5438Z" transform="translate(-0.25 0)" style="fill:#ffc0c6"></path><path id="f3c823cd-1995-4161-a0de-8ffe0fc57b98" data-name="Path" d="M74.814,7.49a.8966.8966,0,0,1,.06-.4071c.1522-.2739.55-.19.851-.1217a19.6147,19.6147,0,0,0,3.7268.1008c1.2455.0723,2.6449.7019,2.8966,1.9384a9.1794,9.1794,0,0,0,2.2974-2.3892,2.9,2.9,0,0,0,.5992-1.752,3.4362,3.4362,0,0,0-1.5027-2.1553L81.676.9915A3.1253,3.1253,0,0,0,80.75.3942,4.5637,4.5637,0,0,0,79.2472.3086c-1.5028,0-3.1145-.6943-4.4539,0a4.7744,4.7744,0,0,0-1.3881,1.2783L71.5567,3.8011a1.1893,1.1893,0,0,0-.2949.5079,2.2618,2.2618,0,0,0,.1334.8085c.0864.4946-.124,1.0234.0376,1.4971.2686.7894,1.2153.9016,1.7939,1.3544.2141.1674.5523.74.81.7323C74.4815,8.6918,74.7971,7.8548,74.814,7.49Z" transform="translate(-0.25 0)" style="fill:#3f3d56"></path><path id="a4f77605-2a90-4537-97d6-49454ed7b045" data-name="Path" d="M61.5135,22.8849a2.4634,2.4634,0,0,0-.6387.5527c-.2226.3151-.2691.72-.4607,1.0443-.41.7094-1.3723.9632-1.97,1.5448a.5685.5685,0,0,0-.1935.3024.6391.6391,0,0,0,.1606.4358l2.8917,4.2274c.9678.0792,1.8852-.4825,2.8491-.4069a3.0832,3.0832,0,0,0,1.0723.0432,3.1628,3.1628,0,0,0,.6871-.3907c.5807-.3385,1.3394-.3781,1.8214-.8228a2.1558,2.1558,0,0,0,.5168-1.705,6.2826,6.2826,0,0,0-.1723-1.5664c-.4258-1.62-1.7594-2.87-2.5956-4.3067-.4084-.7-.629-1.1091-1.49-.6284S62.3283,22.33,61.5135,22.8849Z" transform="translate(-0.25 0)" style="fill:#3f3d56"></path><path id="f0b62e0d-cdc4-4bc3-b5da-0314c1b31060" data-name="Path" d="M95.9252,20.5973a6.6355,6.6355,0,0,1,1.3708,1.3246c.4138.59.649,1.3147,1.0482,1.9186a20.2861,20.2861,0,0,0,1.349,1.5784,12.3116,12.3116,0,0,1,1.5568,2.8,40.973,40.973,0,0,1-3.5219,4.3888,1.1255,1.1255,0,0,1-.536.3866.8213.8213,0,0,1-.7547-.34c-.1968-.2254-.3354-.5073-.5232-.7428a2.5973,2.5973,0,0,0-1.6643-.8879,10.3682,10.3682,0,0,0-1.8867-.03.6681.6681,0,0,1-.4029-.0745.7185.7185,0,0,1-.2188-.2778c-.7291-1.3851-.5013-3.1245-.2406-4.7068l.5961-3.6238a8.8169,8.8169,0,0,1,.4977-2.0132c.226-.5335.7291-1.4395,1.3526-1.2784S95.3984,20.1785,95.9252,20.5973Z" transform="translate(-0.25 0)" style="fill:#3f3d56"></path><polygon points="41.43 31.276 41.43 31.246 41.427 31.182 31.577 30 18 32.361 18 46.82 29.091 47.972 29.379 48 42 45.345 41.43 31.276"></polygon><polygon id="f3eacdc4-8758-47c8-b0d9-cb31e1c4940b" data-name="Path" points="42 45.464 29.29 48 29 47.973 29 33.818 41.426 32 42 45.464" style="fill:#dc9111"></polygon><polygon id="a2124856-9fe5-442e-a10b-0c0de64c0915" data-name="Path" points="42 31.215 41.996 31.219 29.361 33 18 32.25 31.908 30 41.996 31.126 42 31.187 42 31.215" style="fill:#e99912"></polygon></g></g></g></g></svg>