<svg xmlns="http://www.w3.org/2000/svg" id="f1686f41-4b4c-4840-9781-26bb92d3a2e6" data-name="Layer 1" width="209" height="145" viewBox="0 0 209 145"><g id="bc8b56a7-9bee-4f7a-a279-e7d3ae61c41e" data-name="Page-1"><g id="ed55b024-167d-438f-8d67-526c96a7497c" data-name="Donate-Computer-LP"><g id="b1ebb37a-5cba-4dac-b7ab-0ac3f5c58779" data-name="Group-13"><path id="ba33f8cf-f5e8-4e4b-8b83-636dfeabd0ac" data-name="Path" d="M202.4325,145H6.5675A6.3817,6.3817,0,0,1,0,138.8219H0a940.6891,940.6891,0,0,1,209,0h0a5.9983,5.9983,0,0,1-1.9236,4.3686,6.7834,6.7834,0,0,1-4.6439,1.81Z" style="fill:#2f2e41"></path><path id="b1fa5635-1c75-461c-aca7-24e7ff4170be" data-name="Path" d="M209,139,0,138.6149,24.2224,97.9931l.1159-.1926V8.2745A8.2877,8.2877,0,0,1,32.64,0h142.56a8.2877,8.2877,0,0,1,8.3021,8.2745V98.4166Z" style="fill:#3f3d56"></path><path id="be6d296d-920b-41de-9b10-d39a2a7072b5" data-name="Path" d="M32.7132,6A2.707,2.707,0,0,0,30,8.6947V90.3053A2.7071,2.7071,0,0,0,32.7132,93H177.2868A2.7073,2.7073,0,0,0,180,90.3053V8.6947A2.7071,2.7071,0,0,0,177.2868,6Z" style="fill:#fff"></path><path id="a9a431b4-e1c6-4bee-8611-0e365232f2b2" data-name="Path" d="M33.6079,104a1.1587,1.1587,0,0,0-1.0512.6912l-7.4508,16.625a1.2146,1.2146,0,0,0,.0769,1.1369,1.15,1.15,0,0,0,.9741.5469H182.8432a1.15,1.15,0,0,0,.9841-.5633,1.2141,1.2141,0,0,0,.05-1.1553l-8.0987-16.625A1.1485,1.1485,0,0,0,174.7444,104Z" style="fill:#2f2e41"></path><circle id="a9fc96d5-80b9-471d-be2c-6f755f03f936" data-name="Oval" cx="104" cy="3" r="2" style="fill:#fff"></circle><path id="ad2f2462-71f3-413d-92ed-f780b40745ab" data-name="Path" d="M89.0373,126a1.1578,1.1578,0,0,0-1.1213.8324l-1.876,6.75a1.0972,1.0972,0,0,0,.2.9769,1.1748,1.1748,0,0,0,.9218.4407h35.6776a1.1727,1.1727,0,0,0,.9459-.4725,1.0954,1.0954,0,0,0,.1512-1.02l-2.4119-6.75a1.16,1.16,0,0,0-1.0975-.757Z" style="fill:#2f2e41"></path><polygon id="a5537cf5-ece6-4b28-bfb4-884b57047e40" data-name="Path" points="184 97 184 99 25 99 25.12 98.75 25.12 97 184 97" style="fill:#2f2e41"></polygon><path id="a75c1ee2-f873-4ae3-99c3-15fd4ee5f4d4" data-name="Path" d="M50.0992,23A2.1268,2.1268,0,0,0,48,25.1486V73.8513A2.1269,2.1269,0,0,0,50.0992,76H158.9008A2.1269,2.1269,0,0,0,161,73.8513V25.1486A2.1268,2.1268,0,0,0,158.9008,23Z" style="fill:#e6e6e6"></path><path d="M153.6272,74.7887,128.3159,49.0341a1.2591,1.2591,0,0,0-1.8,0l-6.2942,6.4045a2.6376,2.6376,0,0,1-3.7763,0L96.73,35.3788a1.2592,1.2592,0,0,0-1.8006,0L56.3728,74.611a1.3119,1.3119,0,0,0-.2758,1.4116,1.2729,1.2729,0,0,0,1.1761.8h55.9563L113.1788,77h39.5481a1.2729,1.2729,0,0,0,1.1761-.8A1.3119,1.3119,0,0,0,153.6272,74.7887Z"></path><circle cx="66" cy="35" r="5"></circle><path id="b2b8e962-c5f7-4dc6-9b6d-e427df4cfa2c" data-name="Path" d="M53.3418,40A.3448.3448,0,0,1,53,39.6522V16.3478A.3448.3448,0,0,1,53.3418,16H79.6572a.3406.3406,0,0,1,.2968.1736.3532.3532,0,0,1,0,.3485.341.341,0,0,1-.2968.1736H53.6835V39.6522A.3448.3448,0,0,1,53.3418,40Z" style="fill:#3f3d56"></path><path id="bcaa0fbe-1b4c-4018-89d6-670e3ec2c187" data-name="Path" d="M155.6582,41a.339.339,0,0,1-.2417-.1018.3508.3508,0,0,1-.1-.246V17.6957H129.3418a.3479.3479,0,0,1,0-.6957h26.3164a.3388.3388,0,0,1,.2417.1018.3513.3513,0,0,1,.1.246V40.6522a.3509.3509,0,0,1-.1.2459.3385.3385,0,0,1-.2417.1019Z" style="fill:#3f3d56"></path><path id="b55be7d2-65dc-4139-8b3c-dadf8d8b545b" data-name="Path" d="M79.6572,82H53.3418a.3388.3388,0,0,1-.2417-.1018.3513.3513,0,0,1-.1-.246V58.3489a.349.349,0,0,1,.1706-.3021.3365.3365,0,0,1,.3424,0,.3491.3491,0,0,1,.1705.3021V81.3044H79.6572a.3406.3406,0,0,1,.2968.1736.353.353,0,0,1,0,.3484A.3406.3406,0,0,1,79.6572,82Z" style="fill:#3f3d56"></path><path id="b9880a8a-c1ca-4854-ad4b-9f0be178a32f" data-name="Path" d="M155.6582,83H129.3418a.3479.3479,0,0,1,0-.6956h25.9747V59.3478a.3418.3418,0,1,1,.6835,0V82.6522a.3512.3512,0,0,1-.1.246A.3392.3392,0,0,1,155.6582,83Z" style="fill:#3f3d56"></path></g></g></g></svg>