<svg xmlns="http://www.w3.org/2000/svg" id="eeec865d-b790-4a4e-9531-752e378e92cc" data-name="Layer 1" width="172" height="208" viewBox="0 0 172 208"><g id="a2c686fb-91c0-4761-96bd-65c468a3e0ce" data-name="Page-1"><g id="aee0db4b-a8d8-4d8f-96a8-cf5c42ab5668" data-name="Donate-Computer-LP"><g id="bf50b93a-dd0c-444c-a67f-e4eb432f3fca" data-name="Group-11"><path d="M159.4449,184.3229c-.3834-7,2.5448-13.6917,4.8012-20.3338s3.8351-14.1248.8939-20.4967c-3.0984-6.7123-10.7453-11.0579-12.1691-18.306-1.1126-5.6641,1.9678-11.2,4.6706-16.3081s5.1632-11.1722,2.87-16.4741A91.8056,91.8056,0,0,1,79.5317,97.09C71.1136,93.449,63.2581,88.5268,54.59,85.5223s-18.682-3.8864-26.7276.508L26,87.0887A73.83,73.83,0,0,1,51.7036,120.4c3.0526,7.9707,4.8775,16.7756,10.6391,23.0964,6.0469,6.6337,15.2378,9.2316,23.8262,11.9285S103.86,161.7,108.6027,169.31c2.7846,4.4674,3.7193,9.837,6.144,14.5071,4.851,9.3434,15.2438,14.8345,25.6916,16.4888s21.1076.039,31.5617-1.5752C164.9458,198.7247,159.8284,191.3228,159.4449,184.3229Z" transform="translate(0)"></path><path id="b4b90cba-f841-49d9-a9b9-5f4d334d0b7e" data-name="Path" d="M36.8708,52.4873a11.3988,11.3988,0,0,0-9.1543-.5307c-2.87,1.2371-4.827,4.4081-3.8989,7.2144.4208,1.2724,1.3792,2.5237,1.0058,3.8087a3.8869,3.8869,0,0,1-2.2745,2.1065,8.4463,8.4463,0,0,0-2.7737,1.6378,1.8581,1.8581,0,0,0,.029,2.7386c.293.2.6593.295.9435.5058A1.535,1.535,0,0,1,21.21,71.671a3.58,3.58,0,0,1-1.1331,1.5124c-1.01.8835-2.3442,1.8947-2.0307,3.1489a2.1906,2.1906,0,0,0,1.4694,1.3944,7.203,7.203,0,0,0,2.157.2888l29.7963.9523a11.1381,11.1381,0,0,0,2.9419-.1667,3.4812,3.4812,0,0,0,2.31-1.5747,3.32,3.32,0,0,0-.5087-3.3921,31.9751,31.9751,0,0,0-2.5259-2.7086,4.33,4.33,0,0,1-1.353-3.2532,8.3727,8.3727,0,0,1,1.1778-2.6359,2.6576,2.6576,0,0,0,.1267-2.7376c-.8095-1.12-2.7532-1.0184-3.6737-2.0618-.6947-.7873-.56-1.9208-.63-2.9361a7.1152,7.1152,0,0,0-4.2053-5.82,8.1751,8.1751,0,0,0-7.5332.5205Z" transform="translate(0)" style="fill:#2f2e41"></path><polygon id="acf0f8c6-c772-4722-ab0f-84ddc400d805" data-name="Path" points="18.632 203 14 201.603 17.164 183 24 185.062 18.632 203" style="fill:#a0616a"></polygon><path id="a9033493-dd1d-4a66-9015-8c31402fca71" data-name="Path" d="M18.1684,208,3,203.5126l.0576-.1889a6.0916,6.0916,0,0,1,2.9834-3.5993,6.2508,6.2508,0,0,1,4.6943-.4677h0L20,201.9976Z" transform="translate(0)" style="fill:#2f2e41"></path><polygon id="b4bc5266-e4ca-4c1d-8bee-c7873969e8c9" data-name="Path" points="61.999 204 57.256 204 55 185 62 185 61.999 204" style="fill:#a0616a"></polygon><path id="a1169e9b-1336-41e2-ac9a-bb6ac531a7bd" data-name="Path" d="M64,208l-16,0v-.1889a5.6205,5.6205,0,0,1,1.824-4.1088A6.4615,6.4615,0,0,1,54.2276,202h0L64,202Z" transform="translate(0)" style="fill:#2f2e41"></path><path id="e30d7423-19ec-48b0-b787-290d26853a0a" data-name="Path" d="M55.3821,189a1.779,1.779,0,0,1-1.7551-1.5L46.4334,142.545a1.3826,1.3826,0,0,0-2.643-.3124l-18.6371,44.948a1.7836,1.7836,0,0,1-2.2045,1.0071L16.2173,185.94a1.7762,1.7762,0,0,1-1.1723-2.0827L30.3182,116.151a1.79,1.79,0,0,1,1.3325-1.3427l20.483-4.7635a1.8005,1.8005,0,0,1,1.4651.3047c13.4875,9.8176,12.3481,41.8937,9.8345,76.7229a1.78,1.78,0,0,1-1.6971,1.6523l-6.2761.2738C55.434,189,55.408,189,55.3821,189Z" transform="translate(0)" style="fill:#2f2e41"></path><ellipse id="feaac3b8-9c74-4de2-8d0f-563c7282d9f8" data-name="Oval" cx="38" cy="68.5" rx="10" ry="9.5" style="fill:#a0616a"></ellipse><path id="a691ca82-921c-4f89-a244-7c33c0ea97f2" data-name="Path" d="M38.7725,119a15.8606,15.8606,0,0,1-6.7551-1.5578l-.0725-.0336-.0287-.0746L23.1747,94.7364,23.0085,90.81a9.4227,9.4227,0,0,1,9.956-9.7951l9.28.5215a9.427,9.427,0,0,1,8.903,9.3478,6.3461,6.3461,0,0,1-1.4019,7.4691c-.1253.7729-1.2988,8.8081,3.13,13.2266l.1245.1241-.1088.138C52.8207,111.9318,47.1334,118.9988,38.7725,119Z" transform="translate(0)" style="fill:#3f3d56"></path><path id="feeb27c0-b769-44a2-9828-823fbe6981db" data-name="Path" d="M51.4792,120.7457a4.0685,4.0685,0,0,0,2.1231-5.8528L63,103.9683,55.5915,103l-7.7884,10.5226a4.082,4.082,0,0,0,3.6761,7.2231Z" transform="translate(0)" style="fill:#a0616a"></path><path id="b854ad20-1ee0-4fa2-bfd6-32b7f1d6d425" data-name="Path" d="M57.8981,113a1.7969,1.7969,0,0,1-.9859-.2946L52.2984,109.69a1.784,1.784,0,0,1-.5587-2.4137l3.34-5.5929a2.4926,2.4926,0,0,0-1.1278-3.5549L44.3563,93.84a5.6963,5.6963,0,0,1-3.24-6.3344h0a5.691,5.691,0,0,1,8.16-3.8822l14.5575,7.4344a7.62,7.62,0,0,1,2.7176,11.26l-7.1966,9.9383a1.7943,1.7943,0,0,1-1.457.744Z" transform="translate(0)" style="fill:#3f3d56"></path><path id="a54b401e-e16f-4465-9b4e-d48f2290ebc5" data-name="Path" d="M28.45,67.1134a6.02,6.02,0,0,0,5.3559-6.341,5.1448,5.1448,0,0,0,4.4565,5.2134c1.4231.1542,2.9834-.2694,4.2221.437,1.372.7825,1.811,2.6826,3.24,3.3584a3.0865,3.0865,0,0,0,3.8173-1.5874,5.9269,5.9269,0,0,0,.0627-4.4121,12.5774,12.5774,0,0,0-9.07-8.42,12.8,12.8,0,0,0-12.0061,3.3132,7.935,7.935,0,0,0-2.5084,4.75A4.6568,4.6568,0,0,0,28.3625,68.02Z" transform="translate(0)" style="fill:#2f2e41"></path><path id="e7501d70-01ee-4494-ac24-9c7ee7ce76d8" data-name="Path" d="M6.03,40.481a3.9106,3.9106,0,0,1,2.0461,2.6421,3.7762,3.7762,0,0,1-.7953,3.203L15,58l-7.4809-.1231L1.3356,46.81a3.8024,3.8024,0,0,1-.58-5.1672A4.179,4.179,0,0,1,6.03,40.481Z" transform="translate(0)" style="fill:#a0616a"></path><path id="bdee7233-1bba-469e-99b5-6fb72b52eb6d" data-name="Path" d="M11.9473,49.0887,21.84,72.17,32.2115,89.5352A5.5548,5.5548,0,0,1,32.61,94.432a5.6612,5.6612,0,0,1-3.6543,3.3338h0A5.7446,5.7446,0,0,1,22.16,94.7692L2.17,52.5942a1.7608,1.7608,0,0,1-.02-1.4671,1.7959,1.7959,0,0,1,1.102-.9841l6.4815-2.0559a1.8636,1.8636,0,0,1,.3778-.0781,1.797,1.797,0,0,1,1.8356,1.08Z" transform="translate(0)" style="fill:#3f3d56"></path><path id="a4961d9a-5705-4c33-a61b-0db39dbb768c" data-name="Path" d="M41,.3929V32.6071a.5146.5146,0,0,1-1,0V.3929a.5146.5146,0,0,1,1,0Z" transform="translate(0)" style="fill:#ccc"></path><path id="a48acfac-6287-497e-9b27-cbd194b7b0a6" data-name="Path" d="M74.8833,27.6771,63.6758,38.8846a.3963.3963,0,0,1-.56-.56L74.3229,27.1167a.3963.3963,0,1,1,.56.56Z" transform="translate(0)" style="fill:#ccc"></path><path id="b745b590-e15e-4d95-a858-f921e7e084fa" data-name="Path" d="M5.1167,27.677,16.3236,38.8839a.3962.3962,0,0,0,.56-.56L5.677,27.1167a.3962.3962,0,1,0-.56.56Z" transform="translate(0)" style="fill:#ccc"></path></g></g></g></svg>