<svg xmlns="http://www.w3.org/2000/svg" id="bfa12ae9-20d6-420f-8008-52617b879fb8" data-name="Layer 1" width="277" height="203" viewBox="0 0 277 203"><g id="e9695b98-8b03-4434-8555-7a6a9b4f98b2" data-name="Page-1"><g id="a473886f-ef73-4530-9bfe-d9b0c3328319" data-name="Donate-Computer-LP"><g id="a7011442-bfa5-45e2-a56d-88bdfa4a6bb2" data-name="Group-12"><rect id="abea37d2-c058-45c9-b4bb-f841533aab06" data-name="Rectangle" x="71" width="181" height="122" style="fill:#e6e6e6"></rect><g id="eab803ad-fc82-4804-a485-9b03990495c5" data-name="Group-15"><path id="f966fcf0-3926-4f6b-b14a-3657d47277cc" data-name="Path" d="M26.1292,174.7589h6.8647l16.9166-6.4939s12.0132-4.81,11.0326,4.3293S58.2462,194,58.2462,194s-5.3937-2.4051-8.3357-1.6836-.9807-14.6713-.9807-14.6713-24.0264,11.3041-26.233,9.861S20,175.9615,20,175.9615Z" style="fill:#2f2e41"></path><path id="a4df34c7-af66-4d80-b1ff-6d1ef696a478" data-name="Path" d="M26.1292,174.7589h6.8647l16.9166-6.4939s12.0132-4.81,11.0326,4.3293S58.2462,194,58.2462,194s-5.3937-2.4051-8.3357-1.6836-.9807-14.6713-.9807-14.6713-24.0264,11.3041-26.233,9.861S20,175.9615,20,175.9615Z" style="opacity:0.10000000149011612;isolation:isolate"></path><path id="a619ead7-4dff-4ca1-ad53-422b819eff5e" data-name="Path" d="M37.0938,153l8.2223,11.9194L64.485,181.0776s17.7131,4.1619,15.2867,7.1S62.5439,185.24,62.5439,185.24s-22.0807-16.1582-22.8087-17.3823S31,155.1265,31,155.1265Z" style="fill:#a0616a"></path><path id="e033e7c2-c9ad-4c71-91b5-f94af00508fd" data-name="Path" d="M37.0938,153l8.2223,11.9194L64.485,181.0776s17.7131,4.1619,15.2867,7.1S62.5439,185.24,62.5439,185.24s-22.0807-16.1582-22.8087-17.3823S31,155.1265,31,155.1265Z" style="opacity:0.10000000149011612;isolation:isolate"></path><path d="M32.8,144,25,153.6819s8.0364,6.7775,9.9272,6.2933S38,154.4081,38,154.4081Z"></path><path id="a0aaef39-2147-4ca6-beb2-6d7a1e628f05" data-name="Path" d="M97.4037,169.314l1.5848,6.5769a.4135.4135,0,0,1-.0079.222l-7.1889,22.6015a.4078.4078,0,0,1-.7946-.0788l-.9945-8.8047a.4139.4139,0,0,1,.0175-.1737l6.5986-20.3737a.4076.4076,0,0,1,.785.03Z" style="fill:#2f2e41"></path><polygon id="e106c354-2425-455c-9bde-9c3e6e14d4a5" data-name="Path" points="96.5 170 98 175.589 91.5 196 90 189.682 96.5 170" style="fill:#f2f2f2"></polygon><path id="bfa31c3e-da2a-4b2a-a5d9-9cc40eee3119" data-name="Path" d="M65.04,199.7439c.2473.7007,25.7237-.2335,25.971-.4671a4.9876,4.9876,0,0,0,.5442-.9343c.2325-.4671.4452-.9342.4452-.9342l-.9894-7.5628L65.7816,189s-.6307,6.409-.7593,9.3425A6.6277,6.6277,0,0,0,65.04,199.7439Z" style="fill:#2f2e41"></path><polygon id="a2f1f513-7107-43ab-8eee-d19b865e8787" data-name="Path" points="87.511 191 88 198 77 198 77 191 87.511 191" style="opacity:0.10000000149011612;isolation:isolate"></polygon><polygon id="a6955419-65e9-4c37-aeb5-4e682609acea" data-name="Path" points="73.929 193.013 74 193 73.662 196 67 196 67 193.013 73.929 193.013" style="opacity:0.10000000149011612;isolation:isolate"></polygon><path id="a56ce6b9-6d6b-4b98-aca9-b1fca3bd1ebd" data-name="Path" d="M65.0388,199.691c.2422.8455,25.1863-.2818,25.4284-.5637A6.4765,6.4765,0,0,0,91,198H65.0218A9.84,9.84,0,0,0,65.0388,199.691Z" style="opacity:0.10000000149011612;isolation:isolate"></path><circle id="a208f187-eaf7-44bf-90e4-fed9eda593d3" data-name="Oval" cx="36" cy="130" r="11" style="fill:#a0616a"></circle><path id="f31669ec-c28c-4320-b1b0-bb1da1a61a4b" data-name="Path" d="M35,139.4982s-3.7226,6.3711-4.4672,9.8017-11.1678-6.8612-11.1678-6.8612L18,138.8856s9.8029-4.5333,9.0584-8.209S35,139.4982,35,139.4982Z" style="fill:#a0616a"></path><path id="e9d768cd-6ce5-45d6-9098-18613ceef81c" data-name="Path" d="M37.59,158l9.9,13.138,23.663,17.7607s17.1435,3.65,13.28,6.3258-14.9705-2.433-14.9705-2.433-23.9044-12.8948-28.975-18.2473S26,160.19,26,160.19Z" style="fill:#a0616a"></path><path id="a1e03f14-0e74-4956-b0c6-36ec654b4678" data-name="Path" d="M24.4353,178.4813l2.89,4.5163,17.2487-5.3556a13.7183,13.7183,0,0,1,11.2916,1.3444c3.0106,1.8719,4.9373,4.8431.6021,9.24-8.67,8.7947-14.4508,4.0408-14.4508,4.0408s-29.1423,13.5486-33.9592,6.8932S3,189.1776,3,189.1776,21.5451,177.7682,24.4353,178.4813Z" style="fill:#2f2e41"></path><path id="abf284f9-e46b-4c20-b293-4b546cc825ad" data-name="Path" d="M60.8932,194.2706s7.8913,5.298-1.48,7.8209a24.3192,24.3192,0,0,1-16.2757-1.0092S35,201.0823,35,196.7935,37.7126,192,37.7126,192l8.3845,1.2614S56.2078,190.4863,60.8932,194.2706Z" style="fill:#d0cde1"></path><path id="b3f2fe3c-186e-4b80-b6e0-fa1f5e54d717" data-name="Path" d="M45.3647,126.8069a8.2947,8.2947,0,0,0,2.2845.7935,2.113,2.113,0,0,0,2.1071-.8754,2.6756,2.6756,0,0,0,.2393-1.2427,5.4032,5.4032,0,0,0-.91-3.6826c-.5365-.6354-1.32-1.0359-1.8751-1.6557a7.79,7.79,0,0,1-.9478-1.5018c-1.08-1.9669-2.6792-3.8572-4.9016-4.4243a10.9545,10.9545,0,0,0-2.8611-.2121l-5.5968.0766a10.0357,10.0357,0,0,0-2.6924.281c-1.8014.5281-3.113,1.997-4.3143,3.4018a21.3056,21.3056,0,0,0-2.4743,3.3112,11.3347,11.3347,0,0,0-1.42,5.6928,5.1753,5.1753,0,0,0,.2012,1.5063,8.2447,8.2447,0,0,0,.6106,1.3c1.05,1.9989,1.6728,4.4958.4908,6.424a12.7518,12.7518,0,0,0,5.4393-3.5827,9.9523,9.9523,0,0,1,1.8886-2.2129,1.9329,1.9329,0,0,1,2.6414.213,2.2384,2.2384,0,0,1,.2671,1.0752,4.7939,4.7939,0,0,0,.3061,1.8145,1.41,1.41,0,0,0,1.5233.8428c1.0548-.2881.9538-1.8578,1.7662-2.5709.617-.5415,1.5688-.438,2.3615-.6838a3.4561,3.4561,0,0,0,2.0113-1.9209c.3-.6527.2958-2.3607.8637-2.7142C43.085,125.8169,44.7046,126.5216,45.3647,126.8069Z" style="fill:#2f2e41"></path><path d="M29.2687,146.8167s-3.3587-3.3684-4.3184-5.5338c-.74-1.67-4.1925-2.7679-5.7325-3.1826a2.8393,2.8393,0,0,0-1.482-.0038C1.179,142.5918.4868,170.702.96,175.2074c.48,4.5714-.96,17.5638-.96,17.5638,2.8789,6.9773,17.7531-4.3308,17.7531-7.94s1.9193-.9624,6.7174-4.812,3.8385-18.7668,3.8385-18.7668,3.5987-3.609,4.5582-6.7367S29.2687,146.8167,29.2687,146.8167Z"></path><path d="M26.4313,143.6279c-13.2233-3.5856-12.2438,9.3227-10.2848,10.04s9.55,9.0836,11.5091,9.3227,11.0194-4.0637,11.0194-4.0637C41.3687,154.3849,26.4313,143.6279,26.4313,143.6279Z"></path></g><g id="eda7a416-5909-4e1c-9aad-26894f81e878" data-name="Group-14"><circle id="e94f9670-4ed6-4f15-8ff4-82fa3db37c41" data-name="Oval" cx="116" cy="79" r="18" style="fill:#f2f2f2"></circle><path id="b0e63f06-943e-46d2-bd59-04b3c91de212" data-name="Shape" d="M265,55H164V34H265Zm-100.5551-.4421h100.11V34.4421h-100.11Z" style="fill:#3f3d56"></path><rect x="157" y="38" width="101" height="21"></rect><circle cx="93.5" cy="17.5" r="1.5"></circle><circle cx="98.5" cy="17.5" r="1.5"></circle><circle cx="104.5" cy="17.5" r="1.5"></circle><path id="a3d1eb52-7e8c-45cb-a0eb-d310d8a377f5" data-name="Shape" d="M277,135H89V13H277Zm-187.5534-.4453H276.5535V13.4453H89.4466Z" style="fill:#3f3d56"></path><rect id="e2b92cba-ecd6-48f4-b95e-a5e901d10dbe" data-name="Rectangle" x="89" y="19.7771" width="187" height="1" style="fill:#3f3d56"></rect><path id="b899c963-4495-47b5-ab4a-bd3d730cb7b4" data-name="Shape" d="M94,19a2,2,0,1,1,2-2,2,2,0,0,1-2,2Zm0-3.5A1.5,1.5,0,1,0,95.5,17,1.5,1.5,0,0,0,94,15.5Z" style="fill:#3f3d56"></path><path id="b52c776d-c5bc-4dbb-b437-3ca61883ec16" data-name="Shape" d="M99,19a2,2,0,1,1,2-2,2,2,0,0,1-2,2Zm0-3.5a1.5,1.5,0,1,0,1.5,1.5A1.5,1.5,0,0,0,99,15.5Z" style="fill:#3f3d56"></path><path id="f4775ff9-3ab7-4222-8bf8-cc8a235cfdb5" data-name="Shape" d="M105,19a2,2,0,1,1,2-2,2,2,0,0,1-2,2Zm0-3.5a1.5,1.5,0,1,0,1.5,1.5,1.5,1.5,0,0,0-1.5-1.5Z" style="fill:#3f3d56"></path><rect id="bff903e9-5e23-4c54-a8da-c457a8b640ba" data-name="Rectangle" x="147.7773" y="20" width="1" height="115" style="fill:#3f3d56"></rect><rect id="a0fe819e-352e-407f-8c6b-141f1f591aa0" data-name="Rectangle" x="169" y="77" width="33" height="4" style="fill:#f2f2f2"></rect><rect id="a795b081-18a9-4dd4-a1af-0efa131a6093" data-name="Rectangle" x="221" y="77" width="33" height="4" style="fill:#f2f2f2"></rect><path id="b45d6d7d-45a3-4736-9b31-fd88f3756dc9" data-name="Shape" d="M204,79H171V74h33Zm-32.557-.4545h32.114v-4.091H171.443Z" style="fill:#3f3d56"></path><rect id="ee329ce3-e2ac-4be3-b12d-914959f7ed85" data-name="Rectangle" x="169" y="111" width="33" height="4" style="fill:#f2f2f2"></rect><path id="a63c8057-3cae-4b9c-9b4f-debdc6b40938" data-name="Shape" d="M204,114H171v-5h33Zm-32.557-.4545h32.114v-4.091H171.443Z" style="fill:#3f3d56"></path><rect id="ec8d9695-6c95-4537-9514-518e7f14fdf0" data-name="Rectangle" x="169" y="94" width="84" height="4" style="fill:#f2f2f2"></rect><path id="aa345569-c0e0-4753-b35b-ea1c61bfad12" data-name="Shape" d="M256,96H171V91h85Zm-84.5526-.4545h84.1052v-4.091H171.4474Z" style="fill:#3f3d56"></path><path id="bc8ca16a-aac0-41e3-918e-16660581cbba" data-name="Shape" d="M255,79H222V74h33Zm-32.5571-.4545h32.1142v-4.091H222.4429Z" style="fill:#3f3d56"></path><path id="a94731d0-2f9b-42a1-98b8-f1ca9ff6dd93" data-name="Shape" d="M119.5,92A18.5,18.5,0,1,1,138,73.5,18.5,18.5,0,0,1,119.5,92Zm0-36.4394A17.9394,17.9394,0,1,0,137.4394,73.5,17.9393,17.9393,0,0,0,119.5,55.5606Z" style="fill:#3f3d56"></path></g></g></g></g></svg>