<svg xmlns="http://www.w3.org/2000/svg" id="a6929079-1140-4ead-a0b7-b65e4320e083" data-name="b574644d-345c-4806-9b42-097a5079e1e1" width="196" height="55" viewBox="0 0 196 55"><g id="f4c6beec-24b7-499b-b450-c22ffb6c6cd2" data-name="fe5aa03d-20d7-42d6-860c-979bf25731ec"><g id="edcd917b-b9c1-4d3a-b2c2-6d0ef7e6006b" data-name="bb02db1d-57dd-45ca-a9c3-854104d17e13"><g id="fae97780-246d-48db-9c90-9265d58de7b3" data-name="bb564abe-bf60-459d-a5c0-a2bc7bd07dd5"><g id="f7721612-946a-4ae8-98dd-2efa905ef8a8" data-name="a66dfacb-3da3-41cf-97a2-a34fde1c0675"><rect id="bda41c15-697f-4830-8cc2-609a5e7eece2" data-name="e71ae53a-defd-4c6f-b37c-585208374f1a" width="196" height="55" style="fill:#d8d8d8;fill-opacity:0"></rect><path d="M154.2511,32.5a6.1232,6.1232,0,0,0,4.222-1.4625,8.0722,8.0722,0,0,0,2.3385-3.51l-.5336-.1755a4.6066,4.6066,0,0,1-3.7982,1.96,3.28,3.28,0,0,1-2.5583-1.1993,6.0617,6.0617,0,0,1-1.0516-4.0073q0-.702.0315-1.053H161Q161,16.5,155.0673,16.5a8.3887,8.3887,0,0,0-5.8543,2.0037Q147,20.5073,147,24.5146q0,4.1829,1.9776,6.0841A7.2892,7.2892,0,0,0,154.2511,32.5Zm1.0233-15q.8959,0,1.3267,1.4011a11.8692,11.8692,0,0,1,.3963,3.5989H153Q153.3446,17.5,155.2744,17.5Z" style="fill-rule:evenodd"></path><path d="M140,32.5v-.6445a1.6382,1.6382,0,0,1-1.3408-.4757,2.8584,2.8584,0,0,1-.3852-1.734V8.5a28.09,28.09,0,0,1-5.3631.43q-.9553,0-1.9109-.0921v.6445a1.433,1.433,0,0,1,1.3408.6445,4.1662,4.1662,0,0,1,.3852,2.0563V29.6458a2.8584,2.8584,0,0,1-.3852,1.734A1.6382,1.6382,0,0,1,131,31.8555V32.5q3.5752-.1227,4.6233-.1227T140,32.5Z" style="fill-rule:evenodd"></path><path d="M118.4978,32.5a6.0366,6.0366,0,0,0,4.1845-1.4625A8.08,8.08,0,0,0,125,27.5274l-.5289-.1755a4.5533,4.5533,0,0,1-3.7644,1.96,3.6373,3.6373,0,0,1-2.7689-1.1993,5.7942,5.7942,0,0,1-1.12-4.0073,12.6677,12.6677,0,0,1,.8088-4.7532,2.8457,2.8457,0,0,1,2.8-2.0036,2.0205,2.0205,0,0,1,1.2444.351,3.5174,3.5174,0,0,0-1.82,1.0676,2.6786,2.6786,0,0,0-.7311,1.8574,2.5052,2.5052,0,0,0,.7622,1.9159,2.9438,2.9438,0,0,0,2.1.7166,2.9771,2.9771,0,0,0,2.1467-.8043,2.6947,2.6947,0,0,0,.84-2.0329,3.2753,3.2753,0,0,0-.4978-1.7843,3.59,3.59,0,0,0-1.3689-1.2578,6.8174,6.8174,0,0,0-1.7578-.6288,10.4,10.4,0,0,0-2.3488-.2489,8.2679,8.2679,0,0,0-5.8021,2.0037Q111,20.5073,111,24.5146q0,4.1829,2.0533,6.0841A7.6956,7.6956,0,0,0,118.4978,32.5Z" style="fill-rule:evenodd"></path><path d="M41.02,32.5v-.5932a5.0531,5.0531,0,0,1-2.1146-.6526,2.1207,2.1207,0,0,1-.8181-1.4089,18.7931,18.7931,0,0,1-.1852-3.1588V13.428L46.6075,32.47h.4939l7.44-18.2711V29.356a5.1576,5.1576,0,0,1-.1852,1.6313,1.088,1.088,0,0,1-.6946.6822,6.3832,6.3832,0,0,1-1.6207.2373V32.5q1.76-.0889,5.495-.089,3.5811,0,5.4642.089v-.5932a4.8294,4.8294,0,0,1-1.42-.2373,1.0531,1.0531,0,0,1-.602-.6822,5.5973,5.5973,0,0,1-.17-1.6313V14.644a6.1386,6.1386,0,0,1,.1543-1.6313,1.004,1.004,0,0,1,.602-.6822A5.0287,5.0287,0,0,1,63,12.0932V11.5q-1.8831.089-5.4642.089H54.85L49.7872,24.106,43.9526,11.5q-2.6859.089-6.39.089-1.6365,0-2.5626-.089v.5932a4.8294,4.8294,0,0,1,1.42.2373,1.0531,1.0531,0,0,1,.602.6822,5.5973,5.5973,0,0,1,.17,1.6313V27.28a16.9672,16.9672,0,0,1-.1543,2.67,2.2755,2.2755,0,0,1-.6175,1.32,3.001,3.001,0,0,1-1.42.6378V32.5q.9261-.0889,2.5623-.089Q39.7542,32.411,41.02,32.5Z" style="fill-rule:evenodd"></path><path d="M94.9016,32.38q1.072,0,4.2888.09a6.372,6.372,0,0,0,.6739.03v-.63a3.0911,3.0911,0,0,1-2.0372-.5253,2.51,2.51,0,0,1-.5974-1.9362v-9.006a2.7212,2.7212,0,0,1,.5208-1.6061,3.0365,3.0365,0,0,1,1.2867-1.0656,2.2,2.2,0,0,1,.98-.21,3.174,3.174,0,0,0-1.5624,2.7918,1.9432,1.9432,0,0,0,.7046,1.576,3.0868,3.0868,0,0,0,2.0219.5854,2.7282,2.7282,0,0,0,2.0372-.7956A2.93,2.93,0,0,0,104,19.5319a3.5124,3.5124,0,0,0-.6586-2.1313,2.4963,2.4963,0,0,0-2.16-.9006A4.09,4.09,0,0,0,97.23,18.7514V16.59a28.3512,28.3512,0,0,1-5.33.42q-.919,0-1.8994-.09v.63a1.4316,1.4316,0,0,1,1.3326.63,4.0176,4.0176,0,0,1,.3829,2.0113v9.516a2.76,2.76,0,0,1-.3829,1.696A1.6428,1.6428,0,0,1,90,31.87v.63a5.5292,5.5292,0,0,0,.6433-.03Q93.9519,32.38,94.9016,32.38Z" style="fill-rule:evenodd"></path><path d="M77.2511,32.5a6.1232,6.1232,0,0,0,4.222-1.4625,8.0722,8.0722,0,0,0,2.3385-3.51l-.5336-.1755a4.6071,4.6071,0,0,1-3.7982,1.96,3.28,3.28,0,0,1-2.5583-1.1993A6.0618,6.0618,0,0,1,75.87,24.1051q0-.702.0315-1.053H84Q84,16.5,78.0673,16.5a8.3887,8.3887,0,0,0-5.8543,2.0037Q70,20.5073,70,24.5146q0,4.1829,1.9776,6.0841A7.2892,7.2892,0,0,0,77.2511,32.5Zm.0233-15q.896,0,1.3267,1.4011A11.8692,11.8692,0,0,1,78.9974,22.5H75Q75.3446,17.5,77.2744,17.5Z" style="fill-rule:evenodd"></path><rect x="35" y="42.815" width="126" height="2"></rect></g></g></g></g></svg>