<svg width="46px" height="70px" viewBox="0 0 46 70" version="1.1" xmlns="http://www.w3.org/2000/svg"><g id="Page-1" stroke="none" stroke-width="1" fill="none" fill-rule="evenodd"><g id="post-list4" transform="translate(1.000000, 0.000000)" fill-rule="nonzero"><g id="Group-4"><path d="M41.9318725,-0.0004 C44.4068493,-0.0004 45,0.346143692 45,2.33993901 L45,26.3632144 C45,28.3569976 44.8279469,28.9996 42.3528998,28.9996 L3.16248598,28.9996 C0.68750918,28.9996 0,28.3569735 0,26.3632144 L0,2.76165437 C0,0.767871138 0.172053075,-0.0004 2.64710018,-0.0004 L41.9317319,-0.0004 L41.9318725,-0.0004 Z" id="Path" fill="#037fff"></path><rect id="Rectangle" fill="#FFFFFF" x="5.0005" y="21" width="25" height="2" rx="1"></rect><rect id="Rectangle" fill="#FFFFFF" x="5.0005" y="14" width="13" height="2" rx="1"></rect></g><g id="Group" transform="translate(1.000000, 37.000000)"><path d="M15.649,-2.22044605e-16 C16.58823,-2.22044605e-16 17.0734,0.675 17.0734,1.5 L17.0734,10.5 C17.0734,11.325 16.58822,12 15.649,12 L1.311,12 C0.37177,12 -0.0039,11.325 -0.0039,10.5 L-0.0039,1.7143 C-0.0039,0.8893 0.37176,-2.22044605e-16 1.311,-2.22044605e-16 L15.649,-2.22044605e-16 Z" id="Path" stroke="#037fff" stroke-width="2"></path><polygon id="Path" fill="#037fff" points="10.926 5.75 14.369 8.75 2.9846 8.75 5.8972 6.47 7.9993 8.0083"></polygon><rect id="Rectangle" fill="#037fff" x="22.769" y="7" width="20" height="2" rx="1"></rect><rect id="Rectangle" fill="#037fff" x="22.769" y="1.5" width="9" height="2" rx="1"></rect></g><g id="Group" transform="translate(1.000000, 57.000000)"><path d="M15.649,-2.22044605e-16 C16.58823,-2.22044605e-16 17.0734,0.675 17.0734,1.5 L17.0734,10.5 C17.0734,11.325 16.58822,12 15.649,12 L1.311,12 C0.37177,12 -0.0039,11.325 -0.0039,10.5 L-0.0039,1.7143 C-0.0039,0.8893 0.37176,-2.22044605e-16 1.311,-2.22044605e-16 L15.649,-2.22044605e-16 Z" id="Path" stroke="#037fff" stroke-width="2"></path><polygon id="Path" fill="#037fff" points="10.926 5.75 14.369 8.75 2.9846 8.75 5.8972 6.47 7.9993 8.0083"></polygon><rect id="Rectangle" fill="#037fff" x="22.769" y="7" width="20" height="2" rx="0.75"></rect><rect id="Rectangle" fill="#037fff" x="22.769" y="1.5" width="9" height="2" rx="1"></rect></g></g></g></svg>