<svg width="77px" height="38px" viewBox="0 0 77 38" version="1.1" xmlns="http://www.w3.org/2000/svg"><g id="Page-1" stroke="none" stroke-width="1" fill="none" fill-rule="evenodd"><g id="post-module2" fill-rule="nonzero"><g id="Group-4"><path d="M30.7500398,-0.0004 C32.5650228,-0.0004 33,0.453691735 33,3.06625111 L33,34.5450258 C33,37.1575693 32.8738277,37.9996 31.0587932,37.9996 L2.31915638,37.9996 C0.504173398,37.9996 0,37.1575376 0,34.5450258 L0,3.61884365 C0,1.00630011 0.126172255,-0.0004 1.9412068,-0.0004 L30.7499367,-0.0004 L30.7500398,-0.0004 Z" id="Path" fill="#037fff"></path><rect id="Rectangle" fill="#FFFFFF" x="6.0005" y="28" width="22" height="2" rx="1"></rect><rect id="Rectangle" fill="#FFFFFF" x="6.0005" y="21" width="11" height="2" rx="1"></rect></g><g id="Group" transform="translate(41.000000, 1.000000)"><path d="M11.2314463,0 C11.8914019,0 11.9999029,0.45 11.9999029,1 L11.9999029,6.791 C11.9999029,7.341 12.0484193,8 11.3884476,8 L0.712856105,8 C0.0529004475,8 0.0007,7.55 0.0007,7 L0.0007,1 C0.0007,0.45 0.0528854474,0 0.712856105,0 L11.2314463,0 Z" id="Path" stroke="#037fff" stroke-width="1.5"></path><polygon id="Path" fill="#037fff" points="7.58070588 4 10 5.88235294 2 5.88235294 4.04672941 4.45171765 5.52376471 5.41694118"></polygon><rect id="Rectangle" fill="#037fff" x="16" y="0" width="8" height="2" rx="1"></rect><rect id="Rectangle" fill="#037fff" x="16" y="5" width="20" height="2" rx="1"></rect></g><g id="Group-Copy-5" transform="translate(41.000000, 15.000000)"><path d="M11.2314463,0 C11.8914019,0 11.9999029,0.45 11.9999029,1 L11.9999029,6.791 C11.9999029,7.341 12.0484193,8 11.3884476,8 L0.712856105,8 C0.0529004475,8 0.0007,7.55 0.0007,7 L0.0007,1 C0.0007,0.45 0.0528854474,0 0.712856105,0 L11.2314463,0 Z" id="Path" stroke="#037fff" stroke-width="1.5"></path><polygon id="Path" fill="#037fff" points="7.58070588 4 10 5.88235294 2 5.88235294 4.04672941 4.45171765 5.52376471 5.41694118"></polygon><rect id="Rectangle" fill="#037fff" x="16" y="0" width="8" height="2" rx="1"></rect><rect id="Rectangle" fill="#037fff" x="16" y="5" width="20" height="2" rx="1"></rect></g><g id="Group-Copy-6" transform="translate(41.000000, 29.000000)"><path d="M11.2314463,0 C11.8914019,0 11.9999029,0.45 11.9999029,1 L11.9999029,6.791 C11.9999029,7.341 12.0484193,8 11.3884476,8 L0.712856105,8 C0.0529004475,8 0.0007,7.55 0.0007,7 L0.0007,1 C0.0007,0.45 0.0528854474,0 0.712856105,0 L11.2314463,0 Z" id="Path" stroke="#037fff" stroke-width="1.5"></path><polygon id="Path" fill="#037fff" points="7.58070588 4 10 5.88235294 2 5.88235294 4.04672941 4.45171765 5.52376471 5.41694118"></polygon><rect id="Rectangle" fill="#037fff" x="16" y="0" width="8" height="2" rx="1"></rect><rect id="Rectangle" fill="#037fff" x="16" y="5" width="20" height="2" rx="1"></rect></g></g></g></svg>