<svg width="71px" height="38px" viewBox="0 0 71 38" version="1.1" xmlns="http://www.w3.org/2000/svg"><g id="Page-1" stroke="none" stroke-width="1" fill="none" fill-rule="evenodd"><g id="post-module1" transform="translate(0.000000, 1.000000)" fill-rule="nonzero"><g id="Group-5"><path d="M23.462,0 C24.7819,0 24.9989,1.125 24.9989,2.5 L24.9989,16.9775 C24.9989,18.3525 25.095932,20 23.776,20 L2.425,20 C1.1051,20 1.0007,18.875 1.0007,17.5 L1.0007,2.5 C1.0007,1.125 1.10507,0 2.425,0 L23.462,0 Z" id="Path" stroke="#037fff" stroke-width="2"></path><polygon id="Path" fill="#037fff" points="15.859 11 21 15 4 15 8.3493 11.9599 11.488 14.011"></polygon><rect id="Rectangle" fill="#037fff" x="0" y="25" width="10" height="2" rx="1"></rect><rect id="Rectangle" fill="#037fff" x="0" y="30" width="25" height="2" rx="1"></rect><rect id="Rectangle-Copy-5" fill="#037fff" x="0" y="35" width="25" height="2" rx="1"></rect></g><g id="Group" transform="translate(35.000000, 0.000000)"><path d="M11.2314463,0 C11.8914019,0 11.9999029,0.45 11.9999029,1 L11.9999029,6.791 C11.9999029,7.341 12.0484193,8 11.3884476,8 L0.712856105,8 C0.0529004475,8 0.0007,7.55 0.0007,7 L0.0007,1 C0.0007,0.45 0.0528854474,0 0.712856105,0 L11.2314463,0 Z" id="Path" stroke="#037fff" stroke-width="1.5"></path><polygon id="Path" fill="#037fff" points="7.58070588 4 10 5.88235294 2 5.88235294 4.04672941 4.45171765 5.52376471 5.41694118"></polygon><rect id="Rectangle" fill="#037fff" x="16" y="0" width="8" height="2" rx="1"></rect><rect id="Rectangle" fill="#037fff" x="16" y="5" width="20" height="2" rx="1"></rect></g><g id="Group-Copy-5" transform="translate(35.000000, 14.000000)"><path d="M11.2314463,0 C11.8914019,0 11.9999029,0.45 11.9999029,1 L11.9999029,6.791 C11.9999029,7.341 12.0484193,8 11.3884476,8 L0.712856105,8 C0.0529004475,8 0.0007,7.55 0.0007,7 L0.0007,1 C0.0007,0.45 0.0528854474,0 0.712856105,0 L11.2314463,0 Z" id="Path" stroke="#037fff" stroke-width="1.5"></path><polygon id="Path" fill="#037fff" points="7.58070588 4 10 5.88235294 2 5.88235294 4.04672941 4.45171765 5.52376471 5.41694118"></polygon><rect id="Rectangle" fill="#037fff" x="16" y="0" width="8" height="2" rx="1"></rect><rect id="Rectangle" fill="#037fff" x="16" y="5" width="20" height="2" rx="1"></rect></g><g id="Group-Copy-6" transform="translate(35.000000, 28.000000)"><path d="M11.2314463,0 C11.8914019,0 11.9999029,0.45 11.9999029,1 L11.9999029,6.791 C11.9999029,7.341 12.0484193,8 11.3884476,8 L0.712856105,8 C0.0529004475,8 0.0007,7.55 0.0007,7 L0.0007,1 C0.0007,0.45 0.0528854474,0 0.712856105,0 L11.2314463,0 Z" id="Path" stroke="#037fff" stroke-width="1.5"></path><polygon id="Path" fill="#037fff" points="7.58070588 4 10 5.88235294 2 5.88235294 4.04672941 4.45171765 5.52376471 5.41694118"></polygon><rect id="Rectangle" fill="#037fff" x="16" y="0" width="8" height="2" rx="1"></rect><rect id="Rectangle" fill="#037fff" x="16" y="5" width="20" height="2" rx="1"></rect></g></g></g></svg>