<svg version="1.1" viewBox="0 0 32 43" xmlns="http://www.w3.org/2000/svg"><g fill="none" fill-rule="evenodd"><path d="m29.818 0c1.76 0 2.1818 0.28679 2.1818 1.9368v19.881c0 1.65-0.12235 2.1818-1.8824 2.1818h-27.869c-1.76 0-2.2489-0.53182-2.2489-2.1818v-19.532c0-1.65 0.12235-2.2857 1.8824-2.2857h27.936z" fill="#037fff" fill-rule="nonzero"/><rect x="4" y="16" width="13" height="1.5" rx=".5" fill="#fff"/><rect x="4" y="12" width="18" height="2" rx=".5" fill="#fff" fill-rule="nonzero"/><g transform="translate(0 27)"><path d="m12.872-1.5132e-6c0.77 0 1.1277 0.18753 1.1277 1.2875v13.372c0 1.1-0.35769 1.3407-1.1277 1.3407h-11.753c-0.77 0-1.1195-0.24068-1.1195-1.3407v-13.372c0-1.1 0.51369-1.2875 1.2837-1.2875h11.589z" fill="#037fff" fill-rule="nonzero"/><rect x="2" y="11" width="6" height="1" rx=".5" fill="#fff"/><rect x="2" y="7.5" width="9" height="1.5" rx=".5" fill="#fff" fill-rule="nonzero"/></g><g transform="translate(17 27)"><path d="m13.724 0c0.825 0 1.276 0.26154 1.276 1.3615v13.14c0 1.1-0.36238 1.4988-1.1874 1.4988h-12.588c-0.825 0-1.2251-0.26768-1.2251-1.3677v-13.271c0-1.1 0.4001-1.3615 1.2251-1.3615h12.499z" fill="#037fff" fill-rule="nonzero"/><rect x="2" y="11" width="7" height="1" rx=".5" fill="#fff"/><rect x="2" y="7.5" width="10" height="1.5" rx=".5" fill="#fff" fill-rule="nonzero"/></g></g></svg>