<svg version="1.1" viewBox="0 0 26 59" xmlns="http://www.w3.org/2000/svg"><g fill="none" fill-rule="evenodd"><g transform="translate(0 1)" fill-rule="nonzero"><path d="m23.462 0c1.3199 0 1.5369 0.9 1.5369 2v11.582c0 1.1 0.097032 2.418-1.2229 2.418h-21.351c-1.3199 0-1.4243-0.9-1.4243-2v-12c0-1.1 0.10437-2 1.4243-2h21.037z" fill="#fff" stroke="#037fff" stroke-width="2"/><polygon points="16.859 8 22 12 5 12 9.3493 8.9599 12.488 11.011" fill="#037fff"/><rect y="20" width="23" height="2" rx=".5" fill="#037fff"/><rect y="24" width="19.2" height="1.5" rx=".5" fill="#037fff"/><g transform="translate(0 32)"><path d="m23.462 0c1.3199 0 1.5369 0.9 1.5369 2v11.582c0 1.1 0.097032 2.418-1.2229 2.418h-21.351c-1.3199 0-1.4243-0.9-1.4243-2v-12c0-1.1 0.10437-2 1.4243-2h21.037z" fill="#fff" stroke="#037fff" stroke-width="2"/><polygon points="16.859 8 22 12 5 12 9.3493 8.9599 12.488 11.011" fill="#037fff"/><rect y="20" width="22" height="2" rx=".5" fill="#037fff"/><rect y="24" width="19.2" height="1.5" rx=".5" fill="#037fff"/></g></g></g></svg>