<svg version="1.1" viewBox="0 0 36 26" xmlns="http://www.w3.org/2000/svg"><g fill="none" fill-rule="evenodd"><g transform="translate(0 1)"><path d="m27.355 0c1.21 0 1.6445 0.22889 1.6445 1.6039v16.577c0 1.375-0.43453 1.8194-1.6445 1.8194h-18.453c-1.21 0-1.902-0.27097-1.902-1.646v-16.75c0-1.375 0.5256-1.6039 1.7356-1.6039h18.62z" fill-rule="nonzero" stroke="#037fff" stroke-width="2"/><rect x="15" y="12" width="6" height="1.5" rx=".5" fill="#037fff"/><rect x="12" y="24" width="3" height="1" rx=".5" fill="#037fff"/><rect x="20" y="24" width="3" height="1" rx=".5" fill="#037fff"/><rect x="16" y="24" width="3" height="1" rx=".5" fill="#037fff" fill-opacity=".67209"/><rect x="12" y="8" width="12" height="2" rx=".5" fill="#037fff" fill-rule="nonzero"/><path d="m2.4423 13c-0.11101 0-0.22203-0.064895-0.33304-0.12979l-1.8317-1.6873s-0.055507-0.064895-0.055507-0.064895c-0.22203-0.25958-0.22203-0.45427-0.22203-0.64895 0-0.19469 0.055507-0.38937 0.22203-0.64895 0 0 0.055507-0.064895 0.055507-0.064895l1.8317-1.6224c0.22203-0.19469 0.61058-0.19469 0.7771 0.12979 0.16652 0.25958 0.16652 0.71385-0.11101 0.90853l-1.4432 1.2979 1.4432 1.2979c0.22203 0.19469 0.27753 0.64895 0.11101 0.90853-0.11101 0.19469-0.27753 0.32448-0.44405 0.32448z" fill="#037fff" fill-rule="nonzero"/><path transform="translate(34.5 10.5) scale(-1 1) translate(-34.5 -10.5)" d="m35.442 13c-0.11101 0-0.22203-0.064895-0.33304-0.12979l-1.8317-1.6873s-0.055507-0.064895-0.055507-0.064895c-0.22203-0.25958-0.22203-0.45427-0.22203-0.64895 0-0.19469 0.055507-0.38937 0.22203-0.64895l0.055507-0.064895 1.8317-1.6224c0.22203-0.19469 0.61058-0.19469 0.7771 0.12979 0.16652 0.25958 0.16652 0.71385-0.11101 0.90853l-1.4432 1.2979 1.4432 1.2979c0.22203 0.19469 0.27753 0.64895 0.11101 0.90853-0.11101 0.19469-0.27753 0.32448-0.44405 0.32448z" fill="#037fff" fill-rule="nonzero"/></g></g></svg>