<svg version="1.1" viewBox="0 0 33 33" xmlns="http://www.w3.org/2000/svg"><g fill="none" fill-rule="evenodd"><g transform="translate(1 1)" fill-rule="nonzero"><path d="m12.6 0c0.77 0 1.4 0.73125 1.4 1.625v9.75c0 0.89375-0.63 1.625-1.4 1.625h-11.2c-0.77 0-1.4-0.73125-1.4-1.625v-9.75c0-0.89375 0.63-1.625 1.4-1.625h11.2z" fill="#fff" stroke="#037fff" stroke-width="1.5"/><polygon points="8.7315 8.4286 11.765 11.214 1.7353 11.214 4.3012 9.0971 6.153 10.526" fill="#037fff"/><path d="m17.751 3.8636c-0.41494 0-0.75132-0.33579-0.75132-0.75 0-0.41421 0.33638-0.75 0.75132-0.75h13.497c0.41494 0 0.75132 0.33579 0.75132 0.75 0 0.41421-0.33638 0.75-0.75132 0.75h-13.497z" fill="#037fff"/><path d="m17.411 7.4c-0.227 0-0.41102-0.3134-0.41102-0.7s0.18402-0.7 0.41102-0.7h7.3839c0.227 0 0.41102 0.3134 0.41102 0.7s-0.18402 0.7-0.41102 0.7h-7.3839z" fill="#037fff"/><g transform="translate(0 18)"><path d="m12.6 0c0.77 0 1.4 0.73125 1.4 1.625v9.75c0 0.89375-0.63 1.625-1.4 1.625h-11.2c-0.77 0-1.4-0.73125-1.4-1.625v-9.75c0-0.89375 0.63-1.625 1.4-1.625h11.2z" fill="#fff" stroke="#037fff" stroke-width="1.5"/><polygon points="8.7315 8.4286 11.765 11.214 1.7353 11.214 4.3012 9.0971 6.153 10.526" fill="#037fff"/><path d="m17.751 3.8636c-0.41494 0-0.75132-0.33579-0.75132-0.75 0-0.41421 0.33638-0.75 0.75132-0.75h13.497c0.41494 0 0.75132 0.33579 0.75132 0.75 0 0.41421-0.33638 0.75-0.75132 0.75h-13.497z" fill="#037fff"/><path d="m17.451 7.4c-0.24896 0-0.45079-0.3134-0.45079-0.7s0.20183-0.7 0.45079-0.7h8.0984c0.24896 0 0.45079 0.3134 0.45079 0.7s-0.20183 0.7-0.45079 0.7h-8.0984z" fill="#037fff"/></g></g></g></svg>