<svg width="66px" height="47px" viewBox="0 0 66 47" version="1.1" xmlns="http://www.w3.org/2000/svg"><g id="Page-1" stroke="none" stroke-width="1" fill="none" fill-rule="evenodd"><g id="post-grid5" transform="translate(-1.000000, 0.000000)" fill-rule="nonzero"><g id="Group-3" transform="translate(0.986291, 0.000777)"><path d="M35.0277187,3.79163095 L35.0277187,43.7154771 C35.0277187,46.9467598 34.8938987,46.9992227 32.9689187,46.9992227 L2.01740893,46.9984705 C0.0924089254,46.9984705 0.0137093455,46.9466972 0.0137093455,43.7154771 L0.0282186911,3.79163095 C0.0282186911,0.560348201 -0.254006621,-0.00077726934 1.67097338,-0.00077726934 L32.6420187,-0.00077726934 C35.0277187,-0.00077726934 35.0277187,-0.00077726934 35.0277187,3.79163095 Z" id="Path" fill="#037fff"></path><rect id="Rectangle" fill="#FFFFFF" x="5.01370935" y="38.9992227" width="24" height="2" rx="0.75"></rect><rect id="Rectangle" fill="#FFFFFF" x="5.01370935" y="32.9992227" width="8" height="1.5" rx="0.75"></rect></g><g id="Group" transform="translate(40.000000, 0.000000)"><path d="M11.9998984,1.46960449 L11.9998984,21.6246338 C11.9998984,23.2058982 11.6933184,23 11.0333161,23 L0.959484007,23 C0.299495007,23 -0.000134868671,23.2058668 -0.000134868671,21.6246338 L-0.000134868671,1.46960449 C-0.000134868671,-0.111659883 0.0547060133,-0.00130788399 0.71472168,-0.00130788399 L11.0333828,-1.19830361e-14 C11.6933051,-1.05909205e-14 11.9998984,-0.111712156 11.9998984,1.46960449 Z" id="Path" fill="#037fff"></path><rect id="Rectangle" fill="#FFFFFF" x="2" y="18" width="8" height="1.5" rx="0.6"></rect><rect id="Rectangle" fill="#FFFFFF" x="2" y="13" width="5" height="1.5" rx="0.75"></rect></g><g id="Group-Copy" transform="translate(55.000000, 0.000000)"><path d="M11.9999,1.47998047 L11.9999,21.6650391 C11.9999,23.2463034 11.6933184,23 11.0333161,23 L0.959484007,23 C0.299495007,23 -0.0001,23.2462721 -0.0001,21.6650391 L-0.0001,1.16967773 C-0.0001,-9.41521167e-16 -0.0001,-9.41521167e-16 1.10021499,-9.51495827e-16 L11.0333828,-9.51495827e-16 C11.9999,-2.58690638e-15 11.9999,-0.10133618 11.9999,1.47998047 Z" id="Path" fill="#037fff"></path><rect id="Rectangle" fill="#FFFFFF" x="2" y="18" width="8" height="1.5" rx="0.6"></rect><rect id="Rectangle" fill="#FFFFFF" x="2" y="13" width="5" height="1.5" rx="0.75"></rect></g><g id="Group" transform="translate(40.000000, 27.000000)"><path d="M27,1.29541016 L27,18.1265375 C27,19.50151 26.958567,20 25.473492,20 L2.20515,20 C0.72015,20 0,20.0722481 0,18.6972656 L0,1.29541016 C0,-0.0795623443 0.591953077,1.59464456e-15 2.07692308,1.59464456e-15 L24.70365,0.000899982 C26.1882,4.4398079e-16 27,-0.0795423447 27,1.29541016 Z" id="Path" fill="#037fff"></path><rect id="Rectangle" fill="#FFFFFF" x="4" y="14" width="17" height="1.5" rx="0.6"></rect><rect id="Rectangle" fill="#FFFFFF" x="4" y="9" width="6" height="1.5" rx="0.75"></rect></g></g></g></svg>