<svg width="65px" height="46px" viewBox="0 0 65 46" version="1.1" xmlns="http://www.w3.org/2000/svg"><g id="Page-1" stroke="none" stroke-width="1" fill="none" fill-rule="evenodd"><g id="post-grid7" transform="translate(-1.000000, 0.000000)" fill-rule="nonzero"><g id="Group-3" transform="translate(0.986291, 0.000777)"><path d="M35.0277187,3.71094141 L35.0277187,42.785344 C35.0277187,45.9478761 34.8938987,45.9992227 32.9689187,45.9992227 L2.01740893,45.9984865 C0.0924089254,45.9984865 0.0137093455,45.9478147 0.0137093455,42.785344 L0.0282186911,3.71094141 C0.0282186911,0.548409362 -0.254006621,-0.00077726934 1.67097338,-0.00077726934 L32.6420187,-0.00077726934 C35.0277187,-0.00077726934 35.0277187,-0.00077726934 35.0277187,3.71094141 Z" id="Path" fill="#037fff"></path><rect id="Rectangle" fill="#FFFFFF" x="5.01370935" y="37.9992227" width="24" height="2" rx="0.75"></rect><rect id="Rectangle" fill="#FFFFFF" x="5.01370935" y="31.9992227" width="8" height="1.5" rx="0.75"></rect></g><g id="Group-Copy" transform="translate(54.000000, 0.000000)"><path d="M11.9999,1.47998047 L11.9999,21.6650391 C11.9999,23.2463034 11.6933184,23 11.0333161,23 L0.959484007,23 C0.299495007,23 -0.0001,23.2462721 -0.0001,21.6650391 L-0.0001,1.16967773 C-0.0001,-9.41521167e-16 -0.0001,-9.41521167e-16 1.10021499,-9.51495827e-16 L11.0333828,-9.51495827e-16 C11.9999,-2.58690638e-15 11.9999,-0.10133618 11.9999,1.47998047 Z" id="Path" fill="#037fff"></path><rect id="Rectangle" fill="#FFFFFF" x="2" y="18" width="8" height="1.5" rx="0.6"></rect><rect id="Rectangle" fill="#FFFFFF" x="2" y="13" width="5" height="1.5" rx="0.75"></rect></g><g id="Group" transform="translate(39.000000, 0.000000)"><path d="M12,2.98184055 L12,41.6905121 C12,44.8527102 11.9815853,45.9991507 11.321552,45.9991507 L0.980066667,45.9991507 C0.320066667,45.9991507 0,46.1653089 0,43.0030878 L0,2.98184055 C0,-0.18035756 0.263090256,0.00262202279 0.923076923,0.00262202279 L10.9794,0.00469182519 C11.6392,0.00262202279 12,-0.180311564 12,2.98184055 Z" id="Path" fill="#037fff"></path><rect id="Rectangle" fill="#FFFFFF" x="2" y="41" width="8" height="1.5" rx="0.6"></rect><rect id="Rectangle" fill="#FFFFFF" x="2" y="37" width="6" height="1.5" rx="0.75"></rect></g><g id="Group-Copy-4" transform="translate(54.000000, 26.000000)"><path d="M12,1.29541016 L12,18.1265375 C12,19.50151 11.9815853,20 11.321552,20 L0.980066667,20 C0.320066667,20 0,20.0722481 0,18.6972656 L0,1.29541016 C0,-0.0795623443 0.263090256,3.37132666e-15 0.923076923,3.37132666e-15 L10.9794,0.000899982 C11.6392,2.22066289e-15 12,-0.0795423447 12,1.29541016 Z" id="Path" fill="#037fff"></path><rect id="Rectangle" fill="#FFFFFF" x="2" y="15" width="8" height="1.5" rx="0.6"></rect><rect id="Rectangle" fill="#FFFFFF" x="2" y="11" width="6" height="1.5" rx="0.75"></rect></g></g></g></svg>