<svg version="1.1" viewBox="0 0 33 40" xmlns="http://www.w3.org/2000/svg"><g fill="none" fill-rule="evenodd"><g transform="translate(1 1)" fill-rule="nonzero"><path d="m11.7 0c0.715 0 1.3 0.69062 1.3 1.5347v9.2083c0 0.8441-0.585 1.5347-1.3 1.5347h-10.4c-0.715 0-1.3-0.69062-1.3-1.5347v-9.2083c0-0.8441 0.585-1.5347 1.3-1.5347h10.4z" fill="#fff" stroke="#037fff" stroke-width="1.5"/><polygon points="8.3346 7.5556 11.143 10.389 1.8571 10.389 4.2328 8.2355 5.9473 9.6884" fill="#037fff"/><path d="m0.55812 15.111c-0.30824 0-0.55812-0.21142-0.55812-0.47222s0.24988-0.47222 0.55812-0.47222h10.027c0.30824 0 0.55812 0.21142 0.55812 0.47222s-0.24988 0.47222-0.55812 0.47222h-10.027z" fill="#037fff"/><path d="m0.41859 17c-0.23118 0-0.41859-0.21142-0.41859-0.47222 0-0.2608 0.18741-0.47222 0.41859-0.47222h7.52c0.23118 0 0.41859 0.21142 0.41859 0.47222 0 0.2608-0.18741 0.47222-0.41859 0.47222h-7.52z" fill="#037fff"/><g transform="translate(17)"><path d="m12.6 0c0.77 0 1.4 0.69062 1.4 1.5347v9.2083c0 0.8441-0.63 1.5347-1.4 1.5347h-11.2c-0.77 0-1.4-0.69062-1.4-1.5347v-9.2083c0-0.8441 0.63-1.5347 1.4-1.5347h11.2z" fill="#fff" stroke="#037fff" stroke-width="1.5"/><polygon points="8.3773 7.5556 11.2 10.389 1.8667 10.389 4.2545 8.2355 5.9778 9.6884" fill="#037fff"/><path d="m0.56098 15.111c-0.30982 0-0.56098-0.21142-0.56098-0.47222s0.25116-0.47222 0.56098-0.47222h10.078c0.30982 0 0.56098 0.21142 0.56098 0.47222s-0.25116 0.47222-0.56098 0.47222h-10.078z" fill="#037fff"/><path d="m0.42074 17c-0.23237 0-0.42074-0.21142-0.42074-0.47222 0-0.2608 0.18837-0.47222 0.42074-0.47222h7.5585c0.23237 0 0.42074 0.21142 0.42074 0.47222 0 0.2608-0.18837 0.47222-0.42074 0.47222h-7.5585z" fill="#037fff"/></g><g transform="translate(0 22)"><path d="m11.7 0c0.715 0 1.3 0.69062 1.3 1.5347v9.2083c0 0.8441-0.585 1.5347-1.3 1.5347h-10.4c-0.715 0-1.3-0.69062-1.3-1.5347v-9.2083c0-0.8441 0.585-1.5347 1.3-1.5347h10.4z" fill="#fff" stroke="#037fff" stroke-width="1.5"/><polygon points="8.3346 7.5556 11.143 10.389 1.8571 10.389 4.2328 8.2355 5.9473 9.6884" fill="#037fff"/><path d="m0.55812 15.111c-0.30824 0-0.55812-0.21142-0.55812-0.47222s0.24988-0.47222 0.55812-0.47222h10.027c0.30824 0 0.55812 0.21142 0.55812 0.47222s-0.24988 0.47222-0.55812 0.47222h-10.027z" fill="#037fff"/><path d="m0.41859 17c-0.23118 0-0.41859-0.21142-0.41859-0.47222 0-0.2608 0.18741-0.47222 0.41859-0.47222h7.52c0.23118 0 0.41859 0.21142 0.41859 0.47222 0 0.2608-0.18741 0.47222-0.41859 0.47222h-7.52z" fill="#037fff"/></g><g transform="translate(17 22)"><path d="m11.7 0c0.715 0 1.3 0.69062 1.3 1.5347v9.2083c0 0.8441-0.585 1.5347-1.3 1.5347h-10.4c-0.715 0-1.3-0.69062-1.3-1.5347v-9.2083c0-0.8441 0.585-1.5347 1.3-1.5347h10.4z" fill="#fff" stroke="#037fff" stroke-width="1.5"/><polygon points="8.3346 7.5556 11.143 10.389 1.8571 10.389 4.2328 8.2355 5.9473 9.6884" fill="#037fff"/><path d="m0.55812 15.111c-0.30824 0-0.55812-0.21142-0.55812-0.47222s0.24988-0.47222 0.55812-0.47222h10.027c0.30824 0 0.55812 0.21142 0.55812 0.47222s-0.24988 0.47222-0.55812 0.47222h-10.027z" fill="#037fff"/><path d="m0.41859 17c-0.23118 0-0.41859-0.21142-0.41859-0.47222 0-0.2608 0.18741-0.47222 0.41859-0.47222h7.52c0.23118 0 0.41859 0.21142 0.41859 0.47222 0 0.2608-0.18741 0.47222-0.41859 0.47222h-7.52z" fill="#037fff"/></g></g></g></svg>