<svg version="1.1" viewBox="0 0 56 45" xmlns="http://www.w3.org/2000/svg"><g fill="none" fill-rule="evenodd"><path d="m32.614 0c1.925 0 2.3863 0.53773 2.3863 3.6315v37.278c0 3.0938-0.13382 4.0909-2.0588 4.0909h-30.481c-1.925 0-2.4597-0.99716-2.4597-4.0909v-36.623c0-3.0938 0.13382-4.2857 2.0588-4.2857h30.555z" fill="#037fff" fill-rule="nonzero"/><rect x="5" y="35" width="17" height="1.5" rx=".5" fill="#fff"/><rect x="5" y="29" width="23" height="2" rx=".5" fill="#fff" fill-rule="nonzero"/><g transform="translate(38)"><path d="m16.55 0c0.99 0 1.4499 0.25785 1.4499 1.7704v18.386c0 1.5125-0.45988 1.8434-1.4499 1.8434h-15.111c-0.99 0-1.4394-0.33093-1.4394-1.8434v-18.386c0-1.5125 0.66046-1.7704 1.6505-1.7704h14.9z" fill="#037fff" fill-rule="nonzero"/><rect x="3" y="15" width="8" height="1.2" rx=".5" fill="#fff"/><rect x="3" y="10" width="11" height="1.5" rx=".5" fill="#fff" fill-rule="nonzero"/></g><g transform="translate(38 25)"><path d="m16.469 0c0.99 0 1.5312 0.32692 1.5312 1.7019v16.425c0 1.375-0.43485 1.8735-1.4249 1.8735h-15.105c-0.99 0-1.4701-0.33459-1.4701-1.7096v-16.588c0-1.375 0.48012-1.7019 1.4701-1.7019h14.999z" fill="#037fff" fill-rule="nonzero"/><rect x="3" y="13" width="7" height="1.2" rx=".5" fill="#fff"/><rect x="3" y="8.5" width="11" height="1.5" rx=".5" fill="#fff" fill-rule="nonzero"/></g></g></svg>