<svg version="1.1" viewBox="0 0 39 78" xmlns="http://www.w3.org/2000/svg"><g fill="none" fill-rule="evenodd"><g transform="translate(1 2)" fill-rule="nonzero"><path d="m33.785 0c1.9007 0 2.2131 1.2825 2.2131 2.85v16.504c0 1.5675 0.13973 3.4456-1.7609 3.4456h-30.746c-1.9007 0-2.051-1.2825-2.051-2.85v-17.1c0-1.5675 0.15029-2.85 2.051-2.85h30.294z" fill="#fff" stroke="#037fff" stroke-width="2.5"/><polygon points="24.277 12.16 31.68 18.24 7.2 18.24 13.463 13.619 17.983 16.737" fill="#037fff"/><rect y="28.88" width="30.24" height="3.04" rx=".5" fill="#037fff"/><rect y="34.96" width="24.48" height="2.28" rx=".5" fill="#037fff"/><g transform="translate(0 45)"><path d="m16.649 0c0.93923 0 1.4244 0.675 1.4244 1.5v9c0 0.825-0.48518 1.5-1.4244 1.5h-14.338c-0.93923 0-1.3149-0.675-1.3149-1.5v-8.7857c0-0.825 0.37566-1.7143 1.3149-1.7143h14.338z" fill="#fff" stroke="#037fff" stroke-width="2"/><polygon points="11.926 5.75 15.369 8.75 3.9846 8.75 6.8972 6.47 8.9993 8.0083" fill="#037fff"/><rect x="23.769" y="7" width="11.385" height="1.5" rx=".5" fill="#037fff"/><rect x="23.769" y="1.5" width="14.231" height="2.25" rx=".5" fill="#037fff"/></g><g transform="translate(0 63)"><path d="m16.649 0c0.93923 0 1.4244 0.675 1.4244 1.5v9c0 0.825-0.48518 1.5-1.4244 1.5h-14.338c-0.93923 0-1.3149-0.675-1.3149-1.5v-8.7857c0-0.825 0.37566-1.7143 1.3149-1.7143h14.338z" fill="#fff" stroke="#037fff" stroke-width="2"/><polygon points="11.926 5.75 15.369 8.75 3.9846 8.75 6.8972 6.47 8.9993 8.0083" fill="#037fff"/><rect x="23.769" y="7" width="11.385" height="1.5" rx=".5" fill="#037fff"/><rect x="23.769" y="1.5" width="14.231" height="2.25" rx=".5" fill="#037fff"/></g></g></g></svg>