<svg viewBox="0 0 41 41" xmlns="http://www.w3.org/2000/svg">
<g transform="translate(2 2)" fill="none" fill-rule="evenodd">
<path d="m34.629-1c2.5831 0 3.3694 1.9501 3.3694 5.625v26.783c0 0.13401 3.031e-4 0.24247 0.0012221 0.49067 0.0011208 0.30323 0.0014432 0.44226 0.0011433 0.61446-0.0064906 3.7275-0.53568 5.4865-2.8877 5.4865h-32.916c-2.5862 0-3.1958-1.7346-3.1958-5.625v-27.75c0-3.8905 0.60954-5.625 3.1958-5.625h32.432z" stroke="#037fff" stroke-width="2"/><g transform="translate(4 4)" fill="#037fff" fill-rule="nonzero"><rect width="7" height="7" rx="1"/><rect transform="translate(11)" width="7" height="7" rx="1"/><rect transform="translate(22)" width="7" height="7" rx="1"/></g><g transform="translate(4 15)" fill="#037fff" fill-rule="nonzero"><rect width="7" height="7" rx="1"/><rect transform="translate(11)" width="7" height="7" rx="1"/><rect transform="translate(22)" width="7" height="7" rx="1"/></g><g transform="translate(4 26)" fill="#037fff" fill-rule="nonzero"><rect width="7" height="7" rx="1"/><rect transform="translate(11)" width="7" height="7" rx="1"/><rect transform="translate(22)" width="7" height="7" rx="1"/></g></g></svg>