<svg version="1.1" viewBox="0 0 24 24" xmlns="http://www.w3.org/2000/svg"><g fill="none" fill-rule="evenodd"><g transform="translate(1 1)" fill-rule="nonzero"><path id="a" d="m8 7c0-0.55228 0.44772-1 1-1h6c0.55228 0 1 0.44772 1 1v4c0 0.55228-0.44772 1-1 1h-1v3c0 0.55228-0.44772 1-1 1h-6c-0.55228 0-1-0.44772-1-1v-4c0-0.55228 0.44772-1 1-1h1v-3zm2 3h4v-2h-4v2zm2 2h-4v2h4v-2z" fill="#037fff"/><path d="m1 3.732c-0.72821-0.42036-1.1157-1.2513-0.96974-2.0794 0.14599-0.82806 0.79431-1.4764 1.6224-1.6224 0.82806-0.14599 1.659 0.24153 2.0794 0.96974h14.536c0.42036-0.72821 1.2513-1.1157 2.0794-0.96974 0.82806 0.14599 1.4764 0.79431 1.6224 1.6224 0.14599 0.82806-0.24153 1.659-0.96974 2.0794v14.536c0.72821 0.42036 1.1157 1.2513 0.96974 2.0794-0.14599 0.82806-0.79431 1.4764-1.6224 1.6224-0.82806 0.14599-1.659-0.24153-2.0794-0.96974h-14.536c-0.42036 0.72821-1.2513 1.1157-2.0794 0.96974-0.82806-0.14599-1.4764-0.79431-1.6224-1.6224-0.14599-0.82806 0.24153-1.659 0.96974-2.0794v-14.536zm2.732-0.732h14.536c0.175 0.304 0.428 0.557 0.732 0.732v14.536c-0.30373 0.1759-0.5561 0.42827-0.732 0.732h-14.536c-0.1759-0.30373-0.42827-0.5561-0.732-0.732v-14.536c0.30373-0.1759 0.5561-0.42827 0.732-0.732z" stroke="#037fff"/></g></g></svg>