<svg xmlns="http://www.w3.org/2000/svg" viewBox="0 0 512 512"><path d="m508.74 246.04c-4.574-6.257-113.56-153.21-252.75-153.21s-248.18 146.95-252.75 153.2c-4.332 5.936-4.332 13.987 0 19.923 4.569 6.257 113.56 153.21 252.75 153.21s248.17-146.95 252.75-153.2c4.338-5.935 4.338-13.992 0-19.922zm-252.75 139.36c-102.53 0-191.33-97.533-217.62-129.42 26.253-31.913 114.87-129.4 217.62-129.4 102.52 0 191.32 97.516 217.62 129.42-26.253 31.912-114.87 129.4-217.62 129.4z"/><path d="m256 154.72c-55.842 0-101.28 45.433-101.28 101.28s45.433 101.28 101.28 101.28 101.28-45.433 101.28-101.28-45.433-101.28-101.28-101.28zm0 168.79c-37.23 0-67.516-30.287-67.516-67.516s30.287-67.516 67.516-67.516 67.516 30.287 67.516 67.516-30.286 67.516-67.516 67.516z"/></svg>